<svg xmlns="http://www.w3.org/2000/svg" width="86.188" height="45.302" viewBox="0 0 86.188 45.302">
  <g id="Group_4169" data-name="Group 4169" transform="translate(455.913 -1209.834)">
    <path id="Path_11852" data-name="Path 11852" d="M-437.455,1232.975l-8.849-7.166a40.775,40.775,0,0,0-9.6,27.12h11.336A32.011,32.011,0,0,1-437.455,1232.975Z" fill="#cd001b"/>
    <g id="Group_4035" data-name="Group 4035">
      <g id="Group_4371" data-name="Group 4371" style="isolation: isolate">
        <text id="_21_" data-name="21%" transform="translate(-424.309 1252.136)" fill="#fff" font-size="12.797" font-family="Montserrat-Bold, Montserrat" font-weight="700" style="isolation: isolate"><tspan x="0" y="0">21%</tspan></text>
      </g>
    </g>
    <path id="Path_11902" data-name="Path 11902" d="M-412.422,1220.993a32.15,32.15,0,0,1,32.147,31.854h10.55a43.089,43.089,0,0,0-43.167-43.013,43.09,43.09,0,0,0-33.412,15.975l8.848,7.166A32.089,32.089,0,0,1-412.422,1220.993Z" fill="#e7e6e5"/>
  </g>
</svg>
