<svg xmlns="http://www.w3.org/2000/svg" width="86.188" height="45.302" viewBox="0 0 86.188 45.302">
  <g id="Group_4170" data-name="Group 4170" transform="translate(296.52 -1209.834)">
    <path id="Path_12001" data-name="Path 12001" d="M-278.062,1232.975l-8.849-7.166a40.77,40.77,0,0,0-9.6,27.12h11.336A32.011,32.011,0,0,1-278.062,1232.975Z" fill="#cd001b"/>
    <g id="Group_4107" data-name="Group 4107">
      <g id="Group_4372" data-name="Group 4372" style="isolation: isolate">
        <text id="_22_" data-name="22%" transform="translate(-266.246 1252.136)" fill="#fff" font-size="12.797" font-family="Montserrat-Bold, Montserrat" font-weight="700" style="isolation: isolate"><tspan x="0" y="0">22%</tspan></text>
      </g>
    </g>
    <path id="Path_12000" data-name="Path 12000" d="M-253.029,1220.993a32.15,32.15,0,0,1,32.147,31.854h10.55a43.09,43.09,0,0,0-43.167-43.013,43.087,43.087,0,0,0-33.412,15.975l8.848,7.166A32.086,32.086,0,0,1-253.029,1220.993Z" fill="#e7e6e5"/>
  </g>
</svg>
