<svg xmlns="http://www.w3.org/2000/svg" width="86.182" height="45.525" viewBox="0 0 86.182 45.525">
  <g id="Group_4173" data-name="Group 4173" transform="translate(455.52 -954.88)">
    <path id="Path_11862" data-name="Path 11862" d="M-434.751,974.859l-7.6-7.874a40.9,40.9,0,0,0-13.158,31h10.938A32.053,32.053,0,0,1-434.751,974.859Z" fill="#cd001b"/>
    <g id="Group_4037" data-name="Group 4037">
      <g id="Group_4379" data-name="Group 4379" style="isolation: isolate">
        <text id="_25_" data-name="25%" transform="translate(-425.537 997.405)" fill="#fff" font-size="12.797" font-family="Montserrat-Bold, Montserrat" font-weight="700" style="isolation: isolate"><tspan x="0" y="0">25%</tspan></text>
      </g>
    </g>
    <path id="Path_11915" data-name="Path 11915" d="M-412.42,965.828a32.155,32.155,0,0,1,32.155,32.108h10.927a43.082,43.082,0,0,0-43.107-43.056,43.08,43.08,0,0,0-29.91,12.1l7.6,7.874A32.041,32.041,0,0,1-412.42,965.828Z" fill="#e7e6e5"/>
  </g>
</svg>
