<svg xmlns="http://www.w3.org/2000/svg" width="86.182" height="45.525" viewBox="0 0 86.182 45.525">
  <g id="Group_4174" data-name="Group 4174" transform="translate(296.127 -954.88)">
    <path id="Path_11997" data-name="Path 11997" d="M-275.358,974.859l-7.6-7.874a40.9,40.9,0,0,0-13.158,31h10.938A32.053,32.053,0,0,1-275.358,974.859Z" fill="#cd001b"/>
    <g id="Group_4105" data-name="Group 4105">
      <g id="Group_4380" data-name="Group 4380" style="isolation: isolate">
        <text id="_26_" data-name="26%" transform="translate(-266.335 997.405)" fill="#fff" font-size="12.797" font-family="Montserrat-Bold, Montserrat" font-weight="700" style="isolation: isolate"><tspan x="0" y="0">26%</tspan></text>
      </g>
    </g>
    <path id="Path_11996" data-name="Path 11996" d="M-253.027,965.828a32.156,32.156,0,0,1,32.155,32.108h10.927a43.082,43.082,0,0,0-43.107-43.056,43.08,43.08,0,0,0-29.91,12.1l7.6,7.874A32.039,32.039,0,0,1-253.027,965.828Z" fill="#e7e6e5"/>
  </g>
</svg>
