<svg xmlns="http://www.w3.org/2000/svg" width="86.19" height="45.994" viewBox="0 0 86.19 45.994">
  <g id="Group_4175" data-name="Group 4175" transform="translate(1669.235 -578.423)">
    <path id="Path_11867" data-name="Path 11867" d="M-1646.8,596.89l-7.035-8.383a41.377,41.377,0,0,0-15.393,33.012h10.939A32.085,32.085,0,0,1-1646.8,596.89Z" fill="#cd001b"/>
    <g id="Group_4038" data-name="Group 4038">
      <g id="Group_4607" data-name="Group 4607">
        <g id="Group_4383" data-name="Group 4383">
          <g id="Group_4606" data-name="Group 4606" style="isolation: isolate">
            <text id="_27_" data-name="27%" transform="translate(-1639.51 621.417)" fill="#fff" font-size="12.797" font-family="Montserrat-Bold, Montserrat" font-weight="700" style="isolation: isolate"><tspan x="0" y="0">27%</tspan></text>
          </g>
        </g>
      </g>
    </g>
    <path id="Path_11920" data-name="Path 11920" d="M-1626.133,589.364a32.155,32.155,0,0,1,32.153,32.053h10.935a43.088,43.088,0,0,0-43.182-42.994h0a43.083,43.083,0,0,0-27.607,10.085l7.035,8.383A32.016,32.016,0,0,1-1626.133,589.364Z" fill="#e7e6e5"/>
  </g>
</svg>
