<svg xmlns="http://www.w3.org/2000/svg" width="86.19" height="45.994" viewBox="0 0 86.19 45.994">
  <g id="Group_4175" data-name="Group 4175" transform="translate(1509.842 -578.423)">
    <path id="Path_11867" data-name="Path 11867" d="M-1487.406,596.89l-7.035-8.383a41.376,41.376,0,0,0-15.393,33.012h10.939A32.086,32.086,0,0,1-1487.406,596.89Z" fill="#cd001b"/>
    <g id="Group_4038" data-name="Group 4038">
      <g id="Group_4609" data-name="Group 4609">
        <g id="Group_4383" data-name="Group 4383">
          <g id="Group_4608" data-name="Group 4608" style="isolation: isolate">
            <text id="_28_" data-name="28%" transform="translate(-1480.117 621.417)" fill="#fff" font-size="12.797" font-family="Montserrat-Bold, Montserrat" font-weight="700" style="isolation: isolate"><tspan x="0" y="0">28%</tspan></text>
          </g>
        </g>
      </g>
    </g>
    <path id="Path_11920" data-name="Path 11920" d="M-1466.74,589.364a32.155,32.155,0,0,1,32.153,32.053h10.935a43.088,43.088,0,0,0-43.182-42.994h0a43.084,43.084,0,0,0-27.607,10.085l7.035,8.383A32.016,32.016,0,0,1-1466.74,589.364Z" fill="#e7e6e5"/>
  </g>
</svg>
