<svg xmlns="http://www.w3.org/2000/svg" width="86.185" height="45.493" viewBox="0 0 86.185 45.493">
  <g id="Group_4177" data-name="Group 4177" transform="translate(455.514 -699.938)">
    <path id="Path_11872" data-name="Path 11872" d="M-431.312,717.026l-6.433-8.855a41.792,41.792,0,0,0-17.764,34.865h10.94A32.1,32.1,0,0,1-431.312,717.026Z" fill="#cd001b"/>
    <g id="Group_4039" data-name="Group 4039">
      <g id="Group_4387" data-name="Group 4387" style="isolation: isolate">
        <text id="_29_" data-name="29%" transform="translate(-425.876 742.431)" fill="#fff" font-size="12.797" font-family="Montserrat-Bold, Montserrat" font-weight="700" style="isolation: isolate"><tspan x="0" y="0">29%</tspan></text>
      </g>
    </g>
    <path id="Path_11928" data-name="Path 11928" d="M-412.413,710.88a32.154,32.154,0,0,1,32.154,32.1h10.93a43.084,43.084,0,0,0-43.126-43.042,43.085,43.085,0,0,0-25.288,8.233l6.433,8.855A32,32,0,0,1-412.413,710.88Z" fill="#e7e6e5"/>
  </g>
</svg>
