<svg xmlns="http://www.w3.org/2000/svg" width="86.186" height="45.493" viewBox="0 0 86.186 45.493">
  <g id="Group_4178" data-name="Group 4178" transform="translate(296.122 -699.938)">
    <path id="Path_11992" data-name="Path 11992" d="M-271.919,717.026l-6.433-8.855a41.792,41.792,0,0,0-17.764,34.865h10.94A32.1,32.1,0,0,1-271.919,717.026Z" fill="#cd001b"/>
    <g id="Group_4103" data-name="Group 4103">
      <g id="Group_4388" data-name="Group 4388" style="isolation: isolate">
        <text id="_30_" data-name="30%" transform="translate(-266.765 742.431)" fill="#fff" font-size="12.797" font-family="Montserrat-Bold, Montserrat" font-weight="700" style="isolation: isolate"><tspan x="0" y="0">30%</tspan></text>
      </g>
    </g>
    <path id="Path_11993" data-name="Path 11993" d="M-253.02,710.88a32.155,32.155,0,0,1,32.154,32.1h10.93a43.085,43.085,0,0,0-43.127-43.042,43.084,43.084,0,0,0-25.287,8.233l6.433,8.855A32,32,0,0,1-253.02,710.88Z" fill="#e7e6e5"/>
  </g>
</svg>
