<svg xmlns="http://www.w3.org/2000/svg" width="86.191" height="45.473" viewBox="0 0 86.191 45.473">
  <g id="Group_4182" data-name="Group 4182" transform="translate(296.118 -444.979)">
    <path id="Path_11987" data-name="Path 11987" d="M-268.612,459.949l-5.3-9.569a41.9,41.9,0,0,0-22.2,37.691h10.942A32.141,32.141,0,0,1-268.612,459.949Z" fill="#cd001b"/>
    <g id="Group_4100" data-name="Group 4100">
      <g id="Group_4400" data-name="Group 4400" style="isolation: isolate">
        <text id="_34_" data-name="34%" transform="translate(-266.637 487.452)" fill="#fff" font-size="12.797" font-family="Montserrat-Bold, Montserrat" font-weight="700" style="isolation: isolate"><tspan x="0" y="0">34%</tspan></text>
      </g>
    </g>
    <path id="Path_11991" data-name="Path 11991" d="M-253.02,455.915a32.154,32.154,0,0,1,32.152,31.994h10.941a43.1,43.1,0,0,0-43.27-42.93,43.094,43.094,0,0,0-20.719,5.4l5.3,9.569A31.985,31.985,0,0,1-253.02,455.915Z" fill="#e7e6e5"/>
  </g>
</svg>
