<svg xmlns="http://www.w3.org/2000/svg" width="86.19" height="45.487" viewBox="0 0 86.19 45.487">
  <g id="Group_4185" data-name="Group 4185" transform="translate(455.517 -189.998)">
    <path id="Path_11892" data-name="Path 11892" d="M-424.466,203.276l-4.1-10.144c-16.771,6.776-26.951,21.868-26.951,39.956h10.944A32.16,32.16,0,0,1-424.466,203.276Z" fill="#cd001b"/>
    <g id="Group_4043" data-name="Group 4043">
      <g id="Group_4403" data-name="Group 4403" style="isolation: isolate">
        <text id="_37_" data-name="37%" transform="translate(-425.761 232.485)" fill="#fff" font-size="12.797" font-family="Montserrat-Bold, Montserrat" font-weight="700" style="isolation: isolate"><tspan x="0" y="0">37%</tspan></text>
      </g>
    </g>
    <g id="Group_4083" data-name="Group 4083">
      <path id="Path_11950" data-name="Path 11950" d="M-412.415,200.936a32.155,32.155,0,0,1,32.155,32.155v.015h10.933A43.094,43.094,0,0,0-412.407,190a43.076,43.076,0,0,0-16.157,3.138l4.1,10.144A32.061,32.061,0,0,1-412.415,200.936Z" fill="#e7e6e5"/>
      <path id="Path_11951" data-name="Path 11951" d="M-444.57,233.1v-.015h-10.945v.015Z" fill="#e7e6e5"/>
    </g>
  </g>
</svg>
