<svg xmlns="http://www.w3.org/2000/svg" width="86.19" height="45.487" viewBox="0 0 86.19 45.487">
  <g id="Group_4186" data-name="Group 4186" transform="translate(296.124 -189.998)">
    <path id="Path_11984" data-name="Path 11984" d="M-265.073,203.276l-4.1-10.144c-16.771,6.776-26.951,21.868-26.951,39.956h10.944A32.159,32.159,0,0,1-265.073,203.276Z" fill="#cd001b"/>
    <g id="Group_4098" data-name="Group 4098">
      <g id="Group_4404" data-name="Group 4404" style="isolation: isolate">
        <text id="_38_" data-name="38%" transform="translate(-266.579 232.485)" fill="#fff" font-size="12.797" font-family="Montserrat-Bold, Montserrat" font-weight="700" style="isolation: isolate"><tspan x="0" y="0">38%</tspan></text>
      </g>
    </g>
    <g id="Group_4099" data-name="Group 4099">
      <path id="Path_11950-2" data-name="Path 11950-2" d="M-253.022,200.936a32.155,32.155,0,0,1,32.155,32.155v.015h10.933A43.094,43.094,0,0,0-253.014,190a43.072,43.072,0,0,0-16.157,3.138l4.1,10.144A32.062,32.062,0,0,1-253.022,200.936Z" fill="#e7e6e5"/>
      <path id="Path_11951-2" data-name="Path 11951-2" d="M-285.177,233.1v-.015h-10.945v.015Z" fill="#e7e6e5"/>
    </g>
  </g>
</svg>
