<svg xmlns="http://www.w3.org/2000/svg" width="86.192" height="45.509" viewBox="0 0 86.192 45.509">
  <g id="Group_4187" data-name="Group 4187" transform="translate(455.52 -62.5)">
    <path id="Path_11897" data-name="Path 11897" d="M-422.36,75.012l-3.38-10.4A42.415,42.415,0,0,0-455.517,105.6h10.944A32.165,32.165,0,0,1-422.36,75.012Z" fill="#cd001b"/>
    <g id="Group_4044" data-name="Group 4044">
      <g id="Group_4407" data-name="Group 4407" style="isolation: isolate">
        <text id="_39_" data-name="39%" transform="translate(-425.889 105.009)" fill="#fff" font-size="12.797" font-family="Montserrat-Bold, Montserrat" font-weight="700" style="isolation: isolate"><tspan x="0" y="0">39%</tspan></text>
      </g>
    </g>
    <path id="Path_11959" data-name="Path 11959" d="M-412.418,73.436a32.155,32.155,0,0,1,32.155,32.14h10.935A43.1,43.1,0,0,0-412.452,62.5a43.094,43.094,0,0,0-13.291,2.109l3.38,10.4A32.11,32.11,0,0,1-412.418,73.436Z" fill="#e7e6e5"/>
  </g>
</svg>
