<svg xmlns="http://www.w3.org/2000/svg" width="86.192" height="45.509" viewBox="0 0 86.192 45.509">
  <g id="Group_4188" data-name="Group 4188" transform="translate(296.127 -62.5)">
    <path id="Path_11985" data-name="Path 11985" d="M-262.967,75.012l-3.38-10.4A42.415,42.415,0,0,0-296.124,105.6h10.944A32.163,32.163,0,0,1-262.967,75.012Z" fill="#cd001b"/>
    <g id="Group_4097" data-name="Group 4097">
      <g id="Group_4408" data-name="Group 4408" style="isolation: isolate">
        <text id="_40_" data-name="40%" transform="translate(-267.385 105.009)" fill="#fff" font-size="12.797" font-family="Montserrat-Bold, Montserrat" font-weight="700" style="isolation: isolate"><tspan x="0" y="0">40%</tspan></text>
      </g>
    </g>
    <path id="Path_11983" data-name="Path 11983" d="M-253.025,73.436a32.155,32.155,0,0,1,32.155,32.14h10.935A43.1,43.1,0,0,0-253.06,62.5a43.088,43.088,0,0,0-13.29,2.109l3.38,10.4A32.11,32.11,0,0,1-253.025,73.436Z" fill="#e7e6e5"/>
  </g>
</svg>
