<svg xmlns="http://www.w3.org/2000/svg" width="86.187" height="45.549" viewBox="0 0 86.187 45.549">
  <g id="Group_4191" data-name="Group 4191" transform="translate(717.368 -895.053)">
    <path id="Path_11858" data-name="Path 11858" d="M-680.408,906.584l-2.087-10.739a42.6,42.6,0,0,0-34.871,42.3h10.942A32.162,32.162,0,0,1-680.408,906.584Z" fill="#f7db2c"/>
    <g id="Group_4046" data-name="Group 4046">
      <g id="Group_4415" data-name="Group 4415" style="isolation: isolate">
        <text id="_43_" data-name="43%" transform="translate(-687.968 937.602)" fill="#fff" font-size="12.797" font-family="Montserrat-Bold, Montserrat" font-weight="700" style="isolation: isolate"><tspan x="0" y="0">43%</tspan></text>
      </g>
    </g>
    <g id="Group_4077" data-name="Group 4077">
      <path id="Path_11910" data-name="Path 11910" d="M-674.269,905.992a32.156,32.156,0,0,1,32.156,32.155v.023h10.932a43.09,43.09,0,0,0-43.065-43.117,43.026,43.026,0,0,0-8.25.792l2.087,10.739A32.276,32.276,0,0,1-674.269,905.992Z" fill="#e7e6e5"/>
      <path id="Path_11911" data-name="Path 11911" d="M-706.423,938.17v-.023h-10.944v.023Z" fill="#e7e6e5"/>
    </g>
  </g>
</svg>
