<svg xmlns="http://www.w3.org/2000/svg" width="86.187" height="45.549" viewBox="0 0 86.187 45.549">
  <g id="Group_4192" data-name="Group 4192" transform="translate(526.279 -895.053)">
    <path id="Path_12010" data-name="Path 12010" d="M-489.319,906.584l-2.087-10.739a42.6,42.6,0,0,0-34.871,42.3h10.942A32.162,32.162,0,0,1-489.319,906.584Z" fill="#f7db2c"/>
    <g id="Group_4109" data-name="Group 4109">
      <g id="Group_4416" data-name="Group 4416" style="isolation: isolate">
        <text id="_44_" data-name="44%" transform="translate(-497.416 937.602)" fill="#fff" font-size="12.797" font-family="Montserrat-Bold, Montserrat" font-weight="700" style="isolation: isolate"><tspan x="0" y="0">44%</tspan></text>
      </g>
    </g>
    <g id="Group_4111" data-name="Group 4111">
      <path id="Path_11910-2" data-name="Path 11910-2" d="M-483.18,905.992a32.156,32.156,0,0,1,32.156,32.155v.023h10.932a43.091,43.091,0,0,0-43.065-43.117,43.027,43.027,0,0,0-8.25.792l2.087,10.739A32.276,32.276,0,0,1-483.18,905.992Z" fill="#e7e6e5"/>
      <path id="Path_11911-2" data-name="Path 11911-2" d="M-515.334,938.17v-.023h-10.944v.023Z" fill="#e7e6e5"/>
    </g>
  </g>
</svg>
