<svg xmlns="http://www.w3.org/2000/svg" width="86.191" height="45.567" viewBox="0 0 86.191 45.567">
  <g id="Group_4193" data-name="Group 4193" transform="translate(717.373 -767.558)">
    <path id="Path_11863" data-name="Path 11863" d="M-678.746,778.822l-1.523-10.836a42.48,42.48,0,0,0-37.1,42.674h10.941A32.157,32.157,0,0,1-678.746,778.822Z" fill="#f7db2c"/>
    <g id="Group_4047" data-name="Group 4047">
      <g id="Group_4417" data-name="Group 4417" style="isolation: isolate">
        <text id="_45_" data-name="45%" transform="translate(-688.012 810.125)" fill="#fff" font-size="12.797" font-family="Montserrat-Bold, Montserrat" font-weight="700" style="isolation: isolate"><tspan x="0" y="0">45%</tspan></text>
      </g>
    </g>
    <path id="Path_11916" data-name="Path 11916" d="M-674.269,778.505a32.154,32.154,0,0,1,32.156,32.151h10.932a43.058,43.058,0,0,0-43.018-43.1,43.081,43.081,0,0,0-6.068.424l1.523,10.836A32.366,32.366,0,0,1-674.269,778.505Z" fill="#e7e6e5"/>
  </g>
</svg>
