<svg xmlns="http://www.w3.org/2000/svg" width="86.191" height="45.567" viewBox="0 0 86.191 45.567">
  <g id="Group_4194" data-name="Group 4194" transform="translate(526.283 -767.558)">
    <path id="Path_12011" data-name="Path 12011" d="M-487.657,778.822l-1.523-10.836a42.48,42.48,0,0,0-37.1,42.674h10.941A32.156,32.156,0,0,1-487.657,778.822Z" fill="#f7db2c"/>
    <g id="Group_4110" data-name="Group 4110">
      <g id="Group_4418" data-name="Group 4418" style="isolation: isolate">
        <text id="_46_" data-name="46%" transform="translate(-497.141 810.125)" fill="#fff" font-size="12.797" font-family="Montserrat-Bold, Montserrat" font-weight="700" style="isolation: isolate"><tspan x="0" y="0">46%</tspan></text>
      </g>
    </g>
    <path id="Path_12003" data-name="Path 12003" d="M-483.18,778.505a32.155,32.155,0,0,1,32.156,32.151h10.932a43.058,43.058,0,0,0-43.018-43.1,43.08,43.08,0,0,0-6.068.424l1.523,10.836A32.365,32.365,0,0,1-483.18,778.505Z" fill="#e7e6e5"/>
  </g>
</svg>
