<svg xmlns="http://www.w3.org/2000/svg" width="86.178" height="45.556" viewBox="0 0 86.178 45.556">
  <g id="Group_4195" data-name="Group 4195" transform="translate(717.364 -640.084)">
    <path id="Path_11868" data-name="Path 11868" d="M-676.512,651.111l-.764-10.92a42.8,42.8,0,0,0-40.087,42.989h10.939A32.151,32.151,0,0,1-676.512,651.111Z" fill="#f7db2c"/>
    <g id="Group_4048" data-name="Group 4048">
      <g id="Group_4421" data-name="Group 4421" style="isolation: isolate">
        <text id="_47_" data-name="47%" transform="translate(-688.026 682.64)" fill="#fff" font-size="12.797" font-family="Montserrat-Bold, Montserrat" font-weight="700" style="isolation: isolate"><tspan x="0" y="0">47%</tspan></text>
      </g>
    </g>
    <g id="Group_4078" data-name="Group 4078">
      <path id="Path_11921" data-name="Path 11921" d="M-674.269,651.024a32.156,32.156,0,0,1,32.156,32.156h0v.024h10.927c0-1-.023-2.013-.094-3.03a43.093,43.093,0,0,0-45.994-39.983l.763,10.92C-675.77,651.056-675.024,651.024-674.269,651.024Z" fill="#e7e6e5"/>
      <path id="Path_11922" data-name="Path 11922" d="M-706.423,683.2v-.024h-10.94v.024Z" fill="#e7e6e5"/>
    </g>
  </g>
</svg>
