<svg xmlns="http://www.w3.org/2000/svg" width="86.178" height="45.556" viewBox="0 0 86.178 45.556">
  <g id="Group_4196" data-name="Group 4196" transform="translate(526.275 -640.084)">
    <path id="Path_12012" data-name="Path 12012" d="M-485.423,651.111l-.764-10.92a42.8,42.8,0,0,0-40.087,42.989h10.939A32.151,32.151,0,0,1-485.423,651.111Z" fill="#f7db2c"/>
    <g id="Group_4112" data-name="Group 4112">
      <g id="Group_4422" data-name="Group 4422" style="isolation: isolate">
        <text id="_48_" data-name="48%" transform="translate(-497.423 682.64)" fill="#fff" font-size="12.797" font-family="Montserrat-Bold, Montserrat" font-weight="700" style="isolation: isolate"><tspan x="0" y="0">48%</tspan></text>
      </g>
    </g>
    <g id="Group_4113" data-name="Group 4113">
      <path id="Path_11921-2" data-name="Path 11921-2" d="M-483.18,651.024a32.156,32.156,0,0,1,32.156,32.156h0v.024H-440.1c0-1-.023-2.013-.094-3.03a43.093,43.093,0,0,0-45.994-39.983l.763,10.92C-484.681,651.056-483.935,651.024-483.18,651.024Z" fill="#e7e6e5"/>
      <path id="Path_11922-2" data-name="Path 11922-2" d="M-515.334,683.2v-.024h-10.94v.024Z" fill="#e7e6e5"/>
    </g>
  </g>
</svg>
