<svg xmlns="http://www.w3.org/2000/svg" width="86.184" height="45.514" viewBox="0 0 86.184 45.514">
  <g id="Group_4201" data-name="Group 4201" transform="translate(717.365 -257.657)">
    <path id="Path_11883" data-name="Path 11883" d="M-674.269,268.6a32.452,32.452,0,0,1,3.916.246l1.334-10.865a39.752,39.752,0,0,0-5.252-.321,43.094,43.094,0,0,0-43.094,43.094v0h10.941A32.156,32.156,0,0,1-674.27,268.6Z" fill="#f7db2c"/>
    <g id="Group_4051" data-name="Group 4051">
      <g id="Group_4433" data-name="Group 4433" style="isolation: isolate">
        <text id="_53_" data-name="53%" transform="translate(-687.379 300.172)" fill="#fff" font-size="12.797" font-family="Montserrat-Bold, Montserrat" font-weight="700" style="isolation: isolate"><tspan x="0" y="0">53%</tspan></text>
      </g>
    </g>
    <path id="Path_11946" data-name="Path 11946" d="M-642.116,300.629h10.935a43.093,43.093,0,0,0-37.833-42.65l-1.334,10.865A32.152,32.152,0,0,1-642.116,300.629Z" fill="#e7e6e5"/>
  </g>
</svg>
