<svg xmlns="http://www.w3.org/2000/svg" width="86.184" height="45.514" viewBox="0 0 86.184 45.514">
  <g id="Group_4202" data-name="Group 4202" transform="translate(526.276 -257.657)">
    <path id="Path_12007" data-name="Path 12007" d="M-483.18,268.6a32.453,32.453,0,0,1,3.916.246l1.334-10.865a39.752,39.752,0,0,0-5.252-.321,43.094,43.094,0,0,0-43.094,43.094v0h10.941A32.156,32.156,0,0,1-483.181,268.6Z" fill="#f7db2c"/>
    <g id="Group_4116" data-name="Group 4116">
      <g id="Group_4434" data-name="Group 4434" style="isolation: isolate">
        <text id="_54_" data-name="54%" transform="translate(-496.815 300.172)" fill="#fff" font-size="12.797" font-family="Montserrat-Bold, Montserrat" font-weight="700" style="isolation: isolate"><tspan x="0" y="0">54%</tspan></text>
      </g>
    </g>
    <path id="Path_12008" data-name="Path 12008" d="M-451.027,300.629h10.935a43.093,43.093,0,0,0-37.833-42.65l-1.334,10.865A32.152,32.152,0,0,1-451.027,300.629Z" fill="#e7e6e5"/>
  </g>
</svg>
