<svg xmlns="http://www.w3.org/2000/svg" width="86.186" height="45.511" viewBox="0 0 86.186 45.511">
  <g id="Group_4203" data-name="Group 4203" transform="translate(717.367 -130.174)">
    <path id="Path_11888" data-name="Path 11888" d="M-674.269,141.119a32.31,32.31,0,0,1,5.579.492l1.9-10.779a37.865,37.865,0,0,0-7.483-.655,43.094,43.094,0,0,0-43.094,43.094h10.942A32.156,32.156,0,0,1-674.269,141.119Z" fill="#f7db2c"/>
    <g id="Group_4052" data-name="Group 4052">
      <g id="Group_4429" data-name="Group 4429" style="isolation: isolate">
        <text id="_55_" data-name="55%" transform="translate(-687.398 172.686)" fill="#fff" font-size="12.797" font-family="Montserrat-Bold, Montserrat" font-weight="700" style="isolation: isolate"><tspan x="0" y="0">55%</tspan></text>
      </g>
    </g>
    <path id="Path_11936" data-name="Path 11936" d="M-642.115,173.2h10.934a43.1,43.1,0,0,0-35.6-42.372l-1.9,10.779A32.157,32.157,0,0,1-642.115,173.2Z" fill="#e7e6e5"/>
  </g>
</svg>
