<svg xmlns="http://www.w3.org/2000/svg" width="86.186" height="45.511" viewBox="0 0 86.186 45.511">
  <g id="Group_4204" data-name="Group 4204" transform="translate(526.278 -130.174)">
    <path id="Path_12014" data-name="Path 12014" d="M-483.18,141.119a32.31,32.31,0,0,1,5.579.492l1.9-10.779a37.871,37.871,0,0,0-7.483-.655,43.094,43.094,0,0,0-43.094,43.094h10.942A32.156,32.156,0,0,1-483.18,141.119Z" fill="#f7db2c"/>
    <g id="Group_4117" data-name="Group 4117">
      <g id="Group_4430" data-name="Group 4430" style="isolation: isolate">
        <text id="_56_" data-name="56%" transform="translate(-496.545 172.686)" fill="#fff" font-size="12.797" font-family="Montserrat-Bold, Montserrat" font-weight="700" style="isolation: isolate"><tspan x="0" y="0">56%</tspan></text>
      </g>
    </g>
    <path id="Path_12015" data-name="Path 12015" d="M-451.026,173.2h10.934a43.1,43.1,0,0,0-35.6-42.372l-1.9,10.779A32.157,32.157,0,0,1-451.026,173.2Z" fill="#e7e6e5"/>
  </g>
</svg>
