<svg xmlns="http://www.w3.org/2000/svg" width="86.187" height="45.514" viewBox="0 0 86.187 45.514">
  <g id="Group_4205" data-name="Group 4205" transform="translate(717.368 -2.691)">
    <path id="Path_11893" data-name="Path 11893" d="M-674.269,13.637a32.136,32.136,0,0,1,7.774.952l2.647-10.616a39.764,39.764,0,0,0-10.426-1.28,43.094,43.094,0,0,0-43.094,43.094h10.944A32.155,32.155,0,0,1-674.269,13.637Z" fill="#f7db2c"/>
    <g id="Group_4053" data-name="Group 4053">
      <g id="Group_4435" data-name="Group 4435" style="isolation: isolate">
        <text id="_57_" data-name="57%" transform="translate(-687.616 45.205)" fill="#fff" font-size="12.797" font-family="Montserrat-Bold, Montserrat" font-weight="700" style="isolation: isolate"><tspan x="0" y="0">57%</tspan></text>
      </g>
    </g>
    <g id="Group_4084" data-name="Group 4084">
      <path id="Path_11952" data-name="Path 11952" d="M-706.423,45.823v-.036h-10.945v.036Z" fill="#e7e6e5"/>
      <path id="Path_11953" data-name="Path 11953" d="M-642.113,45.792v.031h10.932a43.1,43.1,0,0,0-32.67-41.85L-666.5,14.589A32.164,32.164,0,0,1-642.113,45.792Z" fill="#e7e6e5"/>
    </g>
  </g>
</svg>
