<svg xmlns="http://www.w3.org/2000/svg" width="86.187" height="45.514" viewBox="0 0 86.187 45.514">
  <g id="Group_4206" data-name="Group 4206" transform="translate(526.279 -2.691)">
    <path id="Path_12016" data-name="Path 12016" d="M-483.18,13.637a32.135,32.135,0,0,1,7.774.952l2.647-10.616a39.769,39.769,0,0,0-10.426-1.28,43.094,43.094,0,0,0-43.094,43.094h10.944A32.155,32.155,0,0,1-483.18,13.637Z" fill="#f7db2c"/>
    <g id="Group_4118" data-name="Group 4118">
      <g id="Group_4436" data-name="Group 4436" style="isolation: isolate">
        <text id="_58_" data-name="58%" transform="translate(-496.757 45.205)" fill="#fff" font-size="12.797" font-family="Montserrat-Bold, Montserrat" font-weight="700" style="isolation: isolate"><tspan x="0" y="0">58%</tspan></text>
      </g>
    </g>
    <g id="Group_4119" data-name="Group 4119">
      <path id="Path_11952-2" data-name="Path 11952-2" d="M-515.334,45.823v-.036h-10.945v.036Z" fill="#e7e6e5"/>
      <path id="Path_11953-2" data-name="Path 11953-2" d="M-451.024,45.792v.031h10.932a43.105,43.105,0,0,0-32.67-41.85l-2.647,10.616A32.164,32.164,0,0,1-451.024,45.792Z" fill="#e7e6e5"/>
    </g>
  </g>
</svg>
