<svg xmlns="http://www.w3.org/2000/svg" width="86.187" height="45.513" viewBox="0 0 86.187 45.513">
  <g id="Group_4208" data-name="Group 4208" transform="translate(526.279 124.784)">
    <path id="Path_12017" data-name="Path 12017" d="M-483.18-113.844a32.073,32.073,0,0,1,9.93,1.57l3.381-10.4a40.934,40.934,0,0,0-13.316-2.109,43.094,43.094,0,0,0-43.094,43.094h10.944a32.155,32.155,0,0,1,32.155-32.155Z" fill="#f7db2c"/>
    <g id="Group_4120" data-name="Group 4120">
      <g id="Group_4438" data-name="Group 4438" style="isolation: isolate">
        <text id="_60_" data-name="60%" transform="translate(-497.212 -82.271)" fill="#fff" font-size="12.797" font-family="Montserrat-Bold, Montserrat" font-weight="700" style="isolation: isolate"><tspan x="0" y="0">60%</tspan></text>
      </g>
    </g>
    <path id="Path_12018" data-name="Path 12018" d="M-451.025-81.7h10.933a43.1,43.1,0,0,0-29.779-40.981l-3.381,10.4A32.164,32.164,0,0,1-451.025-81.7Z" fill="#e7e6e5"/>
  </g>
</svg>
