<svg xmlns="http://www.w3.org/2000/svg" width="86.192" height="45.315" viewBox="0 0 86.192 45.315">
  <g id="Group_4209" data-name="Group 4209" transform="translate(348.696 -1022.54)">
    <path id="Path_11854" data-name="Path 11854" d="M-304.87,1033.713a32.07,32.07,0,0,1,10.811,1.868l3.9-10.174a39.894,39.894,0,0,0-15.444-2.862,43.093,43.093,0,0,0-43.093,43.093h11.672A32.151,32.151,0,0,1-304.87,1033.713Z" fill="#f7db2c"/>
    <g id="Group_4055" data-name="Group 4055">
      <g id="Group_4411" data-name="Group 4411" style="isolation: isolate">
        <text id="_61_" data-name="61%" transform="translate(-317.787 1064.856)" fill="#fff" font-size="12.797" font-family="Montserrat-Bold, Montserrat" font-weight="700" style="isolation: isolate"><tspan x="0" y="0">61%</tspan></text>
      </g>
    </g>
    <path id="Path_11904" data-name="Path 11904" d="M-272.726,1065.567H-262.5a43.1,43.1,0,0,0-27.65-40.16l-3.9,10.174A32.16,32.16,0,0,1-272.726,1065.567Z" fill="#e7e6e5"/>
  </g>
</svg>
