<svg xmlns="http://www.w3.org/2000/svg" width="86.192" height="45.315" viewBox="0 0 86.192 45.315">
  <g id="Group_4210" data-name="Group 4210" transform="translate(171.112 -1022.54)">
    <path id="Path_12033" data-name="Path 12033" d="M-127.286,1033.713a32.07,32.07,0,0,1,10.811,1.868l3.9-10.174a39.894,39.894,0,0,0-15.444-2.862,43.093,43.093,0,0,0-43.093,43.093h11.672A32.151,32.151,0,0,1-127.286,1033.713Z" fill="#f7db2c"/>
    <g id="Group_4134" data-name="Group 4134">
      <g id="Group_4412" data-name="Group 4412" style="isolation: isolate">
        <text id="_62_" data-name="62%" transform="translate(-141.534 1064.856)" fill="#fff" font-size="12.797" font-family="Montserrat-Bold, Montserrat" font-weight="700" style="isolation: isolate"><tspan x="0" y="0">62%</tspan></text>
      </g>
    </g>
    <path id="Path_12034" data-name="Path 12034" d="M-95.142,1065.567H-84.92a43.1,43.1,0,0,0-27.65-40.16l-3.9,10.174A32.16,32.16,0,0,1-95.142,1065.567Z" fill="#e7e6e5"/>
  </g>
</svg>
