<svg xmlns="http://www.w3.org/2000/svg" width="86.188" height="45.548" viewBox="0 0 86.188 45.548">
  <g id="Group_4211" data-name="Group 4211" transform="translate(348.691 -895.054)">
    <path id="Path_11859" data-name="Path 11859" d="M-305.592,906a32.04,32.04,0,0,1,13.584,3.009l4.623-9.915a40.742,40.742,0,0,0-18.212-4.037,43.092,43.092,0,0,0-43.094,43.092h10.944A32.155,32.155,0,0,1-305.592,906Z" fill="#f7db2c"/>
    <g id="Group_4056" data-name="Group 4056">
      <g id="Group_4413" data-name="Group 4413" style="isolation: isolate">
        <text id="_63_" data-name="63%" transform="translate(-319.003 937.602)" fill="#fff" font-size="12.797" font-family="Montserrat-Bold, Montserrat" font-weight="700" style="isolation: isolate"><tspan x="0" y="0">63%</tspan></text>
      </g>
    </g>
    <g id="Group_4076" data-name="Group 4076">
      <path id="Path_11908" data-name="Path 11908" d="M-273.437,938.156v.015H-262.5a43.091,43.091,0,0,0-24.882-39.076l-4.623,9.915A32.154,32.154,0,0,1-273.437,938.156Z" fill="#e7e6e5"/>
      <path id="Path_11909" data-name="Path 11909" d="M-337.747,938.17v-.02h-10.94v.02Z" fill="#e7e6e5"/>
    </g>
  </g>
</svg>
