<svg xmlns="http://www.w3.org/2000/svg" width="86.188" height="45.548" viewBox="0 0 86.188 45.548">
  <g id="Group_4212" data-name="Group 4212" transform="translate(171.107 -895.054)">
    <path id="Path_12030" data-name="Path 12030" d="M-128.008,906a32.04,32.04,0,0,1,13.584,3.009l4.623-9.915a40.742,40.742,0,0,0-18.212-4.037,43.092,43.092,0,0,0-43.094,43.092h10.944A32.155,32.155,0,0,1-128.008,906Z" fill="#f7db2c"/>
    <g id="Group_4131" data-name="Group 4131">
      <g id="Group_4414" data-name="Group 4414" style="isolation: isolate">
        <text id="_64_" data-name="64%" transform="translate(-141.912 937.602)" fill="#fff" font-size="12.797" font-family="Montserrat-Bold, Montserrat" font-weight="700" style="isolation: isolate"><tspan x="0" y="0">64%</tspan></text>
      </g>
    </g>
    <g id="Group_4133" data-name="Group 4133">
      <path id="Path_11908-2" data-name="Path 11908-2" d="M-95.853,938.156v.015h10.934A43.091,43.091,0,0,0-109.8,899.095l-4.623,9.915A32.154,32.154,0,0,1-95.853,938.156Z" fill="#e7e6e5"/>
      <path id="Path_11909-2" data-name="Path 11909-2" d="M-160.163,938.17v-.02H-171.1v.02Z" fill="#e7e6e5"/>
    </g>
  </g>
</svg>
