<svg xmlns="http://www.w3.org/2000/svg" width="86.186" height="45.562" viewBox="0 0 86.186 45.562">
  <g id="Group_4213" data-name="Group 4213" transform="translate(348.687 -767.563)">
    <path id="Path_11864" data-name="Path 11864" d="M-305.592,778.513a31.989,31.989,0,0,1,15.091,3.76l5.136-9.659A40.012,40.012,0,0,0-305.6,767.57a43.094,43.094,0,0,0-43.091,43.094h10.94A32.155,32.155,0,0,1-305.592,778.513Z" fill="#f7db2c"/>
    <g id="Group_4057" data-name="Group 4057">
      <g id="Group_4419" data-name="Group 4419" style="isolation: isolate">
        <text id="_65_" data-name="65%" transform="translate(-319.016 810.125)" fill="#fff" font-size="12.797" font-family="Montserrat-Bold, Montserrat" font-weight="700" style="isolation: isolate"><tspan x="0" y="0">65%</tspan></text>
      </g>
    </g>
    <path id="Path_11917" data-name="Path 11917" d="M-273.437,810.656H-262.5a43.078,43.078,0,0,0-22.864-38.046l-5.136,9.659A32.145,32.145,0,0,1-273.437,810.656Z" fill="#e7e6e5"/>
  </g>
</svg>
