<svg xmlns="http://www.w3.org/2000/svg" width="86.186" height="45.562" viewBox="0 0 86.186 45.562">
  <g id="Group_4214" data-name="Group 4214" transform="translate(171.103 -767.563)">
    <path id="Path_12031" data-name="Path 12031" d="M-128.008,778.513a31.989,31.989,0,0,1,15.091,3.76l5.136-9.659a40.012,40.012,0,0,0-20.231-5.044A43.094,43.094,0,0,0-171.1,810.664h10.94A32.155,32.155,0,0,1-128.008,778.513Z" fill="#f7db2c"/>
    <g id="Group_4132" data-name="Group 4132">
      <g id="Group_4420" data-name="Group 4420" style="isolation: isolate">
        <text id="_66_" data-name="66%" transform="translate(-141.637 810.125)" fill="#fff" font-size="12.797" font-family="Montserrat-Bold, Montserrat" font-weight="700" style="isolation: isolate"><tspan x="0" y="0">66%</tspan></text>
      </g>
    </g>
    <path id="Path_12032" data-name="Path 12032" d="M-95.853,810.656h10.936a43.078,43.078,0,0,0-22.864-38.046l-5.136,9.659A32.145,32.145,0,0,1-95.853,810.656Z" fill="#e7e6e5"/>
  </g>
</svg>
