<svg xmlns="http://www.w3.org/2000/svg" width="86.183" height="45.559" viewBox="0 0 86.183 45.559">
  <g id="Group_4216" data-name="Group 4216" transform="translate(348.687 -640.08)">
    <path id="Path_11869" data-name="Path 11869" d="M-305.592,651.027a31.987,31.987,0,0,1,17.035,4.887l5.8-9.28a40.716,40.716,0,0,0-22.836-6.548,43.092,43.092,0,0,0-43.094,43.092v0h10.94A32.155,32.155,0,0,1-305.592,651.027Z" fill="#f7db2c"/>
    <g id="Group_4058" data-name="Group 4058">
      <g id="Group_4423" data-name="Group 4423" style="isolation: isolate">
        <text id="_67_" data-name="67%" transform="translate(-319.259 682.64)" fill="#fff" font-size="12.797" font-family="Montserrat-Bold, Montserrat" font-weight="700" style="isolation: isolate"><tspan x="0" y="0">67%</tspan></text>
      </g>
    </g>
    <g id="Group_4079" data-name="Group 4079">
      <path id="Path_11923" data-name="Path 11923" d="M-273.436,683.183v.021H-262.5a43.059,43.059,0,0,0-20.253-36.57l-5.8,9.28A32.126,32.126,0,0,1-273.436,683.183Z" fill="#e7e6e5"/>
      <path id="Path_11924" data-name="Path 11924" d="M-337.747,683.2v-.024h-10.94v.024Z" fill="#e7e6e5"/>
    </g>
  </g>
</svg>
