<svg xmlns="http://www.w3.org/2000/svg" width="86.183" height="45.559" viewBox="0 0 86.183 45.559">
  <g id="Group_4215" data-name="Group 4215" transform="translate(171.103 -640.08)">
    <path id="Path_12029" data-name="Path 12029" d="M-128.008,651.027a31.987,31.987,0,0,1,17.035,4.887l5.8-9.28a40.716,40.716,0,0,0-22.836-6.548A43.092,43.092,0,0,0-171.1,683.178v0h10.94A32.155,32.155,0,0,1-128.008,651.027Z" fill="#f7db2c"/>
    <g id="Group_4129" data-name="Group 4129">
      <g id="Group_4424" data-name="Group 4424" style="isolation: isolate">
        <text id="_68_" data-name="68%" transform="translate(-141.854 682.64)" fill="#fff" font-size="12.797" font-family="Montserrat-Bold, Montserrat" font-weight="700" style="isolation: isolate"><tspan x="0" y="0">68%</tspan></text>
      </g>
    </g>
    <g id="Group_4130" data-name="Group 4130">
      <path id="Path_11923-2" data-name="Path 11923-2" d="M-95.852,683.183v.021H-84.92a43.059,43.059,0,0,0-20.253-36.57l-5.8,9.28A32.126,32.126,0,0,1-95.852,683.183Z" fill="#e7e6e5"/>
      <path id="Path_11924-2" data-name="Path 11924-2" d="M-160.163,683.2v-.024H-171.1v.024Z" fill="#e7e6e5"/>
    </g>
  </g>
</svg>
