<svg xmlns="http://www.w3.org/2000/svg" width="86.18" height="45.55" viewBox="0 0 86.18 45.55">
  <g id="Group_4217" data-name="Group 4217" transform="translate(348.687 -512.601)">
    <path id="Path_11874" data-name="Path 11874" d="M-305.592,523.545a32,32,0,0,1,18.9,6.144l6.432-8.854a41.286,41.286,0,0,0-25.329-8.23,43.093,43.093,0,0,0-43.1,43.088v.005h10.94A32.155,32.155,0,0,1-305.592,523.545Z" fill="#f7db2c"/>
    <g id="Group_4059" data-name="Group 4059">
      <g id="Group_4427" data-name="Group 4427" style="isolation: isolate">
        <text id="_69_" data-name="69%" transform="translate(-319.355 555.151)" fill="#fff" font-size="12.797" font-family="Montserrat-Bold, Montserrat" font-weight="700" style="isolation: isolate"><tspan x="0" y="0">69%</tspan></text>
      </g>
    </g>
    <g id="Group_4081" data-name="Group 4081">
      <path id="Path_11930" data-name="Path 11930" d="M-273.437,555.7h10.93a43.023,43.023,0,0,0-17.757-34.869l-6.432,8.854A32.1,32.1,0,0,1-273.437,555.7Z" fill="#e7e6e5"/>
      <path id="Path_11931" data-name="Path 11931" d="M-337.747,555.7V555.7h-10.94v.006Z" fill="#e7e6e5"/>
    </g>
  </g>
</svg>
