<svg xmlns="http://www.w3.org/2000/svg" width="86.18" height="45.55" viewBox="0 0 86.18 45.55">
  <g id="Group_4218" data-name="Group 4218" transform="translate(171.103 -512.601)">
    <path id="Path_12021" data-name="Path 12021" d="M-128.008,523.545a32,32,0,0,1,18.9,6.144l6.432-8.854a41.286,41.286,0,0,0-25.329-8.23,43.093,43.093,0,0,0-43.1,43.088v.005h10.94A32.155,32.155,0,0,1-128.008,523.545Z" fill="#f7db2c"/>
    <g id="Group_4122" data-name="Group 4122">
      <g id="Group_4428" data-name="Group 4428" style="isolation: isolate">
        <text id="_70_" data-name="70%" transform="translate(-141.803 555.151)" fill="#fff" font-size="12.797" font-family="Montserrat-Bold, Montserrat" font-weight="700" style="isolation: isolate"><tspan x="0" y="0">70%</tspan></text>
      </g>
    </g>
    <g id="Group_4128" data-name="Group 4128">
      <path id="Path_11930-2" data-name="Path 11930-2" d="M-95.853,555.7h10.93a43.023,43.023,0,0,0-17.757-34.869l-6.432,8.854A32.1,32.1,0,0,1-95.853,555.7Z" fill="#e7e6e5"/>
      <path id="Path_11931-2" data-name="Path 11931-2" d="M-160.163,555.7V555.7H-171.1v.006Z" fill="#e7e6e5"/>
    </g>
  </g>
</svg>
