<svg xmlns="http://www.w3.org/2000/svg" width="86.183" height="45.537" viewBox="0 0 86.183 45.537">
  <g id="Group_4464" data-name="Group 4464" transform="translate(6930.465 1915.987)">
    <path id="Path_11879" data-name="Path 11879" d="M-680.668,394.694a32.027,32.027,0,0,1,20.233,7.169l6.886-8.5a40.775,40.775,0,0,0-27.12-9.6,43.094,43.094,0,0,0-43.094,43.086h10.94a32.155,32.155,0,0,1,32.155-32.155Z" transform="translate(-6206.702 -2299.742)" fill="#34913c"/>
    <g id="Group_4060" data-name="Group 4060" transform="translate(-6206.702 -2299.742)">
      <g id="Group_4448" data-name="Group 4448" style="isolation: isolate">
        <text id="_71_" data-name="71%" transform="translate(-692.819 426.291)" fill="#fff" font-size="12.797" font-family="Montserrat-Bold, Montserrat" font-weight="700" style="isolation: isolate"><tspan x="0" y="0">71%</tspan></text>
      </g>
    </g>
    <path id="Path_11942" data-name="Path 11942" d="M-648.514,426.786h10.934a43,43,0,0,0-15.969-33.425l-6.887,8.5A32.087,32.087,0,0,1-648.514,426.786Z" transform="translate(-6206.702 -2299.742)" fill="#e7e6e5"/>
  </g>
</svg>
