<svg xmlns="http://www.w3.org/2000/svg" width="86.183" height="45.537" viewBox="0 0 86.183 45.537">
  <g id="Group_4465" data-name="Group 4465" transform="translate(6752.881 1915.987)">
    <path id="Path_12022" data-name="Path 12022" d="M-503.084,394.694a32.027,32.027,0,0,1,20.233,7.169l6.886-8.5a40.775,40.775,0,0,0-27.12-9.6,43.094,43.094,0,0,0-43.094,43.086h10.94a32.155,32.155,0,0,1,32.155-32.155Z" transform="translate(-6206.702 -2299.742)" fill="#34913c"/>
    <g id="Group_4123" data-name="Group 4123" transform="translate(-6206.702 -2299.742)">
      <g id="Group_4449" data-name="Group 4449" style="isolation: isolate">
        <text id="_72_" data-name="72%" transform="translate(-516.501 426.291)" fill="#fff" font-size="12.797" font-family="Montserrat-Bold, Montserrat" font-weight="700" style="isolation: isolate"><tspan x="0" y="0">72%</tspan></text>
      </g>
    </g>
    <path id="Path_12027" data-name="Path 12027" d="M-470.93,426.786H-460a43,43,0,0,0-15.969-33.425l-6.887,8.5A32.087,32.087,0,0,1-470.93,426.786Z" transform="translate(-6206.702 -2299.742)" fill="#e7e6e5"/>
  </g>
</svg>
