<svg xmlns="http://www.w3.org/2000/svg" width="86.178" height="45.531" viewBox="0 0 86.178 45.531">
  <g id="Group_4463" data-name="Group 4463" transform="translate(6930.465 2043.471)">
    <path id="Path_11884" data-name="Path 11884" d="M-680.668,267.215a32.039,32.039,0,0,1,21.925,8.644l7.465-8.005a41.29,41.29,0,0,0-29.39-11.577,43.093,43.093,0,0,0-43.095,43.091v0h10.94A32.155,32.155,0,0,1-680.668,267.215Z" transform="translate(-6206.702 -2299.742)" fill="#34913c"/>
    <g id="Group_4061" data-name="Group 4061" transform="translate(-6206.702 -2299.742)">
      <g id="Group_4450" data-name="Group 4450" style="isolation: isolate">
        <text id="_73_" data-name="73%" transform="translate(-693.925 298.802)" fill="#fff" font-size="12.797" font-family="Montserrat-Bold, Montserrat" font-weight="700" style="isolation: isolate"><tspan x="0" y="0">73%</tspan></text>
      </g>
    </g>
    <path id="Path_11947" data-name="Path 11947" d="M-648.515,299.259h10.93a42.965,42.965,0,0,0-13.693-31.4l-7.465,8.005A32.063,32.063,0,0,1-648.515,299.259Z" transform="translate(-6206.702 -2299.742)" fill="#e7e6e5"/>
  </g>
</svg>
