<svg xmlns="http://www.w3.org/2000/svg" width="86.178" height="45.531" viewBox="0 0 86.178 45.531">
  <g id="Group_4462" data-name="Group 4462" transform="translate(6752.881 2043.471)">
    <path id="Path_12023" data-name="Path 12023" d="M-503.084,267.215a32.039,32.039,0,0,1,21.925,8.644l7.465-8.005a41.29,41.29,0,0,0-29.39-11.577,43.093,43.093,0,0,0-43.1,43.091v0h10.94A32.155,32.155,0,0,1-503.084,267.215Z" transform="translate(-6206.702 -2299.742)" fill="#34913c"/>
    <g id="Group_4124" data-name="Group 4124" transform="translate(-6206.702 -2299.742)">
      <g id="Group_4451" data-name="Group 4451" style="isolation: isolate">
        <text id="_74_" data-name="74%" transform="translate(-516.463 298.802)" fill="#fff" font-size="12.797" font-family="Montserrat-Bold, Montserrat" font-weight="700" style="isolation: isolate"><tspan x="0" y="0">74%</tspan></text>
      </g>
    </g>
    <path id="Path_12028" data-name="Path 12028" d="M-470.931,299.259H-460a42.965,42.965,0,0,0-13.693-31.4l-7.465,8.005A32.063,32.063,0,0,1-470.931,299.259Z" transform="translate(-6206.702 -2299.742)" fill="#e7e6e5"/>
  </g>
</svg>
