<svg xmlns="http://www.w3.org/2000/svg" width="86.177" height="45.524" viewBox="0 0 86.177 45.524">
  <g id="Group_4460" data-name="Group 4460" transform="translate(6930.465 2170.95)">
    <path id="Path_11889" data-name="Path 11889" d="M-680.668,139.737a32.057,32.057,0,0,1,23.125,9.824l7.874-7.6a40.9,40.9,0,0,0-31-13.158,43.094,43.094,0,0,0-43.094,43.089h10.94A32.155,32.155,0,0,1-680.668,139.737Z" transform="translate(-6206.702 -2299.742)" fill="#34913c"/>
    <g id="Group_4062" data-name="Group 4062" transform="translate(-6206.702 -2299.742)">
      <g id="Group_4446" data-name="Group 4446" style="isolation: isolate">
        <text id="_75_" data-name="75%" transform="translate(-693.88 171.316)" fill="#fff" font-size="12.797" font-family="Montserrat-Bold, Montserrat" font-weight="700" style="isolation: isolate"><tspan x="0" y="0">75%</tspan></text>
      </g>
    </g>
    <path id="Path_11937" data-name="Path 11937" d="M-637.586,171.834a42.93,42.93,0,0,0-12.083-29.877l-7.874,7.6a32.038,32.038,0,0,1,9.029,22.273Z" transform="translate(-6206.702 -2299.742)" fill="#e7e6e5"/>
  </g>
</svg>
