<svg xmlns="http://www.w3.org/2000/svg" width="86.177" height="45.524" viewBox="0 0 86.177 45.524">
  <g id="Group_4461" data-name="Group 4461" transform="translate(6752.881 2170.95)">
    <path id="Path_12024" data-name="Path 12024" d="M-503.084,139.737a32.057,32.057,0,0,1,23.125,9.824l7.874-7.6a40.9,40.9,0,0,0-31-13.158,43.094,43.094,0,0,0-43.094,43.089h10.94A32.155,32.155,0,0,1-503.084,139.737Z" transform="translate(-6206.702 -2299.742)" fill="#34913c"/>
    <g id="Group_4125" data-name="Group 4125" transform="translate(-6206.702 -2299.742)">
      <g id="Group_4447" data-name="Group 4447" style="isolation: isolate">
        <text id="_76_" data-name="76%" transform="translate(-516.481 171.316)" fill="#fff" font-size="12.797" font-family="Montserrat-Bold, Montserrat" font-weight="700" style="isolation: isolate"><tspan x="0" y="0">76%</tspan></text>
      </g>
    </g>
    <path id="Path_12019" data-name="Path 12019" d="M-460,171.834a42.935,42.935,0,0,0-12.083-29.877l-7.874,7.6a32.038,32.038,0,0,1,9.029,22.273Z" transform="translate(-6206.702 -2299.742)" fill="#e7e6e5"/>
  </g>
</svg>
