<svg xmlns="http://www.w3.org/2000/svg" width="86.181" height="45.524" viewBox="0 0 86.181 45.524">
  <g id="Group_4459" data-name="Group 4459" transform="translate(6930.465 2298.431)">
    <path id="Path_11894" data-name="Path 11894" d="M-680.668,12.258a32.086,32.086,0,0,1,24.629,11.489l8.382-7.034A41.371,41.371,0,0,0-680.668,1.319a43.1,43.1,0,0,0-43.095,43.093h10.94A32.155,32.155,0,0,1-680.668,12.258Z" transform="translate(-6206.702 -2299.742)" fill="#34913c"/>
    <g id="Group_4063" data-name="Group 4063" transform="translate(-6206.702 -2299.742)">
      <g id="Group_4452" data-name="Group 4452" style="isolation: isolate">
        <text id="_77_" data-name="77%" transform="translate(-694.252 43.835)" fill="#fff" font-size="12.797" font-family="Montserrat-Bold, Montserrat" font-weight="700" style="isolation: isolate"><tspan x="0" y="0">77%</tspan></text>
      </g>
    </g>
    <g id="Group_4085" data-name="Group 4085" transform="translate(-6206.702 -2299.742)">
      <path id="Path_11954" data-name="Path 11954" d="M-648.514,44.453h10.932a42.9,42.9,0,0,0-10.075-27.74l-8.383,7.034a32.019,32.019,0,0,1,7.527,20.667Z" fill="#e7e6e5"/>
      <path id="Path_11955" data-name="Path 11955" d="M-712.822,44.453v-.039h-10.941v.04Z" fill="#e7e6e5"/>
    </g>
  </g>
</svg>
