<svg xmlns="http://www.w3.org/2000/svg" width="86.181" height="45.524" viewBox="0 0 86.181 45.524">
  <g id="Group_4458" data-name="Group 4458" transform="translate(6752.881 2298.431)">
    <path id="Path_12025" data-name="Path 12025" d="M-503.084,12.258a32.086,32.086,0,0,1,24.629,11.489l8.382-7.034A41.371,41.371,0,0,0-503.084,1.319a43.1,43.1,0,0,0-43.1,43.093h10.94A32.155,32.155,0,0,1-503.084,12.258Z" transform="translate(-6206.702 -2299.742)" fill="#34913c"/>
    <g id="Group_4126" data-name="Group 4126" transform="translate(-6206.702 -2299.742)">
      <g id="Group_4453" data-name="Group 4453" style="isolation: isolate">
        <text id="_78_" data-name="78%" transform="translate(-516.713 43.835)" fill="#fff" font-size="12.797" font-family="Montserrat-Bold, Montserrat" font-weight="700" style="isolation: isolate"><tspan x="0" y="0">78%</tspan></text>
      </g>
    </g>
    <g id="Group_4121" data-name="Group 4121" transform="translate(-6206.702 -2299.742)">
      <path id="Path_11954-2" data-name="Path 11954-2" d="M-470.93,44.453H-460a42.9,42.9,0,0,0-10.075-27.74l-8.383,7.034a32.019,32.019,0,0,1,7.527,20.667Z" fill="#e7e6e5"/>
      <path id="Path_11955-2" data-name="Path 11955-2" d="M-535.238,44.453v-.039h-10.941v.04Z" fill="#e7e6e5"/>
    </g>
  </g>
</svg>
