<svg xmlns="http://www.w3.org/2000/svg" width="86.18" height="45.527" viewBox="0 0 86.18 45.527">
  <g id="Group_4456" data-name="Group 4456" transform="translate(6930.465 2425.909)">
    <path id="Path_11899" data-name="Path 11899" d="M-680.668-115.222a32.107,32.107,0,0,1,26.005,13.256l8.853-6.432a41.789,41.789,0,0,0-34.863-17.764,43.1,43.1,0,0,0-43.09,43.094h10.94A32.156,32.156,0,0,1-680.668-115.222Z" transform="translate(-6206.702 -2299.742)" fill="#34913c"/>
    <g id="Group_4064" data-name="Group 4064" transform="translate(-6206.702 -2299.742)">
      <g id="Group_4454" data-name="Group 4454" style="isolation: isolate">
        <text id="_79_" data-name="79%" transform="translate(-694.322 -83.641)" fill="#fff" font-size="12.797" font-family="Montserrat-Bold, Montserrat" font-weight="700" style="isolation: isolate"><tspan x="0" y="0">79%</tspan></text>
      </g>
    </g>
    <path id="Path_11961" data-name="Path 11961" d="M-637.583-83.072a42.884,42.884,0,0,0-8.223-25.326l-8.857,6.432a32,32,0,0,1,6.146,18.894Z" transform="translate(-6206.702 -2299.742)" fill="#e7e6e5"/>
  </g>
</svg>
