<svg xmlns="http://www.w3.org/2000/svg" width="86.18" height="45.527" viewBox="0 0 86.18 45.527">
  <g id="Group_4457" data-name="Group 4457" transform="translate(6752.881 2425.909)">
    <path id="Path_12026" data-name="Path 12026" d="M-503.084-115.222a32.107,32.107,0,0,1,26.005,13.256l8.853-6.432a41.789,41.789,0,0,0-34.863-17.764,43.094,43.094,0,0,0-43.09,43.094h10.94A32.156,32.156,0,0,1-503.084-115.222Z" transform="translate(-6206.702 -2299.742)" fill="#34913c"/>
    <g id="Group_4127" data-name="Group 4127" transform="translate(-6206.702 -2299.742)">
      <g id="Group_4455" data-name="Group 4455" style="isolation: isolate">
        <text id="_80_" data-name="80%" transform="translate(-517.263 -83.641)" fill="#fff" font-size="12.797" font-family="Montserrat-Bold, Montserrat" font-weight="700" style="isolation: isolate"><tspan x="0" y="0">80%</tspan></text>
      </g>
    </g>
    <path id="Path_12020" data-name="Path 12020" d="M-460-83.072a42.884,42.884,0,0,0-8.223-25.326l-8.857,6.432a32,32,0,0,1,6.146,18.894Z" transform="translate(-6206.702 -2299.742)" fill="#e7e6e5"/>
  </g>
</svg>
