<svg xmlns="http://www.w3.org/2000/svg" width="86.181" height="45.304" viewBox="0 0 86.181 45.304">
  <g id="Group_4473" data-name="Group 4473" transform="translate(6561.793 1278.56)">
    <path id="Path_11855" data-name="Path 11855" d="M-311.995,1032.123a32.122,32.122,0,0,1,26.962,14.642l9.177-5.96c-8.3-12.775-20.909-19.623-36.141-19.623a43.093,43.093,0,0,0-43.094,43.092h10.941A32.155,32.155,0,0,1-311.995,1032.123Z" transform="translate(-6206.702 -2299.742)" fill="#34913c"/>
    <g id="Group_4065" data-name="Group 4065" transform="translate(-6206.702 -2299.742)">
      <g id="Group_4439" data-name="Group 4439" style="isolation: isolate">
        <text id="_81_" data-name="81%" transform="translate(-324.338 1063.486)" fill="#fff" font-size="12.797" font-family="Montserrat-Bold, Montserrat" font-weight="700" style="isolation: isolate"><tspan x="0" y="0">81%</tspan></text>
      </g>
    </g>
    <path id="Path_11905" data-name="Path 11905" d="M-268.91,1064.2a42.9,42.9,0,0,0-6.946-23.392l-9.177,5.959a32,32,0,0,1,5.19,17.433Z" transform="translate(-6206.702 -2299.742)" fill="#e7e6e5"/>
  </g>
</svg>
