<svg xmlns="http://www.w3.org/2000/svg" width="86.181" height="45.304" viewBox="0 0 86.181 45.304">
  <g id="Group_4472" data-name="Group 4472" transform="translate(6370.704 1278.56)">
    <path id="Path_12048" data-name="Path 12048" d="M-120.906,1032.123a32.121,32.121,0,0,1,26.962,14.642l9.177-5.96c-8.3-12.775-20.909-19.623-36.141-19.623A43.094,43.094,0,0,0-164,1064.274h10.941A32.156,32.156,0,0,1-120.906,1032.123Z" transform="translate(-6206.702 -2299.742)" fill="#34913c"/>
    <g id="Group_4148" data-name="Group 4148" transform="translate(-6206.702 -2299.742)">
      <g id="Group_4440" data-name="Group 4440" style="isolation: isolate">
        <text id="_82_" data-name="82%" transform="translate(-134.579 1063.486)" fill="#fff" font-size="12.797" font-family="Montserrat-Bold, Montserrat" font-weight="700" style="isolation: isolate"><tspan x="0" y="0">82%</tspan></text>
      </g>
    </g>
    <path id="Path_12049" data-name="Path 12049" d="M-77.821,1064.2a42.882,42.882,0,0,0-6.946-23.392l-9.177,5.959a31.988,31.988,0,0,1,5.19,17.433Z" transform="translate(-6206.702 -2299.742)" fill="#e7e6e5"/>
  </g>
</svg>
