<svg xmlns="http://www.w3.org/2000/svg" width="86.188" height="45.536" viewBox="0 0 86.188 45.536">
  <g id="Group_4470" data-name="Group 4470" transform="translate(6561.795 1406.046)">
    <path id="Path_11860" data-name="Path 11860" d="M-311.995,904.641A32.146,32.146,0,0,1-283.874,921.2l9.566-5.3A41.909,41.909,0,0,0-312,893.7a43.093,43.093,0,0,0-43.094,43.092h10.943A32.154,32.154,0,0,1-312,904.641Z" transform="translate(-6206.702 -2299.742)" fill="#34913c"/>
    <g id="Group_4066" data-name="Group 4066" transform="translate(-6206.702 -2299.742)">
      <g id="Group_4441" data-name="Group 4441" style="isolation: isolate">
        <text id="_83_" data-name="83%" transform="translate(-325.553 936.232)" fill="#fff" font-size="12.797" font-family="Montserrat-Bold, Montserrat" font-weight="700" style="isolation: isolate"><tspan x="0" y="0">83%</tspan></text>
      </g>
    </g>
    <g id="Group_4075" data-name="Group 4075" transform="translate(-6206.702 -2299.742)">
      <path id="Path_11906" data-name="Path 11906" d="M-279.84,936.8H-268.9a42.9,42.9,0,0,0-5.4-20.9l-9.566,5.3a32,32,0,0,1,4.034,15.594Z" fill="#e7e6e5"/>
      <path id="Path_11907" data-name="Path 11907" d="M-344.15,936.8v-.008h-10.943v.008Z" fill="#e7e6e5"/>
    </g>
  </g>
</svg>
