<svg xmlns="http://www.w3.org/2000/svg" width="86.188" height="45.536" viewBox="0 0 86.188 45.536">
  <g id="Group_4471" data-name="Group 4471" transform="translate(6370.706 1406.046)">
    <g id="Group_4468" data-name="Group 4468">
      <path id="Path_12047" data-name="Path 12047" d="M-120.906,904.641A32.145,32.145,0,0,1-92.785,921.2l9.566-5.3a41.907,41.907,0,0,0-37.691-22.2A43.094,43.094,0,0,0-164,936.794h10.943a32.154,32.154,0,0,1,32.154-32.154Z" transform="translate(-6206.702 -2299.742)" fill="#34913c"/>
      <g id="Group_4146" data-name="Group 4146" transform="translate(-6206.702 -2299.742)">
        <g id="Group_4442" data-name="Group 4442" style="isolation: isolate">
          <text id="_84_" data-name="84%" transform="translate(-134.957 936.232)" fill="#fff" font-size="12.797" font-family="Montserrat-Bold, Montserrat" font-weight="700" style="isolation: isolate"><tspan x="0" y="0">84%</tspan></text>
        </g>
      </g>
      <g id="Group_4147" data-name="Group 4147" transform="translate(-6206.702 -2299.742)">
        <path id="Path_11906-2" data-name="Path 11906-2" d="M-88.751,936.8h10.935a42.877,42.877,0,0,0-5.4-20.9l-9.566,5.3a32,32,0,0,1,4.034,15.594Z" fill="#e7e6e5"/>
        <path id="Path_11907-2" data-name="Path 11907-2" d="M-153.061,936.8v-.008H-164v.008Z" fill="#e7e6e5"/>
      </g>
    </g>
  </g>
</svg>
