<svg xmlns="http://www.w3.org/2000/svg" width="86.194" height="45.539" viewBox="0 0 86.194 45.539">
  <g id="Group_4469" data-name="Group 4469" transform="translate(6561.797 1533.526)">
    <path id="Path_11865" data-name="Path 11865" d="M-311.995,777.157a32.152,32.152,0,0,1,28.9,18.052l9.827-4.793c-7.512-15.4-21.6-24.2-38.733-24.2A43.094,43.094,0,0,0-355.1,809.308h10.944A32.156,32.156,0,0,1-311.995,777.157Z" transform="translate(-6206.702 -2299.742)" fill="#34913c"/>
    <g id="Group_4067" data-name="Group 4067" transform="translate(-6206.702 -2299.742)">
      <g id="Group_4443" data-name="Group 4443" style="isolation: isolate">
        <text id="_85_" data-name="85%" transform="translate(-325.565 808.755)" fill="#fff" font-size="12.797" font-family="Montserrat-Bold, Montserrat" font-weight="700" style="isolation: isolate"><tspan x="0" y="0">85%</tspan></text>
      </g>
    </g>
    <path id="Path_11918" data-name="Path 11918" d="M-268.9,809.286a42.932,42.932,0,0,0-4.366-18.87l-9.827,4.793a32.039,32.039,0,0,1,3.254,14.081Z" transform="translate(-6206.702 -2299.742)" fill="#e7e6e5"/>
  </g>
</svg>
