<svg xmlns="http://www.w3.org/2000/svg" width="86.194" height="45.539" viewBox="0 0 86.194 45.539">
  <g id="Group_4467" data-name="Group 4467" transform="translate(6370.708 1533.526)">
    <path id="Path_12043" data-name="Path 12043" d="M-120.906,777.157a32.151,32.151,0,0,1,28.9,18.052l9.827-4.793c-7.512-15.4-21.6-24.2-38.733-24.2a43.094,43.094,0,0,0-43.094,43.092h10.944A32.157,32.157,0,0,1-120.906,777.157Z" transform="translate(-6206.702 -2299.742)" fill="#34913c"/>
    <g id="Group_4145" data-name="Group 4145" transform="translate(-6206.702 -2299.742)">
      <g id="Group_4444" data-name="Group 4444" style="isolation: isolate">
        <text id="_86_" data-name="86%" transform="translate(-134.681 808.755)" fill="#fff" font-size="12.797" font-family="Montserrat-Bold, Montserrat" font-weight="700" style="isolation: isolate"><tspan x="0" y="0">86%</tspan></text>
      </g>
    </g>
    <path id="Path_12046" data-name="Path 12046" d="M-77.812,809.286a42.918,42.918,0,0,0-4.366-18.87L-92,795.209a32.011,32.011,0,0,1,3.254,14.081Z" transform="translate(-6206.702 -2299.742)" fill="#e7e6e5"/>
  </g>
</svg>
