<svg xmlns="http://www.w3.org/2000/svg" width="86.187" height="45.549" viewBox="0 0 86.187 45.549">
  <g id="Group_4466" data-name="Group 4466" transform="translate(6561.796 1661.021)">
    <path id="Path_11870" data-name="Path 11870" d="M-311.995,649.671a32.16,32.16,0,0,1,29.811,20.1l10.139-4.1c-6.776-16.77-21.868-26.95-39.956-26.95a43.093,43.093,0,0,0-43.093,43.093h10.944A32.155,32.155,0,0,1-311.995,649.671Z" transform="translate(-6206.702 -2299.742)" fill="#34913c"/>
    <g id="Group_4068" data-name="Group 4068" transform="translate(-6206.702 -2299.742)">
      <g id="Group_4445" data-name="Group 4445" style="isolation: isolate">
        <text id="_87_" data-name="87%" transform="translate(-325.835 681.27)" fill="#fff" font-size="12.797" font-family="Montserrat-Bold, Montserrat" font-weight="700" style="isolation: isolate"><tspan x="0" y="0">87%</tspan></text>
      </g>
    </g>
    <g id="Group_4080" data-name="Group 4080" transform="translate(-6206.702 -2299.742)">
      <path id="Path_11925" data-name="Path 11925" d="M-279.84,681.834h10.933a42.955,42.955,0,0,0-3.138-16.157l-10.139,4.1a32.038,32.038,0,0,1,2.344,12.052Z" fill="#e7e6e5"/>
      <path id="Path_11926" data-name="Path 11926" d="M-344.15,681.834v-.013h-10.944v.013Z" fill="#e7e6e5"/>
    </g>
  </g>
</svg>
