<svg xmlns="http://www.w3.org/2000/svg" width="86.187" height="45.548" viewBox="0 0 86.187 45.548">
  <g id="Group_4236" data-name="Group 4236" transform="translate(352.489 -828.299)">
    <path id="Path_12044" data-name="Path 12044" d="M-309.39,839.249a32.155,32.155,0,0,1,29.811,20.1l10.139-4.1c-6.776-16.77-21.868-26.95-39.956-26.95a43.093,43.093,0,0,0-43.093,43.092v0h10.944A32.154,32.154,0,0,1-309.39,839.249Z" fill="#009eca"/>
    <g id="Group_4141" data-name="Group 4141">
      <g id="Group_4474" data-name="Group 4474" style="isolation: isolate">
        <text id="_88_" data-name="88%" transform="translate(-323.383 870.848)" fill="#fff" font-size="12.797" font-family="Montserrat-Bold, Montserrat" font-weight="700" style="isolation: isolate"><tspan x="0" y="0">88%</tspan></text>
      </g>
    </g>
    <g id="Group_4143" data-name="Group 4143">
      <path id="Path_11925" data-name="Path 11925" d="M-277.235,871.411H-266.3a42.93,42.93,0,0,0-3.138-16.156l-10.139,4.1a32.042,32.042,0,0,1,2.344,12.052Z" fill="#e7e6e5"/>
    </g>
  </g>
</svg>
