<svg xmlns="http://www.w3.org/2000/svg" width="86.187" height="45.542" viewBox="0 0 86.187 45.542">
  <g id="Group_4237" data-name="Group 4237" transform="translate(543.576 -700.816)">
    <path id="Path_11875" data-name="Path 11875" d="M-500.479,711.763A32.164,32.164,0,0,1-469.9,733.975l10.4-3.379a42.418,42.418,0,0,0-40.985-29.777,43.093,43.093,0,0,0-43.093,43.093h10.944A32.156,32.156,0,0,1-500.479,711.763Z" fill="#009eca"/>
    <g id="Group_4069" data-name="Group 4069">
      <g id="Group_4475" data-name="Group 4475" style="isolation: isolate">
        <text id="_89_" data-name="89%" transform="translate(-514.389 743.359)" fill="#fff" font-size="12.797" font-family="Montserrat-Bold, Montserrat" font-weight="700" style="isolation: isolate"><tspan x="0" y="0">89%</tspan></text>
      </g>
    </g>
    <g id="Group_4082" data-name="Group 4082">
      <path id="Path_11932" data-name="Path 11932" d="M-457.389,743.911a43.052,43.052,0,0,0-2.111-13.317l-10.4,3.38a32.091,32.091,0,0,1,1.574,9.937Z" fill="#e7e6e5"/>
      <path id="Path_11933" data-name="Path 11933" d="M-532.634,743.911" fill="#e7e6e5"/>
    </g>
  </g>
</svg>
