<svg xmlns="http://www.w3.org/2000/svg" width="86.187" height="45.542" viewBox="0 0 86.187 45.542">
  <g id="Group_4238" data-name="Group 4238" transform="translate(352.487 -700.816)">
    <path id="Path_12045" data-name="Path 12045" d="M-309.39,711.763a32.164,32.164,0,0,1,30.581,22.212l10.4-3.379a42.418,42.418,0,0,0-40.985-29.777,43.094,43.094,0,0,0-43.093,43.093h10.944A32.156,32.156,0,0,1-309.39,711.763Z" fill="#009eca"/>
    <g id="Group_4142" data-name="Group 4142">
      <g id="Group_4476" data-name="Group 4476" style="isolation: isolate">
        <text id="_90_" data-name="90%" transform="translate(-323.422 743.359)" fill="#fff" font-size="12.797" font-family="Montserrat-Bold, Montserrat" font-weight="700" style="isolation: isolate"><tspan x="0" y="0">90%</tspan></text>
      </g>
    </g>
    <g id="Group_4144" data-name="Group 4144">
      <path id="Path_11932-2" data-name="Path 11932-2" d="M-266.3,743.911a43.022,43.022,0,0,0-2.111-13.317l-10.4,3.38a32.09,32.09,0,0,1,1.574,9.937Z" fill="#e7e6e5"/>
      <path id="Path_11933-2" data-name="Path 11933-2" d="M-341.545,743.911" fill="#e7e6e5"/>
    </g>
  </g>
</svg>
