<svg xmlns="http://www.w3.org/2000/svg" width="86.181" height="45.533" viewBox="0 0 86.181 45.533">
  <g id="Group_4250" data-name="Group 4250" transform="translate(543.575 -318.361)">
    <g id="Group_4243" data-name="Group 4243">
      <path id="Path_11890" data-name="Path 11890" d="M-500.479,329.308a32.158,32.158,0,0,1,31.838,27.679l10.834-1.522a42.485,42.485,0,0,0-42.675-37.1,43.093,43.093,0,0,0-43.093,43.093v.006h10.941a32.155,32.155,0,0,1,32.155-32.155Z" fill="#009eca"/>
      <g id="Group_4072" data-name="Group 4072">
        <g id="Group_4477" data-name="Group 4477" style="isolation: isolate">
          <text id="_95_" data-name="95%" transform="translate(-513.908 360.893)" fill="#fff" font-size="12.797" font-family="Montserrat-Bold, Montserrat" font-weight="700" style="isolation: isolate"><tspan x="0" y="0">95%</tspan></text>
        </g>
      </g>
      <path id="Path_11938" data-name="Path 11938" d="M-457.394,361.411a43.317,43.317,0,0,0-.413-5.946l-10.834,1.522a32.267,32.267,0,0,1,.315,4.424Z" fill="#e7e6e5"/>
    </g>
  </g>
</svg>
