<svg xmlns="http://www.w3.org/2000/svg" width="86.181" height="45.533" viewBox="0 0 86.181 45.533">
  <g id="Group_4249" data-name="Group 4249" transform="translate(352.486 -318.361)">
    <g id="Group_4244" data-name="Group 4244">
      <path id="Path_12037" data-name="Path 12037" d="M-309.39,329.308a32.157,32.157,0,0,1,31.838,27.679l10.834-1.522a42.485,42.485,0,0,0-42.675-37.1,43.094,43.094,0,0,0-43.093,43.093v.006h10.941a32.156,32.156,0,0,1,32.155-32.155Z" fill="#009eca"/>
      <g id="Group_4138" data-name="Group 4138">
        <g id="Group_4478" data-name="Group 4478" style="isolation: isolate">
          <text id="_96_" data-name="96%" transform="translate(-323.024 360.893)" fill="#fff" font-size="12.797" font-family="Montserrat-Bold, Montserrat" font-weight="700" style="isolation: isolate"><tspan x="0" y="0">96%</tspan></text>
        </g>
      </g>
      <path id="Path_12038" data-name="Path 12038" d="M-266.3,361.411a43.327,43.327,0,0,0-.413-5.946l-10.834,1.522a32.1,32.1,0,0,1,.315,4.424Z" fill="#e7e6e5"/>
    </g>
  </g>
</svg>
