<svg xmlns="http://www.w3.org/2000/svg" width="87.036" height="88.511" viewBox="0 0 87.036 88.511"><g transform="translate(-4)"><g transform="translate(4)"><g transform="translate(0)"><path d="M70.384,0H11.376A7.385,7.385,0,0,0,4,7.376V54.582a7.376,7.376,0,0,0,5.533,7.143l.738-2.856A4.426,4.426,0,0,1,6.95,54.582V7.376A4.426,4.426,0,0,1,11.376,2.95H70.384a4.426,4.426,0,0,1,4.426,4.426V8.851h2.95V7.376A7.385,7.385,0,0,0,70.384,0Z" transform="translate(-4)" fill="#aeca2c"/></g></g><g transform="translate(10.219 6.219)"><g transform="translate(0 0)"><rect width="2.665" height="2.665" transform="translate(0)" fill="#aeca2c"/></g></g><g transform="translate(15.549 6.219)"><g transform="translate(0 0)"><rect width="3.554" height="2.665" fill="#aeca2c"/></g></g><g transform="translate(21.768 6.219)"><g transform="translate(0 0)"><rect width="2.665" height="2.665" fill="#aeca2c"/></g></g><g transform="translate(18.752 23.603)"><path d="M155.852,185.965,141.86,171.973a20.4,20.4,0,0,0,1.753-4.142h2.346v-2.95h-1.711a19.877,19.877,0,0,0-1.239-10.571V139.8h-2.95V149.2a20.763,20.763,0,0,0-2.95-3.063V133.9h-2.95v10.17a20.517,20.517,0,0,0-2.95-1.409V128h-2.95v13.767a20.427,20.427,0,0,0-2.95-.415v-10.4h-2.95v10.4a20.427,20.427,0,0,0-2.95.415v-4.915h-2.95v5.811a20.525,20.525,0,0,0-2.95,1.409v-8.695h-2.95v10.757a20.763,20.763,0,0,0-2.95,3.063V138.326h-2.95v15.982a19.877,19.877,0,0,0-1.239,10.571H84v2.95h20.048a20.61,20.61,0,0,0,31.634,10.987l13.659,13.659a1.475,1.475,0,0,0,2.086,0l4.426-4.426A1.475,1.475,0,0,0,155.852,185.965Zm-32.022-6.333a17.7,17.7,0,1,1,17.7-17.7A17.721,17.721,0,0,1,123.83,179.632Zm26.553,9.716-12.409-12.409a20.9,20.9,0,0,0,2.22-2.459l12.529,12.529Z" transform="translate(-84 -128)" fill="#aeca2c"/></g><g transform="translate(43.83 42.781)"><path d="M234.752,232A14.752,14.752,0,1,0,249.5,246.752,14.752,14.752,0,0,0,234.752,232Zm0,26.553a11.8,11.8,0,0,1-10.205-5.9h20.411A11.8,11.8,0,0,1,234.752,258.553ZM223.338,249.7a11.694,11.694,0,0,1,4.038-12.148v9.2h2.95V235.819a11.747,11.747,0,0,1,2.95-.767v11.7h2.95v-11.7a11.747,11.747,0,0,1,2.95.767v10.933h2.95v-9.2a11.694,11.694,0,0,1,4.038,12.148Z" transform="translate(-220 -232)" fill="#aeca2c"/></g><g transform="translate(12.851 11.802)"><path d="M118.384,64H59.376A7.385,7.385,0,0,0,52,71.376v47.206a7.385,7.385,0,0,0,7.376,7.376H78.553v-2.95H59.376a4.426,4.426,0,0,1-4.426-4.426V71.376a4.426,4.426,0,0,1,4.426-4.426h59.008a4.426,4.426,0,0,1,4.426,4.426v47.206a4.426,4.426,0,0,1-1.106,2.927l2.213,1.952a7.367,7.367,0,0,0,1.844-4.878V71.376A7.385,7.385,0,0,0,118.384,64Z" transform="translate(-52 -64)" fill="#aeca2c"/></g><g transform="translate(19.103 17.768)"><g transform="translate(0 0)"><rect width="2.665" height="2.665" fill="#aeca2c"/></g></g><g transform="translate(24.433 17.768)"><g transform="translate(0 0)"><rect width="3.554" height="2.665" fill="#aeca2c"/></g></g><g transform="translate(30.652 17.768)"><g transform="translate(0 0)"><rect width="2.665" height="2.665" fill="#aeca2c"/></g></g><g transform="translate(21.768 48.862)"><g transform="translate(0 0)"><rect width="2.665" height="8.884" fill="#aeca2c"/></g></g><g transform="translate(27.987 39.978)"><g transform="translate(0 0)"><rect width="2.665" height="17.768" fill="#aeca2c"/></g></g><g transform="translate(33.317 44.42)"><g transform="translate(0 0)"><rect width="3.554" height="13.326" fill="#aeca2c"/></g></g></g></svg>