<svg xmlns="http://www.w3.org/2000/svg" width="183.714" height="183.164" viewBox="0 0 183.714 183.164"><g transform="translate(-378.521 -472.682)"><text transform="translate(470.521 568.682)" fill="#333" font-size="11" font-family="Montserrat-Bold, Montserrat" font-weight="700"><tspan x="-29.403" y="0">COLETIVO</tspan></text><g transform="translate(378.521 472.682)"><path d="M228.939,90.2l-42.55,13.825A47.06,47.06,0,0,1,175,149.87l31.017,32.091C231.088,157.1,239.4,123.867,228.939,90.2Z" transform="translate(-49.641 -25.588)" fill="#61c5bd"/><path d="M153.988,176.2a46.468,46.468,0,0,1-31.518,12.178,41.38,41.38,0,0,1-6.733-.5L108,231.858a97.014,97.014,0,0,0,15.616,1.289c22.922,0,44.054-8.6,61.389-24.856L153.988,176.2Z" transform="translate(-30.635 -49.984)" fill="#73bf44"/><path d="M56.511,161.2,17.4,182.9a89.9,89.9,0,0,0,62.034,44.269l7.736-43.982A46.882,46.882,0,0,1,56.511,161.2Z" transform="translate(-4.934 -45.729)" fill="#efb42f"/><path d="M45.056,117.205a47.26,47.26,0,0,1,1.862-13.18L4.3,90.2c-7.45,24.212-5.229,47.707,6.733,70.056l39.111-21.7a47.593,47.593,0,0,1-5.086-21.346Z" transform="translate(0.003 -25.588)" fill="#f26552"/><path d="M60.38,69.506,29.291,37.2A83.743,83.743,0,0,0,7.3,72.443L49.921,86.268A45.754,45.754,0,0,1,60.38,69.506Z" transform="translate(-2.069 -10.553)" fill="#ec60a3"/><path d="M84.6,51.647,67.834,10.1A88.091,88.091,0,0,0,40.9,27.578L72.06,59.813A44.521,44.521,0,0,1,84.6,51.647Z" transform="translate(-11.6 -2.865)" fill="#03629a"/><path d="M113.718,44.842V0A87.83,87.83,0,0,0,82.2,6.16L98.962,47.707A45.779,45.779,0,0,1,113.718,44.842Z" transform="translate(-23.316 0)" fill="#128b7c"/><path d="M172.821,75.715l42.55-13.825C202.692,24.713,169.455.573,130.2,0V44.842a46.824,46.824,0,0,1,42.621,30.874Z" transform="translate(-36.932 0)" fill="#4999d4"/><path d="M108.223,30.305c0,2.006-1.648,3.223-3.653,3.223-2.65,0-4.37-1.719-4.37-4.8,0-3.367,2.006-5.229,4.943-5.229a5.465,5.465,0,0,1,2.722.645l-.86,1.648a3.233,3.233,0,0,0-1.791-.5c-1.648,0-2.65.931-2.722,2.794a3.257,3.257,0,0,1,2.436-.86,3.109,3.109,0,0,1,3.3,3.08ZM106,30.377a1.457,1.457,0,0,0-1.648-1.433,1.5,1.5,0,0,0-1.648,1.433c0,.86.645,1.433,1.719,1.433A1.4,1.4,0,0,0,106,30.377Z" transform="translate(-28.422 -6.666)" fill="#fdfeff"/><path d="M112.1,29.334a1.757,1.757,0,0,1,1.719-1.934,1.72,1.72,0,0,1,1.719,1.934,1.72,1.72,0,0,1-1.719,1.934A1.757,1.757,0,0,1,112.1,29.334Zm2.507,0c0-.716-.287-1.074-.716-1.074s-.716.358-.716,1.074.287,1.074.716,1.074S114.607,30.05,114.607,29.334Zm3.367-1.862h1.218l-4.728,6.948h-1.218Zm-1.146,5.158a1.757,1.757,0,0,1,1.719-1.934,1.72,1.72,0,0,1,1.719,1.934,1.72,1.72,0,0,1-1.719,1.934A1.757,1.757,0,0,1,116.828,32.629Zm2.507,0c0-.716-.287-1.074-.716-1.074s-.716.358-.716,1.074.287,1.074.716,1.074S119.335,33.345,119.335,32.629Z" transform="translate(-31.798 -7.773)" fill="#fdfeff"/><path d="M71.523,45.805c0,2.006-1.648,3.223-3.653,3.223-2.65,0-4.37-1.719-4.37-4.8C63.5,40.862,65.506,39,68.443,39a5.465,5.465,0,0,1,2.722.645l-.86,1.648a3.233,3.233,0,0,0-1.791-.5c-1.648,0-2.65.931-2.722,2.794a3.257,3.257,0,0,1,2.435-.86,3.155,3.155,0,0,1,3.3,3.08Zm-2.149.143a1.457,1.457,0,0,0-1.648-1.433,1.5,1.5,0,0,0-1.648,1.433c0,.86.645,1.433,1.719,1.433a1.433,1.433,0,0,0,1.576-1.433Z" transform="translate(-18.011 -11.063)" fill="#fdfeff"/><path d="M75.5,44.934A1.757,1.757,0,0,1,77.219,43a1.948,1.948,0,0,1,0,3.868A1.757,1.757,0,0,1,75.5,44.934Zm2.436,0c0-.716-.287-1.074-.716-1.074s-.716.358-.716,1.074.287,1.074.716,1.074S77.936,45.65,77.936,44.934Zm3.438-1.862h1.218L77.864,50.02H76.646Zm-1.146,5.158A1.757,1.757,0,0,1,81.947,46.3a1.948,1.948,0,0,1,0,3.868A1.8,1.8,0,0,1,80.228,48.229Zm2.436,0c0-.716-.287-1.074-.716-1.074s-.716.358-.716,1.074.287,1.074.716,1.074S82.663,48.945,82.663,48.229Z" transform="translate(-21.415 -12.198)" fill="#fdfeff"/><path d="M42.366,75.392c0,1.862-1.648,3.009-4.083,3.009S34.2,77.254,34.2,75.392A2.5,2.5,0,0,1,35.7,73.1a2.286,2.286,0,0,1-1.146-2.006c0-1.719,1.5-2.794,3.725-2.794s3.8,1.074,3.8,2.794A2.286,2.286,0,0,1,40.933,73.1,2.552,2.552,0,0,1,42.366,75.392Zm-2.292-.072c0-.86-.716-1.361-1.862-1.361s-1.791.5-1.791,1.361.716,1.433,1.791,1.433C39.358,76.753,40.074,76.18,40.074,75.32Zm-3.367-4.155c0,.716.573,1.218,1.5,1.218s1.5-.43,1.5-1.218-.645-1.218-1.5-1.218S36.707,70.449,36.707,71.165Z" transform="translate(-9.699 -19.375)" fill="#fdfeff"/><path d="M46.6,74.234A1.758,1.758,0,0,1,48.319,72.3a1.948,1.948,0,0,1,0,3.868A1.757,1.757,0,0,1,46.6,74.234Zm2.507,0c0-.716-.287-1.074-.716-1.074s-.716.358-.716,1.074.287,1.074.716,1.074S49.107,74.95,49.107,74.234Zm3.367-1.862h1.218L48.964,79.32H47.746Zm-1.146,5.158A1.757,1.757,0,0,1,53.047,75.6a1.948,1.948,0,0,1,0,3.868A1.757,1.757,0,0,1,51.328,77.529Zm2.507,0c0-.716-.287-1.074-.716-1.074s-.716.358-.716,1.074.287,1.074.716,1.074S53.835,78.245,53.835,77.529Z" transform="translate(-13.217 -20.51)" fill="#fdfeff"/><path d="M24.055,130.2v9.742H21.834v-7.951H19.9V130.2Z" transform="translate(-5.643 -36.935)" fill="#fdfeff"/><path d="M35.036,137.005c0,1.648-1.289,3.152-4.011,3.152a6.346,6.346,0,0,1-3.725-1.074l.86-1.719a4.622,4.622,0,0,0,2.794.86c1.146,0,1.791-.43,1.791-1.218,0-.716-.573-1.218-1.791-1.218h-1v-1.5l2.006-2.292H27.8V130.2h6.805v1.433l-2.221,2.507a2.81,2.81,0,0,1,2.65,2.865Z" transform="translate(-7.742 -36.935)" fill="#fdfeff"/><path d="M39.2,135.934A1.757,1.757,0,0,1,40.919,134a1.947,1.947,0,0,1,0,3.868A1.8,1.8,0,0,1,39.2,135.934Zm2.507,0c0-.716-.287-1.074-.716-1.074s-.716.358-.716,1.074.287,1.074.716,1.074S41.707,136.65,41.707,135.934Zm3.367-1.862h1.218l-4.728,6.948H40.346Zm-1.146,5.086a1.757,1.757,0,0,1,1.719-1.934,1.947,1.947,0,1,1-1.719,1.934Zm2.507,0c0-.716-.287-1.075-.716-1.075s-.716.358-.716,1.075.287,1.074.716,1.074C46.077,140.3,46.435,139.945,46.435,139.158Z" transform="translate(-11.118 -38.013)" fill="#fdfeff"/><path d="M61.455,197.1v9.742H59.234v-7.951H57.3V197.1Z" transform="translate(-16.252 -55.913)" fill="#fdfeff"/><path d="M74.326,204.765H72.75v2.077H70.529v-2.077H65.3v-1.5l4.584-6.16h2.364l-4.226,5.874h2.65v-1.791h2.149v1.791H74.4v1.791Z" transform="translate(-18.522 -55.913)" fill="#fdfeff"/><path d="M78.4,202.734a1.757,1.757,0,0,1,1.719-1.934,1.948,1.948,0,1,1-1.719,1.934Zm2.507,0c0-.716-.287-1.074-.716-1.074s-.716.358-.716,1.074.287,1.074.716,1.074C80.621,203.88,80.907,203.522,80.907,202.734Zm3.367-1.791h1.218l-4.728,6.948H79.546Zm-1.146,5.086a1.758,1.758,0,0,1,1.719-1.934,1.948,1.948,0,1,1-1.719,1.934Zm2.507,0c0-.716-.287-1.074-.716-1.074s-.716.358-.716,1.074.287,1.074.716,1.074C85.348,207.175,85.635,206.745,85.635,206.029Z" transform="translate(-22.238 -56.962)" fill="#fdfeff"/><path d="M146.055,212.6v9.742h-2.221v-7.951H141.9V212.6Z" transform="translate(-40.251 -60.31)" fill="#fdfeff"/><path d="M157.208,219.205c0,1.719-1.289,3.223-4.083,3.223a6.346,6.346,0,0,1-3.725-1.074l.86-1.719a4.475,4.475,0,0,0,2.794.86c1.146,0,1.791-.5,1.791-1.289s-.5-1.289-2.292-1.289h-2.507l.5-5.516h5.945v1.791h-4.083l-.143,1.862h.788c3.009.143,4.155,1.433,4.155,3.152Z" transform="translate(-42.379 -60.253)" fill="#fdfeff"/><path d="M161.2,218.234a1.758,1.758,0,0,1,1.719-1.934,1.948,1.948,0,1,1-1.719,1.934Zm2.436,0c0-.716-.287-1.075-.716-1.075s-.716.358-.716,1.075.287,1.074.716,1.074C163.349,219.38,163.635,219.022,163.635,218.234Zm3.438-1.791h1.218l-4.728,6.948h-1.218Zm-1.146,5.086a1.757,1.757,0,0,1,1.719-1.934,1.947,1.947,0,0,1,0,3.868A1.757,1.757,0,0,1,165.928,221.529Zm2.436,0c0-.716-.287-1.074-.716-1.074s-.716.358-.716,1.074.287,1.074.716,1.074S168.363,222.245,168.363,221.529Z" transform="translate(-45.726 -61.359)" fill="#fdfeff"/><path d="M210.955,143.9v9.742h-2.221v-7.951H206.8V143.9Z" transform="translate(-58.662 -40.821)" fill="#fdfeff"/><path d="M223.138,150.692c0,1.862-1.648,3.009-4.155,3.009-2.435,0-4.083-1.146-4.083-3.009a2.5,2.5,0,0,1,1.5-2.292,2.286,2.286,0,0,1-1.146-2.006c0-1.719,1.5-2.794,3.725-2.794s3.8,1.074,3.8,2.794a2.286,2.286,0,0,1-1.146,2.006A2.574,2.574,0,0,1,223.138,150.692Zm-2.292-.072c0-.86-.716-1.361-1.862-1.361s-1.791.5-1.791,1.361.716,1.433,1.791,1.433C220.129,152.053,220.845,151.48,220.845,150.62Zm-3.367-4.083c0,.716.573,1.218,1.5,1.218s1.5-.43,1.5-1.218-.645-1.218-1.5-1.218S217.479,145.749,217.479,146.537Z" transform="translate(-60.96 -40.736)" fill="#fdfeff"/><path d="M227.4,149.534a1.757,1.757,0,0,1,1.719-1.934,1.947,1.947,0,1,1-1.719,1.934Zm2.507,0c0-.716-.287-1.074-.716-1.074s-.716.358-.716,1.074.287,1.074.716,1.074C229.621,150.68,229.907,150.322,229.907,149.534Zm3.367-1.791h1.218l-4.728,6.948h-1.218Zm-1.146,5.086a1.757,1.757,0,0,1,1.719-1.934,1.948,1.948,0,0,1,0,3.868A1.757,1.757,0,0,1,232.128,152.829Zm2.507,0c0-.716-.287-1.074-.716-1.074s-.716.358-.716,1.074.287,1.074.716,1.074S234.635,153.545,234.635,152.829Z" transform="translate(-64.506 -41.871)" fill="#fdfeff"/><path d="M175.38,50.523v1.862H168V50.953l3.725-3.582c.86-.788,1-1.289,1-1.791,0-.788-.5-1.218-1.576-1.218a2.168,2.168,0,0,0-2.006,1L167.5,44.291a4.574,4.574,0,0,1,3.868-1.791c2.149,0,3.653,1.146,3.653,2.865,0,.931-.287,1.791-1.648,3.08l-2.221,2.149h4.226Z" transform="translate(-47.513 -12.056)" fill="#fdfeff"/><path d="M179.8,47.514c0-3.223,1.791-5.014,4.155-5.014,2.435,0,4.155,1.791,4.155,5.014s-1.791,5.014-4.155,5.014C181.519,52.529,179.8,50.738,179.8,47.514Zm6.089,0c0-2.221-.788-3.152-1.934-3.152s-1.862.931-1.862,3.152.788,3.152,1.862,3.152C185.1,50.666,185.889,49.735,185.889,47.514Z" transform="translate(-51.003 -12.056)" fill="#fdfeff"/><path d="M192.6,48.334a1.757,1.757,0,0,1,1.719-1.934,1.948,1.948,0,1,1-1.719,1.934Zm2.435,0c0-.716-.287-1.074-.716-1.074s-.716.358-.716,1.074.287,1.074.716,1.074C194.749,49.48,195.036,49.122,195.036,48.334Zm3.438-1.791h1.218l-4.728,6.948h-1.218Zm-1.146,5.086a1.757,1.757,0,0,1,1.719-1.934,1.948,1.948,0,1,1-1.719,1.934Zm2.436,0c0-.716-.287-1.074-.716-1.074s-.716.358-.716,1.074.287,1.074.716,1.074C199.477,52.775,199.763,52.345,199.763,51.629Z" transform="translate(-54.634 -13.163)" fill="#fdfeff"/></g></g></svg>