<svg xmlns="http://www.w3.org/2000/svg" width="77.141" height="81.893" viewBox="0 0 77.141 81.893"><g transform="translate(-14.853)"><path d="M80.031,14.991a8.013,8.013,0,1,0-3.293-3.532l-8.654,6.554a8,8,0,0,0-8.858-.06L50.741,11.01a8.017,8.017,0,1,0-14.87.334L24.787,23a8.036,8.036,0,1,0,4.175,2.581L39.023,15a7.994,7.994,0,0,0,8.754-.21l8.4,6.871a8.017,8.017,0,1,0,14.908.1ZM83.977,4.8a3.213,3.213,0,1,1-3.213,3.213A3.217,3.217,0,0,1,83.977,4.8ZM22.87,34a3.213,3.213,0,1,1,3.213-3.213A3.217,3.217,0,0,1,22.87,34ZM43.239,11.4a3.213,3.213,0,1,1,3.213-3.213A3.217,3.217,0,0,1,43.239,11.4ZM63.608,27.873a3.213,3.213,0,1,1,3.213-3.213A3.217,3.217,0,0,1,63.608,27.873Z" fill="#f38b43"/><path d="M405,193.634a7.845,7.845,0,0,0-7.836,7.836v43.086h15.672V201.47A7.845,7.845,0,0,0,405,193.634Zm3.032,46.117h-6.064V201.47a3.032,3.032,0,0,1,6.064,0v38.282Z" transform="translate(-321.16 -162.663)" fill="#f38b43"/><path d="M278.52,316.343a7.845,7.845,0,0,0-7.836,7.836v23.459h15.672V324.179A7.845,7.845,0,0,0,278.52,316.343Zm3.032,26.491h-6.064V324.179a3.032,3.032,0,1,1,6.064,0v18.655Z" transform="translate(-214.912 -265.745)" fill="#f38b43"/><path d="M150.386,233.682a7.845,7.845,0,0,0-7.836,7.836V278.2h15.672v-36.68a7.845,7.845,0,0,0-7.836-7.836Zm3.032,39.712h-6.064V241.518a3.032,3.032,0,1,1,6.064,0v31.876Z" transform="translate(-107.272 -196.305)" fill="#f38b43"/><path d="M23.908,361.327a7.845,7.845,0,0,0-7.836,7.836v16.264H31.744V369.163A7.845,7.845,0,0,0,23.908,361.327Zm3.032,19.3H20.876v-11.46a3.032,3.032,0,1,1,6.064,0Z" transform="translate(-1.024 -303.534)" fill="#f38b43"/></g></svg>