<svg xmlns="http://www.w3.org/2000/svg" width="113.01" height="104.882" viewBox="0 0 113.01 104.882"><g transform="translate(-53.495 -31.059)"><g transform="translate(77 31.059)"><path d="M1804.209,1265.294a20.061,20.061,0,0,0-6.311-5.928c-5.274-3.048-11.78-3.482-17.039-.406s-9.1,7.821-9.291,15.281a26.054,26.054,0,0,0,6.176,16.985c10.819,12.049,30.868,9.169,37.771-7.325,4.873-12.311,2.421-27.727-9.732-37.387-1.6-1.28-3.43-2.281-5.116-3.39a29.264,29.264,0,0,1,9.349,4.778c9.128,7.019,13.2,16.332,12.708,27.836-.714,15.952-14,28.924-29.9,30.373-9.6.9-17.274-2.367-23.134-9.917-5.436-7-7.271-15.43-6.243-24.148.618-5.261,2.182-9.723,5.905-13.627,11.463-12.013,28.7-9.727,34.066,4.2C1803.853,1264.1,1804.155,1265.118,1804.209,1265.294Z" transform="translate(-1756.096 -1241.831)" fill="#f58b40"/><path d="M1683.741,1288.773a29,29,0,0,1-8.362-4.26c-9.467-7.032-14.524-16.922-14.1-28.71a32.831,32.831,0,0,1,28.4-31.049c13.848-1.907,23.826,6.171,28.6,16.845a29.428,29.428,0,0,1,.451,24.509c-3.684,7.373-11.218,13.582-20.107,13.46-7.839-.1-15.592-5.72-18.572-13.46a2.817,2.817,0,0,1-.144-.748,18.028,18.028,0,0,0,5.36,5.473c5.716,3.552,11.666,3.917,17.54.64,5.95-3.327,9.732-9.088,9.624-15.912-.108-6.4-2.488-13.974-7.185-18.482-12.315-11.9-32.336-2.584-37.069,11.034a34.142,34.142,0,0,0,9.567,36.3C1679.6,1286.05,1681.789,1287.362,1683.741,1288.773Z" transform="translate(-1661.25 -1224.474)" fill="#f05f40"/></g><path d="M-561.668,1549.146a3.715,3.715,0,0,1-.707.063q-1.415,0-1.416-.924v-13.867a.592.592,0,0,1,.138-.375.592.592,0,0,1,.344-.2h.017a3.994,3.994,0,0,1,.723-.063q1.387,0,1.387.925v13.867a.592.592,0,0,1-.135.374.594.594,0,0,1-.341.2Z" transform="translate(617.286 -1419.805)" fill="#fff"/><path d="M-446.167,1536.674a4.124,4.124,0,0,0-2.717-.837,7.463,7.463,0,0,0-2.285.321,9.361,9.361,0,0,0-1.357.55.635.635,0,0,0-.253.234.634.634,0,0,0-.094.332v11.18a.634.634,0,0,1-.133.389.633.633,0,0,1-.343.226h-.007a2.936,2.936,0,0,1-.707.081q-1.387,0-1.387-1.156v-10.967a2.045,2.045,0,0,1,.274-1.109,2.87,2.87,0,0,1,.949-.853,9.643,9.643,0,0,1,2.219-.933,10.768,10.768,0,0,1,3.12-.418,7.312,7.312,0,0,1,4.614,1.318,4.941,4.941,0,0,1,1.692,4.144v9.269a.633.633,0,0,1-.135.392.631.631,0,0,1-.348.224h-.015a3,3,0,0,1-.693.081q-1.387,0-1.387-1.156v-8.677A3.211,3.211,0,0,0-446.167,1536.674Z" transform="translate(516.884 -1419.749)" fill="#fff"/><path d="M-204.774,1536.66a4.122,4.122,0,0,0-2.717-.837,7.434,7.434,0,0,0-2.283.321,9.262,9.262,0,0,0-1.358.55.635.635,0,0,0-.253.234.636.636,0,0,0-.094.332v11.18a.632.632,0,0,1-.133.389.632.632,0,0,1-.344.226h-.007a2.924,2.924,0,0,1-.707.081q-1.387,0-1.387-1.155v-10.967a2.044,2.044,0,0,1,.274-1.109,2.883,2.883,0,0,1,.949-.853,9.9,9.9,0,0,1,2.227-.934,10.769,10.769,0,0,1,3.12-.418,7.313,7.313,0,0,1,4.614,1.318,4.923,4.923,0,0,1,1.684,4.145v9.269a.633.633,0,0,1-.135.392.631.631,0,0,1-.348.224h-.015a3,3,0,0,1-.693.081q-1.387,0-1.387-1.156V1539.3A3.211,3.211,0,0,0-204.774,1536.66Z" transform="translate(293.179 -1419.735)" fill="#fff"/><path d="M276,1539.552q-.451,1.511-.918,3.055t-.949,2.959q-.482,1.415-.931,2.668t-.837,2.219a2.4,2.4,0,0,1-.578.258,3.121,3.121,0,0,1-.869.1,2.513,2.513,0,0,1-.949-.176,1.026,1.026,0,0,1-.594-.562,20.441,20.441,0,0,1-.916-2.509q-.53-1.7-1.094-3.748t-1.061-4.115q-.5-2.074-.82-3.618a2.661,2.661,0,0,1,.563-.418,1.62,1.62,0,0,1,.82-.193,1.124,1.124,0,0,1,.9.337,2.475,2.475,0,0,1,.451,1.078q.29,1.349.675,3.07t.772,3.36q.387,1.64.723,2.991c.022.084.044.17.068.256a.578.578,0,0,0,1.115.024l.007-.023q.369-1.155.853-2.658t1.061-3.236l1.156-3.467a2.8,2.8,0,0,1,1.387-.321q1.19,0,1.48.835.578,1.673,1.109,3.328t.98,3.071q.451,1.417.773,2.525v.022a.527.527,0,0,0,1.013,0c.4-1.435.856-2.949,1.263-4.472q.869-3.248,1.416-6.432a1.979,1.979,0,0,1,1.093-.289,1.358,1.358,0,0,1,.869.256.977.977,0,0,1,.321.809,8.418,8.418,0,0,1-.209,1.367q-.209,1.013-.563,2.347t-.788,2.862q-.432,1.526-.884,2.959t-.853,2.6a18.207,18.207,0,0,1-.693,1.784,1.635,1.635,0,0,1-.53.241,2.929,2.929,0,0,1-.853.115,3,3,0,0,1-1.012-.144.829.829,0,0,1-.532-.462q-.354-.868-.756-2.058t-.852-2.59q-.451-1.4-.916-2.942T276,1539.552Z" transform="translate(-151.229 -1421.372)" fill="#fff"/><path d="M589.186,1533.711a7.125,7.125,0,0,1,4.437,1.255,4.666,4.666,0,0,1,1.641,3.955v7.627a1.8,1.8,0,0,1-.274,1.077,2.71,2.71,0,0,1-.82.693,8.383,8.383,0,0,1-2.042.788,11.353,11.353,0,0,1-2.911.337,7.919,7.919,0,0,1-4.679-1.19,3.975,3.975,0,0,1-1.656-3.44,3.8,3.8,0,0,1,1.387-3.2,7.531,7.531,0,0,1,3.877-1.342l3.827-.378a.82.82,0,0,0,.74-.816v-.157a2.771,2.771,0,0,0-.965-2.348,4.179,4.179,0,0,0-2.6-.74,8.2,8.2,0,0,0-2.542.386,15.284,15.284,0,0,0-1.592.611.809.809,0,0,1-.993-.252h0a1.065,1.065,0,0,1-.209-.643,1.166,1.166,0,0,1,.231-.74,2.17,2.17,0,0,1,.707-.547,7.91,7.91,0,0,1,1.995-.693,11.7,11.7,0,0,1,2.446-.246Zm.031,13.6a7.677,7.677,0,0,0,2.235-.274q.454-.14.776-.276a.808.808,0,0,0,.495-.752v-3.257a.82.82,0,0,0-.9-.809l-3.083.323a5.024,5.024,0,0,0-2.476.756,2.039,2.039,0,0,0-.8,1.753,2.168,2.168,0,0,0,.931,1.881,4.883,4.883,0,0,0,2.824.655Z" transform="translate(-445.368 -1419.745)" fill="#fff"/><path d="M798.192,1555.291q-.417-.772-.965-1.965t-1.142-2.669q-.594-1.479-1.205-3.135-.517-1.4-.987-2.832a.87.87,0,0,1,.422-1.04h0a1.682,1.682,0,0,1,.788-.193,1.306,1.306,0,0,1,.884.29,2.364,2.364,0,0,1,.6.965q.964,2.733,2.01,5.37c.693,1.74,2.39,5.532,2.427,5.532a21.874,21.874,0,0,0,1.123-2.427q.547-1.432,1.078-3.039t1-3.264q.4-1.41.713-2.716a.871.871,0,0,1,.589-.628h0a2.078,2.078,0,0,1,.611-.081,1.426,1.426,0,0,1,.9.274.97.97,0,0,1,.354.821,11.184,11.184,0,0,1-.449,2.347q-.45,1.7-1.174,3.827t-1.656,4.358a39.858,39.858,0,0,1-1.9,3.972,28.3,28.3,0,0,1-2.718,4.2,3.226,3.226,0,0,1-2.235,1.464,1.582,1.582,0,0,1-1.142-.386c-.032-.031-.063-.062-.092-.095a.886.886,0,0,1,.044-1.225q.331-.326.708-.739.641-.709,1.286-1.528t1.223-1.688c.185-.279.356-.552.511-.821a.893.893,0,0,0-.265-1.19,2.964,2.964,0,0,1-.295-.225A5.388,5.388,0,0,1,798.192,1555.291Z" transform="translate(-640.878 -1428.775)" fill="#fff"/><path d="M41.379,1538.987a5.146,5.146,0,0,0-1.618-1.52,4.349,4.349,0,0,0-4.368-.1,4.445,4.445,0,0,0-2.382,3.917,6.678,6.678,0,0,0,1.583,4.354,5.778,5.778,0,0,0,9.683-1.878,8.256,8.256,0,0,0-2.495-9.584c-.411-.328-.879-.585-1.312-.869a7.5,7.5,0,0,1,2.4,1.225,8.048,8.048,0,0,1,3.258,7.135,8.4,8.4,0,0,1-7.666,7.786,6.3,6.3,0,0,1-5.93-2.542,8.27,8.27,0,0,1-1.6-6.19,5.724,5.724,0,0,1,1.514-3.493c2.939-3.08,7.358-2.493,8.733,1.076C41.288,1538.68,41.365,1538.942,41.379,1538.987Z" transform="translate(66.208 -1419.368)" fill="#f58b40"/><path d="M11.882,1545.26a7.437,7.437,0,0,1-2.144-1.092,8.458,8.458,0,0,1,3.664-15.32,6.832,6.832,0,0,1,7.332,4.318,7.544,7.544,0,0,1,.116,6.283,5.922,5.922,0,0,1-5.155,3.45,5.408,5.408,0,0,1-4.761-3.45.723.723,0,0,1-.037-.192,4.62,4.62,0,0,0,1.374,1.4,4.182,4.182,0,0,0,4.5.164,4.561,4.561,0,0,0,2.467-4.079,7.009,7.009,0,0,0-1.842-4.738c-3.157-3.051-8.289-.662-9.5,2.829a8.753,8.753,0,0,0,2.453,9.305C10.82,1544.562,11.382,1544.9,11.882,1545.26Z" transform="translate(89.137 -1415.172)" fill="#f05f40"/></g></svg>