<svg xmlns="http://www.w3.org/2000/svg" width="176.226" height="76.154" viewBox="0 0 176.226 76.154"><g transform="translate(-126.597 -437.778)"><g transform="translate(130.008 437.778)"><path d="M140.654,463.056a5.7,5.7,0,0,1-1.081.095q-2.165,0-2.165-1.414v-21.2a.905.905,0,0,1,.737-.884h.027a6.077,6.077,0,0,1,1.106-.1q2.12,0,2.12,1.414v21.2a.907.907,0,0,1-.728.884Z" transform="translate(-137.408 -438.992)" fill="#fff"/><path d="M190.074,444.058a6.3,6.3,0,0,0-4.154-1.28,11.392,11.392,0,0,0-3.494.491,14.27,14.27,0,0,0-2.074.841.971.971,0,0,0-.53.866v17.1a.971.971,0,0,1-.728.94h-.011a4.5,4.5,0,0,1-1.082.124q-2.12,0-2.12-1.767V444.6a3.123,3.123,0,0,1,.419-1.7,4.39,4.39,0,0,1,1.451-1.3,14.755,14.755,0,0,1,3.393-1.426,16.484,16.484,0,0,1,4.771-.64,11.181,11.181,0,0,1,7.056,2.016q2.581,2.016,2.587,6.337v14.174a.968.968,0,0,1-.739.942H194.8a4.6,4.6,0,0,1-1.06.124q-2.121,0-2.12-1.767v-13.27A4.914,4.914,0,0,0,190.074,444.058Z" transform="translate(-163.739 -438.98)" fill="#fff"/><path d="M275.79,444.055a6.3,6.3,0,0,0-4.154-1.28,11.368,11.368,0,0,0-3.492.491,14.207,14.207,0,0,0-2.076.841.971.971,0,0,0-.53.866v17.1a.968.968,0,0,1-.728.94h-.01a4.5,4.5,0,0,1-1.082.124q-2.121,0-2.121-1.767V444.6a3.122,3.122,0,0,1,.419-1.7,4.42,4.42,0,0,1,1.452-1.3,15.161,15.161,0,0,1,3.4-1.428,16.482,16.482,0,0,1,4.771-.64,11.183,11.183,0,0,1,7.056,2.016q2.581,2.016,2.575,6.339v14.174a.967.967,0,0,1-.739.942h-.023a4.6,4.6,0,0,1-1.06.124q-2.121,0-2.12-1.767v-13.27A4.914,4.914,0,0,0,275.79,444.055Z" transform="translate(-222.408 -438.976)" fill="#fff"/><path d="M447.955,446.391q-.69,2.311-1.4,4.672t-1.451,4.526q-.737,2.163-1.424,4.08t-1.279,3.393a3.679,3.679,0,0,1-.883.394,4.79,4.79,0,0,1-1.329.146,3.846,3.846,0,0,1-1.451-.269,1.571,1.571,0,0,1-.909-.861,31.223,31.223,0,0,1-1.4-3.836q-.811-2.6-1.672-5.731t-1.622-6.293q-.763-3.172-1.255-5.532a4.045,4.045,0,0,1,.86-.64,2.469,2.469,0,0,1,1.255-.3,1.719,1.719,0,0,1,1.377.516,3.788,3.788,0,0,1,.689,1.649q.443,2.062,1.032,4.7t1.18,5.139q.592,2.507,1.106,4.573c.033.129.067.26.1.392a.884.884,0,0,0,1.7.037l.012-.034q.564-1.767,1.3-4.064t1.622-4.948l1.767-5.3a4.272,4.272,0,0,1,2.12-.491q1.82,0,2.264,1.278.883,2.559,1.7,5.089t1.5,4.7q.689,2.166,1.182,3.861v.033a.806.806,0,0,0,1.55,0c.618-2.195,1.31-4.51,1.932-6.839q1.329-4.967,2.164-9.835a3.027,3.027,0,0,1,1.672-.442,2.074,2.074,0,0,1,1.329.392,1.494,1.494,0,0,1,.491,1.237,12.885,12.885,0,0,1-.32,2.09q-.32,1.55-.861,3.589t-1.205,4.377q-.661,2.332-1.352,4.525t-1.3,3.983a27.966,27.966,0,0,1-1.06,2.729,2.515,2.515,0,0,1-.811.369,4.491,4.491,0,0,1-1.3.177,4.606,4.606,0,0,1-1.548-.221,1.268,1.268,0,0,1-.813-.707q-.541-1.327-1.156-3.147t-1.3-3.96q-.689-2.14-1.4-4.5T447.955,446.391Z" transform="translate(-338.957 -439.395)" fill="#fff"/><path d="M554.208,439.532a10.893,10.893,0,0,1,6.784,1.919q2.506,1.919,2.51,6.049v11.663a2.753,2.753,0,0,1-.419,1.647,4.144,4.144,0,0,1-1.255,1.06,12.8,12.8,0,0,1-3.124,1.2,17.367,17.367,0,0,1-4.451.516q-4.623,0-7.155-1.82a6.078,6.078,0,0,1-2.532-5.261,5.815,5.815,0,0,1,2.12-4.893,11.514,11.514,0,0,1,5.929-2.051l5.853-.578a1.254,1.254,0,0,0,1.131-1.248v-.24a4.234,4.234,0,0,0-1.475-3.591,6.392,6.392,0,0,0-3.979-1.131,12.547,12.547,0,0,0-3.888.59,23.264,23.264,0,0,0-2.435.935,1.237,1.237,0,0,1-1.518-.385h0a1.627,1.627,0,0,1-.32-.983,1.781,1.781,0,0,1,.353-1.131,3.317,3.317,0,0,1,1.082-.836,12.071,12.071,0,0,1,3.05-1.06,17.842,17.842,0,0,1,3.741-.376Zm.048,20.8a11.746,11.746,0,0,0,3.417-.419,12.6,12.6,0,0,0,1.188-.423,1.237,1.237,0,0,0,.757-1.15v-4.98a1.252,1.252,0,0,0-1.261-1.244,1.224,1.224,0,0,0-.123.007l-4.714.493a7.679,7.679,0,0,0-3.786,1.155,3.116,3.116,0,0,0-1.228,2.682,3.313,3.313,0,0,0,1.424,2.876,7.461,7.461,0,0,0,4.319,1Z" transform="translate(-416.09 -438.979)" fill="#fff"/><path d="M626.127,461.09q-.638-1.18-1.475-3T622.905,454q-.909-2.262-1.843-4.794-.789-2.138-1.509-4.331a1.331,1.331,0,0,1,.645-1.591h0a2.568,2.568,0,0,1,1.2-.3,1.994,1.994,0,0,1,1.352.444,3.607,3.607,0,0,1,.91,1.475q1.474,4.179,3.073,8.211c1.06,2.661,3.654,8.459,3.711,8.459a33.576,33.576,0,0,0,1.717-3.71q.836-2.19,1.649-4.648t1.523-4.992q.606-2.156,1.09-4.153a1.332,1.332,0,0,1,.9-.961h0a3.162,3.162,0,0,1,.935-.124,2.182,2.182,0,0,1,1.377.419,1.485,1.485,0,0,1,.541,1.255,17.109,17.109,0,0,1-.687,3.589q-.687,2.606-1.8,5.853t-2.532,6.664a61.012,61.012,0,0,1-2.9,6.074,43.347,43.347,0,0,1-4.156,6.417q-1.845,2.236-3.417,2.24a2.423,2.423,0,0,1-1.746-.59c-.049-.048-.1-.095-.141-.145a1.355,1.355,0,0,1,.067-1.873q.5-.5,1.083-1.129.981-1.085,1.966-2.335t1.87-2.582q.426-.639.781-1.255a1.364,1.364,0,0,0-.4-1.82,4.522,4.522,0,0,1-.451-.345A8.332,8.332,0,0,1,626.127,461.09Z" transform="translate(-467.37 -441.346)" fill="#fff"/><path d="M364.649,448.075a7.867,7.867,0,0,0-2.474-2.324,6.648,6.648,0,0,0-6.68-.158,6.8,6.8,0,0,0-3.642,5.988,10.212,10.212,0,0,0,2.421,6.658,8.835,8.835,0,0,0,14.806-2.871,12.625,12.625,0,0,0-3.815-14.656c-.629-.5-1.345-.894-2.006-1.329a11.469,11.469,0,0,1,3.665,1.873,12.305,12.305,0,0,1,4.981,10.912,12.85,12.85,0,0,1-11.723,11.907,9.636,9.636,0,0,1-9.069-3.887,12.648,12.648,0,0,1-2.447-9.466,8.753,8.753,0,0,1,2.315-5.342c4.494-4.709,11.251-3.813,13.354,1.646C364.51,447.605,364.628,448.005,364.649,448.075Z" transform="translate(-281.933 -438.877)" fill="#aeca22"/><path d="M348.592,462.984a11.374,11.374,0,0,1-3.278-1.67,12.934,12.934,0,0,1,5.6-23.426c5.427-.748,9.34,2.419,11.211,6.6a11.535,11.535,0,0,1,.177,9.608c-1.444,2.89-4.4,5.324-7.882,5.276a8.271,8.271,0,0,1-7.281-5.276,1.094,1.094,0,0,1-.056-.293,7.066,7.066,0,0,0,2.1,2.146,6.4,6.4,0,0,0,6.876.252,6.975,6.975,0,0,0,3.773-6.238,10.715,10.715,0,0,0-2.817-7.245c-4.828-4.665-12.676-1.013-14.531,4.326a13.383,13.383,0,0,0,3.75,14.229C346.968,461.917,347.826,462.431,348.592,462.984Z" transform="translate(-275.919 -437.778)" fill="#aeca22"/></g><g transform="translate(130.008 471.935)"><path d="M377.311,565.089c.019-5.854.065-11.707.032-17.561-.007-1.116.218-1.533,1.441-1.5,3.541.088,7.085.055,10.628.014.84-.01,1.185.163,1.174,1.1-.026,2.3.023,2.3-2.23,2.3-2.025,0-4.051.04-6.074-.02-.807-.023-1.034.248-.968,1.006.1,1.165-.471,2.66.226,3.415.649.7,2.15.181,3.275.211q2.023.053,4.049,0c.691-.018.954.2.98.931.084,2.353.114,2.352-2.189,2.352-1.771,0-3.544.03-5.314-.015-.729-.018-1.025.126-1.039.953-.061,3.49-.092,3.489,3.417,3.489,1.6,0,3.208.046,4.808-.019.858-.035,1.125.272,1.046,1.083-.073.752-.067,1.511-.095,2.267Z" transform="translate(-301.611 -546.024)" fill="#f2f2f2"/><path d="M261.774,565.148q2.28-8.2,4.562-16.4c.615-2.2,1.168-2.6,3.494-2.629,3.781-.041,3.905.053,4.923,3.728q2.119,7.652,4.237,15.3h-4.051c-.037-1.6-.767-3.038-1.052-4.578-.119-.648-.449-.88-1.119-.86-1.549.046-3.1.053-4.651,0a1.079,1.079,0,0,0-1.3.97c-.36,1.5-.825,2.981-1.247,4.47Zm8.5-8.633c.548,0,1.1-.038,1.644.009.764.066.815-.243.629-.884-.518-1.778-.969-3.574-1.47-5.358-.106-.379-.126-.9-.724-.876s-.563.557-.671.927c-.388,1.333-.737,2.678-1.1,4.018-.589,2.163-.589,2.163,1.693,2.163Z" transform="translate(-222.531 -546.083)" fill="#f2f2f2"/><path d="M137.408,565.1a66.5,66.5,0,0,1,1.7-6.445q1.4-5.167,2.88-10.313c.522-1.807,1.11-2.207,2.99-2.268,4.126-.135,4.27-.041,5.373,3.946Q152.285,557,154.177,564c.1.36.131.737.194,1.106h-3.8c-.416-1.624-.852-3.244-1.237-4.875-.139-.586-.536-.548-.962-.548-1.643,0-3.286.012-4.928-.006-.518-.006-.861.084-1,.681-.379,1.591-.82,3.167-1.238,4.748Zm8.457-8.633c.589,0,1.178-.016,1.767.005.486.017.674-.085.513-.641-.561-1.934-1.073-3.881-1.6-5.828-.095-.347-.221-.654-.641-.652s-.53.34-.621.675q-.562,2.065-1.128,4.13C143.519,556.47,143.517,556.47,145.865,556.469Z" transform="translate(-137.408 -546.037)" fill="#f2f2f2"/><path d="M324.309,565.114c0-4.84-.028-9.68.032-14.519.012-.991-.3-1.215-1.209-1.153-1.132.077-2.275-.026-3.41.032-.8.042-1.005-.277-.984-1.027.08-2.884-.368-2.331,2.282-2.356,3.833-.035,7.668.02,11.5-.029.958-.012,1.331.206,1.305,1.24-.055,2.157,0,2.13-2.128,2.17-1.123.021-2.616-.5-3.26.236-.553.631-.186,2.085-.189,3.176-.01,3.577,0,7.155-.01,10.732,0,.5-.085,1-.13,1.5Z" transform="translate(-261.519 -546.049)" fill="#f2f2f2"/><path d="M203.74,565.271a7.529,7.529,0,0,1-4.11-5.677,16.471,16.471,0,0,1,.4-9.067c1.139-3.293,2.926-4.434,6.36-4.209l1.2.617a6.727,6.727,0,0,0-3.163,4.351,16.7,16.7,0,0,0,.1,9.3,6.516,6.516,0,0,0,3.045,4l-1.3.688Z" transform="translate(-179.688 -546.207)" fill="#f2f2f2"/><path d="M221.656,591.612l1.3-.689a5.727,5.727,0,0,0,3.564-4.567c.2-1.187.756-1.7,1.96-1.56a16.272,16.272,0,0,0,1.644.012c1.377.017,1.611.328,1.286,1.706a6.546,6.546,0,0,1-4.184,5.1Z" transform="translate(-195.072 -572.547)" fill="#aeca22"/><path d="M223.239,546.849l-1.2-.617c1.554-.018,3.112-.114,4.661-.037,2.626.13,5.2,3.151,5.106,5.856a.851.851,0,0,1-.943.929c-.925.021-1.85.011-2.777.007-.963,0-1.127-.72-1.26-1.444A6.01,6.01,0,0,0,223.239,546.849Z" transform="translate(-195.336 -546.121)" fill="#aeca22"/></g><rect width="95.246" height="14.039" transform="translate(126.597 499.441)" fill="#aeca2c"/><g transform="translate(130.008 498.933)" style="isolation:isolate"><text transform="translate(0 12)" fill="#333" font-size="12" font-family="Montserrat-Regular, Montserrat" letter-spacing="0.1em" style="isolation:isolate"><tspan x="0" y="0">CORPORATE</tspan></text></g></g></svg>