<svg id="INNOVATION" xmlns="http://www.w3.org/2000/svg" width="474" height="62" viewBox="0 0 474 62">
  <g id="Grupo_3576" data-name="Grupo 3576">
    <path id="Caminho_11566" data-name="Caminho 11566" d="M0,.5H6.5v28H0Z" fill="#333"/>
    <path id="Caminho_11567" data-name="Caminho 11567" d="M40.8.5v28H35.5l-14-17v17H15.1V.5h5.4l13.9,17V.5Z" fill="#333"/>
    <path id="Caminho_11568" data-name="Caminho 11568" d="M75.1.5v28H69.8l-14-17v17H49.4V.5h5.4l13.9,17V.5Z" fill="#333"/>
  </g>
  <g id="Grupo_3577" data-name="Grupo 3577">
    <path id="Caminho_11569" data-name="Caminho 11569" d="M82,14.5C82,6.2,88.5,0,97.3,0s15.3,6.1,15.3,14.5S106.1,29,97.3,29,82,22.8,82,14.5Zm24.1,0a8.618,8.618,0,0,0-8.8-9c-5,0-8.8,3.6-8.8,9a8.8,8.8,0,1,0,17.6,0Z" fill="#fff"/>
  </g>
  <g id="Grupo_3578" data-name="Grupo 3578">
    <path id="Caminho_11570" data-name="Caminho 11570" d="M146.4.5l-12.1,28h-6.4L115.8.5h7l8.5,20,8.6-20Z" fill="#333"/>
    <path id="Caminho_11571" data-name="Caminho 11571" d="M168.3,22.5h-13l-2.5,6h-6.6L158.7.5h6.4l12.5,28h-6.8Zm-2.1-4.9L161.8,6.9l-4.4,10.7Z" fill="#333"/>
    <path id="Caminho_11572" data-name="Caminho 11572" d="M186.9,5.8h-9V.5h24.4V5.8h-9V28.5h-6.5V5.8Z" fill="#333"/>
    <path id="Caminho_11573" data-name="Caminho 11573" d="M207.8.5h6.5v28h-6.5Z" fill="#333"/>
  </g>
  <g id="Grupo_3579" data-name="Grupo 3579">
    <path id="Caminho_11574" data-name="Caminho 11574" d="M221.2,14.5c0-8.3,6.5-14.5,15.3-14.5s15.3,6.1,15.3,14.5S245.3,29,236.5,29C227.6,29,221.2,22.8,221.2,14.5Zm24,0a8.618,8.618,0,0,0-8.8-9c-5,0-8.8,3.6-8.8,9a8.8,8.8,0,1,0,17.6,0Z" fill="#fff"/>
  </g>
  <g id="Grupo_3580" data-name="Grupo 3580">
    <path id="Caminho_11575" data-name="Caminho 11575" d="M284.4.5v28H279l-14-17v17h-6.4V.5H264l13.9,17V.5Z" fill="#333"/>
    <path id="Caminho_11576" data-name="Caminho 11576" d="M330.6,10.6c0,6.2-4.7,10.1-12.2,10.1h-5.6v7.7h-6.5V.4h12.1C325.9.5,330.6,4.4,330.6,10.6Zm-6.6,0c0-3.1-2-4.9-6-4.9h-5.3v9.7H318C322,15.5,324,13.7,324,10.6Z" fill="#333"/>
    <path id="Caminho_11577" data-name="Caminho 11577" d="M335.8,14.5c0-8.3,6.5-14.5,15.3-14.5s15.3,6.1,15.3,14.5S359.9,29,351.1,29,335.8,22.8,335.8,14.5Zm24.1,0a8.618,8.618,0,0,0-8.8-9c-5,0-8.8,3.6-8.8,9a8.8,8.8,0,1,0,17.6,0Z" fill="#333"/>
    <path id="Caminho_11578" data-name="Caminho 11578" d="M414.8.5l-9.2,28h-7l-6.2-19-6.4,19h-6.9L369.9.5h6.7l6.3,19.7L389.5.5h6l6.4,19.8L408.4.5Z" fill="#333"/>
    <path id="Caminho_11579" data-name="Caminho 11579" d="M442,23.3v5.2H420.3V.5h21.2V5.7H426.8v6.1h13v5h-13v6.5Z" fill="#333"/>
    <path id="Caminho_11580" data-name="Caminho 11580" d="M467,28.5l-5.4-7.8h-5.9v7.8h-6.5V.5h12.1c7.5,0,12.2,3.9,12.2,10.2a8.949,8.949,0,0,1-5.8,8.8l6.3,9ZM461,5.8h-5.3v9.8H461c4,0,6-1.8,6-4.9C466.9,7.6,464.9,5.8,461,5.8Z" fill="#333"/>
  </g>
  <g id="Grupo_3581" data-name="Grupo 3581">
    <path id="Caminho_11581" data-name="Caminho 11581" d="M37.8,57.5v-12L31.9,55.6h-.5L25.5,45.5V57.4h-1v-14h.9l6.3,10.8L38,43.4h.8v14h-1Z" fill="#333"/>
    <path id="Caminho_11582" data-name="Caminho 11582" d="M52.3,53.5H44.2l-1.8,3.9H41.3l6.4-14h1l6.4,14H54Zm-.3-.8-3.7-8.1-3.7,8.1H52Z" fill="#333"/>
    <path id="Caminho_11583" data-name="Caminho 11583" d="M59.8,44.4h-5v-.9H65.9v.9h-5V57.5h-1V44.4Z" fill="#333"/>
    <path id="Caminho_11584" data-name="Caminho 11584" d="M67.9,51.5V43.4h1v8c0,3.5,1.7,5.1,4.6,5.1s4.6-1.6,4.6-5.1v-8h1v8.1c0,4-2.1,6-5.6,6C70.1,57.6,67.9,55.5,67.9,51.5Z" fill="#333"/>
    <path id="Caminho_11585" data-name="Caminho 11585" d="M93.6,57.5l-3.3-4.7a6.15,6.15,0,0,1-1.4.1h-4v4.6h-1v-14h5c3.5,0,5.6,1.8,5.6,4.7a4.314,4.314,0,0,1-3.3,4.4l3.5,4.9ZM88.9,52c3,0,4.6-1.4,4.6-3.8s-1.6-3.8-4.6-3.8h-4V52Z" fill="#333"/>
    <path id="Caminho_11586" data-name="Caminho 11586" d="M98.3,43.5h1v14h-1Z" fill="#333"/>
    <path id="Caminho_11587" data-name="Caminho 11587" d="M104.2,43.5h5.5c4.4,0,7.4,2.9,7.4,7s-3,7-7.4,7h-5.5Zm5.5,13.1c4,0,6.5-2.5,6.5-6.1s-2.5-6.1-6.5-6.1h-4.4V56.6h4.4Z" fill="#333"/>
    <path id="Caminho_11588" data-name="Caminho 11588" d="M129.2,53.5h-8.1l-1.8,3.9h-1.1l6.4-14h1l6.4,14h-1Zm-.4-.8-3.7-8.1-3.7,8.1h7.4Z" fill="#333"/>
    <path id="Caminho_11589" data-name="Caminho 11589" d="M134.6,43.5h5.5c4.4,0,7.4,2.9,7.4,7s-3,7-7.4,7h-5.5Zm5.5,13.1c4,0,6.5-2.5,6.5-6.1s-2.5-6.1-6.5-6.1h-4.4V56.6h4.4Z" fill="#333"/>
    <path id="Caminho_11590" data-name="Caminho 11590" d="M160.8,56.6v.9h-9.7v-14h9.4v.9h-8.3v5.5h7.5v.9h-7.5v5.7h8.6Z" fill="#333"/>
    <path id="Caminho_11591" data-name="Caminho 11591" d="M169.7,43.5h5.5c4.4,0,7.4,2.9,7.4,7s-3,7-7.4,7h-5.5Zm5.4,13.1c4,0,6.5-2.5,6.5-6.1s-2.5-6.1-6.5-6.1h-4.4V56.6h4.4Z" fill="#333"/>
    <path id="Caminho_11592" data-name="Caminho 11592" d="M194.7,53.5h-8.1l-1.8,3.9h-1.1l6.4-14h1l6.4,14h-1.1Zm-.4-.8-3.7-8.1-3.7,8.1h7.4Z" fill="#333"/>
    <path id="Caminho_11593" data-name="Caminho 11593" d="M203.9,50.5a6.991,6.991,0,0,1,7.3-7.1,6.632,6.632,0,0,1,5,1.9l-.6.7a5.879,5.879,0,0,0-4.3-1.7,6.2,6.2,0,1,0,0,12.4,5.879,5.879,0,0,0,4.3-1.7l.6.7a6.7,6.7,0,0,1-5,2A7.131,7.131,0,0,1,203.9,50.5Z" fill="#333"/>
    <path id="Caminho_11594" data-name="Caminho 11594" d="M219.4,51.5V43.4h1v8c0,3.5,1.7,5.1,4.6,5.1s4.6-1.6,4.6-5.1v-8h1v8.1c0,4-2.1,6-5.6,6C221.5,57.6,219.4,55.5,219.4,51.5Z" fill="#333"/>
    <path id="Caminho_11595" data-name="Caminho 11595" d="M235.4,43.5h1V56.6h8.1v.9h-9.1Z" fill="#333"/>
    <path id="Caminho_11596" data-name="Caminho 11596" d="M248.5,44.4h-5v-.9h11.1v.9h-5V57.5h-1V44.4Z" fill="#333"/>
    <path id="Caminho_11597" data-name="Caminho 11597" d="M256.7,51.5V43.4h1v8c0,3.5,1.7,5.1,4.6,5.1s4.6-1.6,4.6-5.1v-8h1v8.1c0,4-2.1,6-5.6,6S256.7,55.5,256.7,51.5Z" fill="#333"/>
    <path id="Caminho_11598" data-name="Caminho 11598" d="M282.4,57.5l-3.3-4.7a6.15,6.15,0,0,1-1.4.1h-4v4.6h-1v-14h5c3.5,0,5.6,1.8,5.6,4.7a4.314,4.314,0,0,1-3.3,4.4l3.5,4.9ZM277.7,52c3,0,4.6-1.4,4.6-3.8s-1.6-3.8-4.6-3.8h-4V52Z" fill="#333"/>
    <path id="Caminho_11599" data-name="Caminho 11599" d="M295.7,53.5h-8.1l-1.8,3.9h-1.1l6.4-14h1l6.4,14h-1.1Zm-.4-.8-3.7-8.1-3.7,8.1h7.4Z" fill="#333"/>
    <path id="Caminho_11600" data-name="Caminho 11600" d="M306.3,43.5h5.5c4.4,0,7.4,2.9,7.4,7s-3,7-7.4,7h-5.5Zm5.4,13.1c4,0,6.5-2.5,6.5-6.1s-2.5-6.1-6.5-6.1h-4.4V56.6h4.4Z" fill="#333"/>
    <path id="Caminho_11601" data-name="Caminho 11601" d="M332.5,56.6v.9h-9.7v-14h9.4v.9h-8.3v5.5h7.5v.9h-7.5v5.7h8.6Z" fill="#333"/>
    <path id="Caminho_11602" data-name="Caminho 11602" d="M341.3,43.5h1v14h-1Z" fill="#333"/>
    <path id="Caminho_11603" data-name="Caminho 11603" d="M358.6,43.5v14h-.8l-9.5-12.2V57.5h-1v-14h.9l9.5,12.2V43.5Z" fill="#333"/>
    <path id="Caminho_11604" data-name="Caminho 11604" d="M362.2,50.5a7.3,7.3,0,1,1,7.3,7.1A6.991,6.991,0,0,1,362.2,50.5Zm13.5,0a6.25,6.25,0,1,0-6.2,6.2A6.167,6.167,0,0,0,375.7,50.5Z" fill="#333"/>
    <path id="Caminho_11605" data-name="Caminho 11605" d="M391,43.5l-6.2,14h-1l-6.2-14h1.1l5.7,12.7,5.7-12.7Z" fill="#333"/>
    <path id="Caminho_11606" data-name="Caminho 11606" d="M401.5,53.5h-8.1l-1.8,3.9h-1.1l6.4-14h1l6.4,14h-1.1Zm-.4-.8-3.7-8.1-3.7,8.1h7.4Z" fill="#333"/>
    <path id="Caminho_11607" data-name="Caminho 11607" d="M417,55l.6.7a6.7,6.7,0,0,1-5,2l-.3,1c1.1.1,1.7.7,1.7,1.6,0,1-.9,1.7-2.1,1.7a2.352,2.352,0,0,1-1.6-.5l.3-.6a2.01,2.01,0,0,0,1.3.4c.8,0,1.3-.4,1.3-1.1,0-.6-.5-1-1.3-1h-.4l.4-1.5a7.11,7.11,0,0,1,.7-14.2,6.632,6.632,0,0,1,5,1.9l-.6.6a5.879,5.879,0,0,0-4.3-1.7,6.2,6.2,0,1,0,0,12.4A6.606,6.606,0,0,0,417,55Z" fill="#333"/>
    <path id="Caminho_11608" data-name="Caminho 11608" d="M429.4,53.5h-8.1l-1.8,3.9h-1.1l6.4-14h1l6.4,14h-1.1Zm-.4-.8-3.7-8.1-3.7,8.1H429Zm-6-10.6h-.7a1.775,1.775,0,0,1,1.7-2c1.2,0,1.7,1.4,2.6,1.4.6,0,1-.5,1.1-1.3h.7a1.775,1.775,0,0,1-1.7,2c-1.2,0-1.7-1.4-2.6-1.4C423.4,40.8,423,41.3,423,42.1Z" fill="#333"/>
    <path id="Caminho_11609" data-name="Caminho 11609" d="M433.3,50.5a7.3,7.3,0,1,1,7.3,7.1A6.991,6.991,0,0,1,433.3,50.5Zm13.5,0a6.25,6.25,0,1,0-6.2,6.2A6.167,6.167,0,0,0,446.8,50.5Z" fill="#333"/>
  </g>
  <g id="Group_3377" transform="translate(-1661.25 -1224.474)">
    <path id="Path_46" d="M1904.7,1235.4a11.012,11.012,0,0,0-2.9-2.8,7.718,7.718,0,0,0-7.9-.2,8.1,8.1,0,0,0-4.3,7.1,12.038,12.038,0,0,0,2.9,7.9c5,5.6,14.3,4.3,17.6-3.4a15.026,15.026,0,0,0-4.5-17.4,20.019,20.019,0,0,0-2.4-1.6,13.477,13.477,0,0,1,4.3,2.2,14.545,14.545,0,0,1,5.9,12.9c-.3,7.4-6.5,13.4-13.9,14.1a11.384,11.384,0,0,1-10.8-4.6,14.952,14.952,0,0,1-2.9-11.2,10.314,10.314,0,0,1,2.7-6.3c5.3-5.6,13.3-4.5,15.8,2A4.871,4.871,0,0,1,1904.7,1235.4Z" fill="#8fa720"/>
    <path id="Path_47" d="M1892.8,1254.4a12.043,12.043,0,0,1-3.9-2,15.289,15.289,0,0,1,6.7-27.7c6.4-.9,11.1,2.9,13.3,7.8a13.745,13.745,0,0,1,.2,11.4c-1.7,3.4-5.2,6.3-9.3,6.3a9.768,9.768,0,0,1-8.6-6.3c0-.1-.1-.2-.1-.3a7.471,7.471,0,0,0,2.5,2.5,7.6,7.6,0,0,0,8.2.3,8.247,8.247,0,0,0,4.5-7.4,13.007,13.007,0,0,0-3.3-8.6c-5.7-5.5-15-1.2-17.2,5.1a16,16,0,0,0,4.4,16.9A29.43,29.43,0,0,0,1892.8,1254.4Z" fill="#aeca2c"/>
  </g>
  <g id="Group_3377_1_" transform="translate(-1661.25 -1224.474)">
    <path id="Path_46_1_" d="M1765.2,1235.4a11.012,11.012,0,0,0-2.9-2.8,7.718,7.718,0,0,0-7.9-.2,8.1,8.1,0,0,0-4.3,7.1,12.038,12.038,0,0,0,2.9,7.9c5,5.6,14.3,4.3,17.6-3.4a15.026,15.026,0,0,0-4.5-17.4,20.019,20.019,0,0,0-2.4-1.6,13.477,13.477,0,0,1,4.3,2.2,14.545,14.545,0,0,1,5.9,12.9c-.3,7.4-6.5,13.4-13.9,14.1a11.384,11.384,0,0,1-10.8-4.6,14.952,14.952,0,0,1-2.9-11.2,10.314,10.314,0,0,1,2.7-6.3c5.3-5.6,13.3-4.5,15.8,2A4.871,4.871,0,0,1,1765.2,1235.4Z" fill="#8fa720"/>
    <path id="Path_47_1_" d="M1753.3,1254.4a12.043,12.043,0,0,1-3.9-2,15.289,15.289,0,0,1,6.7-27.7c6.4-.9,11.1,2.9,13.3,7.8a13.745,13.745,0,0,1,.2,11.4c-1.7,3.4-5.2,6.3-9.3,6.3a9.768,9.768,0,0,1-8.6-6.3c0-.1-.1-.2-.1-.3a7.471,7.471,0,0,0,2.5,2.5,7.6,7.6,0,0,0,8.2.3,8.247,8.247,0,0,0,4.5-7.4,13.007,13.007,0,0,0-3.3-8.6c-5.7-5.5-15-1.2-17.2,5.1a16,16,0,0,0,4.4,16.9A29.43,29.43,0,0,0,1753.3,1254.4Z" fill="#aeca2c"/>
  </g>
</svg>
