<svg xmlns="http://www.w3.org/2000/svg" width="32.144" height="29.443" viewBox="0 0 32.144 29.443"><g transform="translate(95.844 109.442) rotate(180)"><path d="M171.712-7045.558a3.922,3.922,0,0,1-3.938-3.906v-2.919a1.421,1.421,0,0,1,1.422-1.422,1.421,1.421,0,0,1,1.42,1.422v2.919a1.071,1.071,0,0,0,1.1,1.062h11.225a1.042,1.042,0,0,0,1.062-1.062v-21.63a1.043,1.043,0,0,0-1.062-1.062H171.712a1.071,1.071,0,0,0-1.1,1.062v2.978a1.421,1.421,0,0,1-1.42,1.422,1.421,1.421,0,0,1-1.422-1.422v-2.978a3.922,3.922,0,0,1,3.938-3.906h11.225a3.9,3.9,0,0,1,3.906,3.906v21.63a3.9,3.9,0,0,1-3.906,3.906Zm-11.081-8.223-5.387-5.386a1.4,1.4,0,0,1-.543-1.113,1.429,1.429,0,0,1,.469-1.055l5.385-6.206a1.422,1.422,0,0,1,2.008-.142,1.422,1.422,0,0,1,.142,2.008l-3.446,3.972h18.7a1.42,1.42,0,0,1,1.42,1.422,1.421,1.421,0,0,1-1.42,1.422H159.569l3.068,3.07a1.422,1.422,0,0,1,0,2.006,1.42,1.42,0,0,1-1,.419A1.423,1.423,0,0,1,160.631-7053.78Z" transform="translate(-91 7155)" fill="#fff"/></g></svg>