<svg xmlns="http://www.w3.org/2000/svg" width="11.85" height="12.273" viewBox="0 0 11.85 12.273">
  <path id="Caminho_11649" data-name="Caminho 11649" d="M467.141,364.884a1.205,1.205,0,0,1-.5-.367q-1.338-1.4-2.681-2.789c-.03-.031-.06-.064-.092-.1a4.906,4.906,0,0,1-4.286.673,4.786,4.786,0,0,1-2.68-2,4.949,4.949,0,1,1,8.777-4.43,4.832,4.832,0,0,1,.223,2.546,4.913,4.913,0,0,1-1.086,2.33l.169.178,2.707,2.814a.642.642,0,0,1,.039.939,1.634,1.634,0,0,1-.345.2Zm-6.118-10.976a3.66,3.66,0,1,0,3.655,3.66A3.667,3.667,0,0,0,461.023,353.908Z" transform="translate(-456.062 -352.611)" fill="#aeca2c"/>
</svg>
