<svg xmlns="http://www.w3.org/2000/svg" width="86.188" height="45.302" viewBox="0 0 86.188 45.302">
  <g id="Group_4169" data-name="Group 4169" transform="translate(1667.377 -1023.424)">
    <path id="Path_11852" data-name="Path 11852" d="M-1648.919,1046.565l-8.849-7.166a40.77,40.77,0,0,0-9.6,27.12h11.336A32.005,32.005,0,0,1-1648.919,1046.565Z" fill="#bf051b"/>
    <g id="Group_4035" data-name="Group 4035">
      <g id="Group_4371" data-name="Group 4371">
        <g id="Group_4506" data-name="Group 4506" style="isolation: isolate">
          <text id="_21_" data-name="21%" transform="translate(-1635.773 1065.726)" fill="#262625" font-size="12.797" font-family="Montserrat-Bold, Montserrat" font-weight="700" style="isolation: isolate"><tspan x="0" y="0">21%</tspan></text>
        </g>
      </g>
    </g>
    <path id="Path_11902" data-name="Path 11902" d="M-1623.886,1034.583a32.151,32.151,0,0,1,32.147,31.854h10.55a43.09,43.09,0,0,0-43.165-43.013h0a43.086,43.086,0,0,0-33.412,15.975l8.848,7.166A32.086,32.086,0,0,1-1623.886,1034.583Z" fill="#262626"/>
  </g>
</svg>
