<svg xmlns="http://www.w3.org/2000/svg" width="86.188" height="45.302" viewBox="0 0 86.188 45.302">
  <g id="Group_4170" data-name="Group 4170" transform="translate(1507.984 -1023.424)">
    <path id="Path_12001" data-name="Path 12001" d="M-1489.526,1046.565l-8.849-7.166a40.764,40.764,0,0,0-9.6,27.12h11.336A32.005,32.005,0,0,1-1489.526,1046.565Z" fill="#bf051b"/>
    <g id="Group_4107" data-name="Group 4107">
      <g id="Group_4372" data-name="Group 4372">
        <g id="Group_4507" data-name="Group 4507" style="isolation: isolate">
          <text id="_22_" data-name="22%" transform="translate(-1477.71 1065.726)" fill="#262625" font-size="12.797" font-family="Montserrat-Bold, Montserrat" font-weight="700" style="isolation: isolate"><tspan x="0" y="0">22%</tspan></text>
        </g>
      </g>
    </g>
    <path id="Path_12000" data-name="Path 12000" d="M-1464.493,1034.583a32.151,32.151,0,0,1,32.147,31.854h10.55a43.09,43.09,0,0,0-43.167-43.013h0a43.086,43.086,0,0,0-33.412,15.975l8.848,7.166A32.086,32.086,0,0,1-1464.493,1034.583Z" fill="#262626"/>
  </g>
</svg>
