<svg xmlns="http://www.w3.org/2000/svg" width="86.182" height="45.525" viewBox="0 0 86.182 45.525">
  <g id="Group_4173" data-name="Group 4173" transform="translate(1666.984 -768.47)">
    <path id="Path_11862" data-name="Path 11862" d="M-1646.215,788.449l-7.6-7.874a40.9,40.9,0,0,0-13.158,31h10.938A32.049,32.049,0,0,1-1646.215,788.449Z" fill="#bf051b"/>
    <g id="Group_4037" data-name="Group 4037">
      <g id="Group_4379" data-name="Group 4379">
        <g id="Group_4514" data-name="Group 4514" style="isolation: isolate">
          <text id="_25_" data-name="25%" transform="translate(-1637.001 810.995)" fill="#262625" font-size="12.797" font-family="Montserrat-Bold, Montserrat" font-weight="700" style="isolation: isolate"><tspan x="0" y="0">25%</tspan></text>
        </g>
      </g>
    </g>
    <path id="Path_11915" data-name="Path 11915" d="M-1623.884,779.418a32.156,32.156,0,0,1,32.155,32.108h10.927a43.082,43.082,0,0,0-43.107-43.056,43.08,43.08,0,0,0-29.91,12.1l7.6,7.874A32.037,32.037,0,0,1-1623.884,779.418Z" fill="#262626"/>
  </g>
</svg>
