<svg xmlns="http://www.w3.org/2000/svg" width="86.182" height="45.525" viewBox="0 0 86.182 45.525">
  <g id="Group_4174" data-name="Group 4174" transform="translate(1507.591 -768.47)">
    <path id="Path_11997" data-name="Path 11997" d="M-1486.822,788.449l-7.6-7.874a40.9,40.9,0,0,0-13.158,31h10.938A32.05,32.05,0,0,1-1486.822,788.449Z" fill="#bf051b"/>
    <g id="Group_4105" data-name="Group 4105">
      <g id="Group_4380" data-name="Group 4380">
        <g id="Group_4515" data-name="Group 4515" style="isolation: isolate">
          <text id="_26_" data-name="26%" transform="translate(-1477.799 810.995)" fill="#262625" font-size="12.797" font-family="Montserrat-Bold, Montserrat" font-weight="700" style="isolation: isolate"><tspan x="0" y="0">26%</tspan></text>
        </g>
      </g>
    </g>
    <path id="Path_11996" data-name="Path 11996" d="M-1464.491,779.418a32.156,32.156,0,0,1,32.155,32.108h10.927a43.082,43.082,0,0,0-43.107-43.056,43.08,43.08,0,0,0-29.91,12.1l7.6,7.874A32.038,32.038,0,0,1-1464.491,779.418Z" fill="#262626"/>
  </g>
</svg>
