<svg xmlns="http://www.w3.org/2000/svg" width="86.19" height="45.994" viewBox="0 0 86.19 45.994">
  <g id="Group_4175" data-name="Group 4175" transform="translate(1666.982 -640.516)">
    <path id="Path_11867" data-name="Path 11867" d="M-1644.546,658.983l-7.035-8.383a41.371,41.371,0,0,0-15.393,33.012h10.939A32.081,32.081,0,0,1-1644.546,658.983Z" fill="#bf051b"/>
    <g id="Group_4038" data-name="Group 4038">
      <g id="Group_4383" data-name="Group 4383">
        <g id="Group_4604" data-name="Group 4604" style="isolation: isolate">
          <text id="_27_" data-name="27%" transform="translate(-1637.257 683.51)" fill="#262625" font-size="12.797" font-family="Montserrat-Bold, Montserrat" font-weight="700" style="isolation: isolate"><tspan x="0" y="0">27%</tspan></text>
        </g>
      </g>
    </g>
    <path id="Path_11920" data-name="Path 11920" d="M-1623.88,651.457a32.156,32.156,0,0,1,32.153,32.053h10.935a43.088,43.088,0,0,0-43.182-42.994h0a43.089,43.089,0,0,0-27.607,10.085l7.035,8.383A32.013,32.013,0,0,1-1623.88,651.457Z" fill="#262626"/>
  </g>
</svg>
