<svg xmlns="http://www.w3.org/2000/svg" width="86.185" height="45.493" viewBox="0 0 86.185 45.493">
  <g id="Group_4177" data-name="Group 4177" transform="translate(1666.978 -513.528)">
    <path id="Path_11872" data-name="Path 11872" d="M-1642.776,530.616l-6.433-8.855a41.788,41.788,0,0,0-17.764,34.865h10.94A32.1,32.1,0,0,1-1642.776,530.616Z" fill="#bf051b"/>
    <g id="Group_4039" data-name="Group 4039">
      <g id="Group_4387" data-name="Group 4387">
        <g id="Group_4522" data-name="Group 4522" style="isolation: isolate">
          <text id="_29_" data-name="29%" transform="translate(-1637.34 556.021)" fill="#262625" font-size="12.797" font-family="Montserrat-Bold, Montserrat" font-weight="700" style="isolation: isolate"><tspan x="0" y="0">29%</tspan></text>
        </g>
      </g>
    </g>
    <path id="Path_11928" data-name="Path 11928" d="M-1623.877,524.47a32.154,32.154,0,0,1,32.154,32.1h10.93a43.085,43.085,0,0,0-43.126-43.042h0a43.085,43.085,0,0,0-25.288,8.233l6.433,8.855A32,32,0,0,1-1623.877,524.47Z" fill="#262626"/>
  </g>
</svg>
