<svg xmlns="http://www.w3.org/2000/svg" width="86.185" height="45.493" viewBox="0 0 86.185 45.493">
  <g id="Group_4178" data-name="Group 4178" transform="translate(1507.585 -513.528)">
    <path id="Path_11992" data-name="Path 11992" d="M-1483.383,530.616l-6.433-8.855a41.787,41.787,0,0,0-17.764,34.865h10.94A32.1,32.1,0,0,1-1483.383,530.616Z" fill="#bf051b"/>
    <g id="Group_4103" data-name="Group 4103">
      <g id="Group_4388" data-name="Group 4388">
        <g id="Group_4523" data-name="Group 4523" style="isolation: isolate">
          <text id="_30_" data-name="30%" transform="translate(-1478.229 556.021)" fill="#262625" font-size="12.797" font-family="Montserrat-Bold, Montserrat" font-weight="700" style="isolation: isolate"><tspan x="0" y="0">30%</tspan></text>
        </g>
      </g>
    </g>
    <path id="Path_11993" data-name="Path 11993" d="M-1464.484,524.47a32.156,32.156,0,0,1,32.154,32.1h10.93a43.086,43.086,0,0,0-43.127-43.042,43.082,43.082,0,0,0-25.287,8.233l6.433,8.855A32,32,0,0,1-1464.484,524.47Z" fill="#262626"/>
  </g>
</svg>
