<svg xmlns="http://www.w3.org/2000/svg" width="86.18" height="45.481" viewBox="0 0 86.18 45.481">
  <g id="Group_4179" data-name="Group 4179" transform="translate(1666.973 -386.05)">
    <path id="Path_11877" data-name="Path 11877" d="M-1641.389,402.183-1647.35,393c-12.774,8.3-19.623,20.909-19.623,36.141h10.941A32.117,32.117,0,0,1-1641.389,402.183Z" fill="#bf051b"/>
    <g id="Group_4040" data-name="Group 4040">
      <g id="Group_4395" data-name="Group 4395">
        <g id="Group_4530" data-name="Group 4530" style="isolation: isolate">
          <text id="_31_" data-name="31%" transform="translate(-1635.785 428.531)" fill="#262625" font-size="12.797" font-family="Montserrat-Bold, Montserrat" font-weight="700" style="isolation: isolate"><tspan x="0" y="0">31%</tspan></text>
        </g>
      </g>
    </g>
    <path id="Path_11940" data-name="Path 11940" d="M-1623.877,396.99a32.153,32.153,0,0,1,32.153,32.036h10.931a43.083,43.083,0,0,0-43.19-42.976h0a43.081,43.081,0,0,0-23.365,6.956l5.961,9.179A31.99,31.99,0,0,1-1623.877,396.99Z" fill="#262626"/>
  </g>
</svg>
