<svg xmlns="http://www.w3.org/2000/svg" width="86.18" height="45.481" viewBox="0 0 86.18 45.481">
  <g id="Group_4180" data-name="Group 4180" transform="translate(1507.58 -386.05)">
    <path id="Path_11986" data-name="Path 11986" d="M-1482,402.183l-5.961-9.179c-12.774,8.3-19.623,20.909-19.623,36.141h10.941A32.116,32.116,0,0,1-1482,402.183Z" fill="#bf051b"/>
    <g id="Group_4102" data-name="Group 4102">
      <g id="Group_4396" data-name="Group 4396">
        <g id="Group_4531" data-name="Group 4531" style="isolation: isolate">
          <text id="_32_" data-name="32%" transform="translate(-1477.691 428.531)" fill="#262625" font-size="12.797" font-family="Montserrat-Bold, Montserrat" font-weight="700" style="isolation: isolate"><tspan x="0" y="0">32%</tspan></text>
        </g>
      </g>
    </g>
    <path id="Path_11990" data-name="Path 11990" d="M-1464.484,396.99a32.153,32.153,0,0,1,32.153,32.036h10.931a43.084,43.084,0,0,0-43.192-42.976h0a43.081,43.081,0,0,0-23.365,6.956l5.961,9.179A31.987,31.987,0,0,1-1464.484,396.99Z" fill="#262626"/>
  </g>
</svg>
