<svg xmlns="http://www.w3.org/2000/svg" width="86.191" height="45.473" viewBox="0 0 86.191 45.473">
  <g id="Group_4181" data-name="Group 4181" transform="translate(1666.975 -258.569)">
    <path id="Path_11882" data-name="Path 11882" d="M-1639.469,273.539l-5.3-9.569a41.9,41.9,0,0,0-22.2,37.691h10.942A32.142,32.142,0,0,1-1639.469,273.539Z" fill="#bf051b"/>
    <g id="Group_4041" data-name="Group 4041">
      <g id="Group_4399" data-name="Group 4399">
        <g id="Group_4534" data-name="Group 4534" style="isolation: isolate">
          <text id="_33_" data-name="33%" transform="translate(-1636.969 301.042)" fill="#262625" font-size="12.797" font-family="Montserrat-Bold, Montserrat" font-weight="700" style="isolation: isolate"><tspan x="0" y="0">33%</tspan></text>
        </g>
      </g>
    </g>
    <path id="Path_11945" data-name="Path 11945" d="M-1623.877,269.505a32.154,32.154,0,0,1,32.152,31.994h10.941a43.1,43.1,0,0,0-43.27-42.93h0a43.092,43.092,0,0,0-20.719,5.4l5.3,9.569A31.985,31.985,0,0,1-1623.877,269.505Z" fill="#262626"/>
  </g>
</svg>
