<svg xmlns="http://www.w3.org/2000/svg" width="86.191" height="45.473" viewBox="0 0 86.191 45.473">
  <g id="Group_4182" data-name="Group 4182" transform="translate(1507.582 -258.569)">
    <path id="Path_11987" data-name="Path 11987" d="M-1480.076,273.539l-5.3-9.569a41.9,41.9,0,0,0-22.2,37.691h10.942A32.141,32.141,0,0,1-1480.076,273.539Z" fill="#bf051b"/>
    <g id="Group_4100" data-name="Group 4100">
      <g id="Group_4400" data-name="Group 4400">
        <g id="Group_4535" data-name="Group 4535" style="isolation: isolate">
          <text id="_34_" data-name="34%" transform="translate(-1478.101 301.042)" fill="#262625" font-size="12.797" font-family="Montserrat-Bold, Montserrat" font-weight="700" style="isolation: isolate"><tspan x="0" y="0">34%</tspan></text>
        </g>
      </g>
    </g>
    <path id="Path_11991" data-name="Path 11991" d="M-1464.484,269.505a32.154,32.154,0,0,1,32.152,31.994h10.941a43.1,43.1,0,0,0-43.27-42.93h0a43.093,43.093,0,0,0-20.719,5.4l5.3,9.569A31.984,31.984,0,0,1-1464.484,269.505Z" fill="#262626"/>
  </g>
</svg>
