<svg xmlns="http://www.w3.org/2000/svg" width="86.191" height="45.474" viewBox="0 0 86.191 45.474">
  <g id="Group_4183" data-name="Group 4183" transform="translate(1666.973 -131.082)">
    <path id="Path_11887" data-name="Path 11887" d="M-1637.979,145.269l-4.794-9.83c-15.4,7.512-24.2,21.6-24.2,38.732h10.943A32.151,32.151,0,0,1-1637.979,145.269Z" fill="#bf051b"/>
    <g id="Group_4042" data-name="Group 4042">
      <g id="Group_4391" data-name="Group 4391">
        <g id="Group_4526" data-name="Group 4526" style="isolation: isolate">
          <text id="_35_" data-name="35%" transform="translate(-1636.956 173.556)" fill="#262625" font-size="12.797" font-family="Montserrat-Bold, Montserrat" font-weight="700" style="isolation: isolate"><tspan x="0" y="0">35%</tspan></text>
        </g>
      </g>
    </g>
    <path id="Path_11935" data-name="Path 11935" d="M-1623.877,142.016a32.153,32.153,0,0,1,32.153,32.058h10.942A43.106,43.106,0,0,0-1624,131.082h0a43.089,43.089,0,0,0-18.771,4.357l4.794,9.83A31.994,31.994,0,0,1-1623.877,142.016Z" fill="#262626"/>
  </g>
</svg>
