<svg xmlns="http://www.w3.org/2000/svg" width="86.191" height="45.474" viewBox="0 0 86.191 45.474">
  <g id="Group_4184" data-name="Group 4184" transform="translate(1507.58 -131.082)">
    <path id="Path_11988" data-name="Path 11988" d="M-1478.586,145.269l-4.794-9.83c-15.4,7.512-24.2,21.6-24.2,38.732h10.943A32.151,32.151,0,0,1-1478.586,145.269Z" fill="#bf051b"/>
    <g id="Group_4101" data-name="Group 4101">
      <g id="Group_4392" data-name="Group 4392">
        <g id="Group_4527" data-name="Group 4527" style="isolation: isolate">
          <text id="_36_" data-name="36%" transform="translate(-1477.832 173.556)" fill="#262625" font-size="12.797" font-family="Montserrat-Bold, Montserrat" font-weight="700" style="isolation: isolate"><tspan x="0" y="0">36%</tspan></text>
        </g>
      </g>
    </g>
    <path id="Path_11989" data-name="Path 11989" d="M-1464.484,142.016a32.154,32.154,0,0,1,32.153,32.058h10.942a43.106,43.106,0,0,0-43.22-42.992h0a43.087,43.087,0,0,0-18.771,4.357l4.794,9.83A31.994,31.994,0,0,1-1464.484,142.016Z" fill="#262626"/>
  </g>
</svg>
