<svg xmlns="http://www.w3.org/2000/svg" width="86.19" height="45.485" viewBox="0 0 86.19 45.485">
  <g id="Group_4185" data-name="Group 4185" transform="translate(1666.981 -3.59)">
    <path id="Path_11892" data-name="Path 11892" d="M-1635.93,16.866l-4.1-10.144c-16.771,6.776-26.951,21.868-26.951,39.956h10.944A32.159,32.159,0,0,1-1635.93,16.866Z" fill="#bf051b"/>
    <g id="Group_4043" data-name="Group 4043">
      <g id="Group_4403" data-name="Group 4403">
        <g id="Group_4538" data-name="Group 4538" style="isolation: isolate">
          <text id="_37_" data-name="37%" transform="translate(-1637.225 46.075)" fill="#262625" font-size="12.797" font-family="Montserrat-Bold, Montserrat" font-weight="700" style="isolation: isolate"><tspan x="0" y="0">37%</tspan></text>
        </g>
      </g>
    </g>
    <g id="Group_4083" data-name="Group 4083">
      <path id="Path_11950" data-name="Path 11950" d="M-1623.879,14.526a32.155,32.155,0,0,1,32.155,32.155V46.7h10.933a43.1,43.1,0,0,0-43.08-43.106,43.072,43.072,0,0,0-16.157,3.138l4.1,10.144A32.06,32.06,0,0,1-1623.879,14.526Z" fill="#262626"/>
      <path id="Path_11951" data-name="Path 11951" d="M-1656.034,46.69v-.015h-10.945v.015Z" fill="#262626"/>
    </g>
  </g>
</svg>
