<svg xmlns="http://www.w3.org/2000/svg" width="86.19" height="45.485" viewBox="0 0 86.19 45.485">
  <g id="Group_4186" data-name="Group 4186" transform="translate(1507.588 -3.59)">
    <path id="Path_11984" data-name="Path 11984" d="M-1476.537,16.866l-4.1-10.144c-16.771,6.776-26.951,21.868-26.951,39.956h10.944A32.159,32.159,0,0,1-1476.537,16.866Z" fill="#bf051b"/>
    <g id="Group_4098" data-name="Group 4098">
      <g id="Group_4404" data-name="Group 4404">
        <g id="Group_4539" data-name="Group 4539" style="isolation: isolate">
          <text id="_38_" data-name="38%" transform="translate(-1478.043 46.075)" fill="#262625" font-size="12.797" font-family="Montserrat-Bold, Montserrat" font-weight="700" style="isolation: isolate"><tspan x="0" y="0">38%</tspan></text>
        </g>
      </g>
    </g>
    <g id="Group_4099" data-name="Group 4099">
      <path id="Path_11950-2" data-name="Path 11950-2" d="M-1464.486,14.526a32.155,32.155,0,0,1,32.155,32.155V46.7h10.933a43.1,43.1,0,0,0-43.08-43.106,43.069,43.069,0,0,0-16.157,3.138l4.1,10.144A32.06,32.06,0,0,1-1464.486,14.526Z" fill="#262626"/>
      <path id="Path_11951-2" data-name="Path 11951-2" d="M-1496.641,46.69v-.015h-10.945v.015Z" fill="#262626"/>
    </g>
  </g>
</svg>
