<svg xmlns="http://www.w3.org/2000/svg" width="86.192" height="45.509" viewBox="0 0 86.192 45.509">
  <g id="Group_4187" data-name="Group 4187" transform="translate(1666.984 123.91)">
    <path id="Path_11897" data-name="Path 11897" d="M-1633.824-111.4l-3.38-10.4a42.413,42.413,0,0,0-29.777,40.988h10.944A32.164,32.164,0,0,1-1633.824-111.4Z" fill="#bf051b"/>
    <g id="Group_4044" data-name="Group 4044">
      <g id="Group_4407" data-name="Group 4407">
        <g id="Group_4542" data-name="Group 4542" style="isolation: isolate">
          <text id="_39_" data-name="39%" transform="translate(-1637.353 -81.401)" fill="#262625" font-size="12.797" font-family="Montserrat-Bold, Montserrat" font-weight="700" style="isolation: isolate"><tspan x="0" y="0">39%</tspan></text>
        </g>
      </g>
    </g>
    <path id="Path_11959" data-name="Path 11959" d="M-1623.882-112.974a32.155,32.155,0,0,1,32.155,32.14h10.935a43.1,43.1,0,0,0-43.124-43.076h0a43.09,43.09,0,0,0-13.291,2.109l3.38,10.4A32.106,32.106,0,0,1-1623.882-112.974Z" fill="#262626"/>
  </g>
</svg>
