<svg xmlns="http://www.w3.org/2000/svg" width="86.192" height="45.509" viewBox="0 0 86.192 45.509">
  <g id="Group_4188" data-name="Group 4188" transform="translate(1507.591 123.91)">
    <path id="Path_11985" data-name="Path 11985" d="M-1474.431-111.4l-3.38-10.4a42.413,42.413,0,0,0-29.777,40.988h10.944A32.161,32.161,0,0,1-1474.431-111.4Z" fill="#bf051b"/>
    <g id="Group_4097" data-name="Group 4097">
      <g id="Group_4408" data-name="Group 4408">
        <g id="Group_4543" data-name="Group 4543" style="isolation: isolate">
          <text id="_40_" data-name="40%" transform="translate(-1478.849 -81.401)" fill="#262625" font-size="12.797" font-family="Montserrat-Bold, Montserrat" font-weight="700" style="isolation: isolate"><tspan x="0" y="0">40%</tspan></text>
        </g>
      </g>
    </g>
    <path id="Path_11983" data-name="Path 11983" d="M-1464.489-112.974a32.156,32.156,0,0,1,32.155,32.14h10.935a43.1,43.1,0,0,0-43.124-43.076h0a43.088,43.088,0,0,0-13.29,2.109l3.38,10.4A32.1,32.1,0,0,1-1464.489-112.974Z" fill="#262626"/>
  </g>
</svg>
