<svg xmlns="http://www.w3.org/2000/svg" width="86.187" height="45.308" viewBox="0 0 86.187 45.308">
  <g id="Group_4189" data-name="Group 4189" transform="translate(1329.555 -1023.227)">
    <path id="Path_11853" data-name="Path 11853" d="M-1294.687,1035.618l-2.928-10.925c-19.31,5.175-31.94,21.634-31.94,41.626h11.509A32.16,32.16,0,0,1-1294.687,1035.618Z" fill="#ffd10f"/>
    <g id="Group_4045" data-name="Group 4045">
      <g id="Group_4409" data-name="Group 4409">
        <g id="Group_4544" data-name="Group 4544" style="isolation: isolate">
          <text id="_41_" data-name="41%" transform="translate(-1298.824 1065.535)" fill="#262625" font-size="12.797" font-family="Montserrat-Bold, Montserrat" font-weight="700" style="isolation: isolate"><tspan x="0" y="0">41%</tspan></text>
        </g>
      </g>
    </g>
    <path id="Path_11903" data-name="Path 11903" d="M-1285.9,1034.392a32.15,32.15,0,0,1,32.147,31.854h10.381a43.107,43.107,0,0,0-43.195-43.019h0a43.125,43.125,0,0,0-11.056,1.466l2.928,10.925A32.125,32.125,0,0,1-1285.9,1034.392Z" fill="#262626"/>
  </g>
</svg>
