<svg xmlns="http://www.w3.org/2000/svg" width="86.187" height="45.308" viewBox="0 0 86.187 45.308">
  <g id="Group_4190" data-name="Group 4190" transform="translate(1138.466 -1023.227)">
    <path id="Path_12013" data-name="Path 12013" d="M-1103.6,1035.618l-2.928-10.925c-19.31,5.175-31.94,21.634-31.94,41.626h11.509A32.16,32.16,0,0,1-1103.6,1035.618Z" fill="#ffd10f"/>
    <g id="Group_4108" data-name="Group 4108">
      <g id="Group_4410" data-name="Group 4410">
        <g id="Group_4545" data-name="Group 4545" style="isolation: isolate">
          <text id="_42_" data-name="42%" transform="translate(-1109.213 1065.535)" fill="#262625" font-size="12.797" font-family="Montserrat-Bold, Montserrat" font-weight="700" style="isolation: isolate"><tspan x="0" y="0">42%</tspan></text>
        </g>
      </g>
    </g>
    <path id="Path_12002" data-name="Path 12002" d="M-1094.807,1034.392a32.15,32.15,0,0,1,32.147,31.854h10.381a43.107,43.107,0,0,0-43.195-43.019h-.005a43.123,43.123,0,0,0-11.055,1.466l2.928,10.925A32.121,32.121,0,0,1-1094.807,1034.392Z" fill="#262626"/>
  </g>
</svg>
