<svg xmlns="http://www.w3.org/2000/svg" width="86.187" height="45.549" viewBox="0 0 86.187 45.549">
  <g id="Group_4191" data-name="Group 4191" transform="translate(1329.555 -895.732)">
    <path id="Path_11858" data-name="Path 11858" d="M-1292.595,907.263l-2.087-10.739a42.6,42.6,0,0,0-34.871,42.3h10.942A32.162,32.162,0,0,1-1292.595,907.263Z" fill="#ffd10f"/>
    <g id="Group_4046" data-name="Group 4046">
      <g id="Group_4415" data-name="Group 4415">
        <g id="Group_4550" data-name="Group 4550" style="isolation: isolate">
          <text id="_43_" data-name="43%" transform="translate(-1300.155 938.281)" fill="#262625" font-size="12.797" font-family="Montserrat-Bold, Montserrat" font-weight="700" style="isolation: isolate"><tspan x="0" y="0">43%</tspan></text>
        </g>
      </g>
    </g>
    <g id="Group_4077" data-name="Group 4077">
      <path id="Path_11910" data-name="Path 11910" d="M-1286.456,906.671a32.156,32.156,0,0,1,32.156,32.155v.023h10.932a43.09,43.09,0,0,0-43.063-43.117h0a43.022,43.022,0,0,0-8.25.792l2.087,10.739A32.275,32.275,0,0,1-1286.456,906.671Z" fill="#262626"/>
      <path id="Path_11911" data-name="Path 11911" d="M-1318.61,938.849v-.023h-10.944v.023Z" fill="#262626"/>
    </g>
  </g>
</svg>
