<svg xmlns="http://www.w3.org/2000/svg" width="86.187" height="45.549" viewBox="0 0 86.187 45.549">
  <g id="Group_4192" data-name="Group 4192" transform="translate(1138.466 -895.732)">
    <path id="Path_12010" data-name="Path 12010" d="M-1101.506,907.263l-2.087-10.739a42.6,42.6,0,0,0-34.871,42.3h10.942A32.162,32.162,0,0,1-1101.506,907.263Z" fill="#ffd10f"/>
    <g id="Group_4109" data-name="Group 4109">
      <g id="Group_4416" data-name="Group 4416">
        <g id="Group_4551" data-name="Group 4551" style="isolation: isolate">
          <text id="_44_" data-name="44%" transform="translate(-1109.603 938.281)" fill="#262625" font-size="12.797" font-family="Montserrat-Bold, Montserrat" font-weight="700" style="isolation: isolate"><tspan x="0" y="0">44%</tspan></text>
        </g>
      </g>
    </g>
    <g id="Group_4111" data-name="Group 4111">
      <path id="Path_11910-2" data-name="Path 11910-2" d="M-1095.367,906.671a32.156,32.156,0,0,1,32.156,32.155v.023h10.932a43.091,43.091,0,0,0-43.065-43.117h0a43.022,43.022,0,0,0-8.25.792l2.087,10.739A32.276,32.276,0,0,1-1095.367,906.671Z" fill="#262626"/>
      <path id="Path_11911-2" data-name="Path 11911-2" d="M-1127.521,938.849v-.023h-10.944v.023Z" fill="#262626"/>
    </g>
  </g>
</svg>
