<svg xmlns="http://www.w3.org/2000/svg" width="86.191" height="45.569" viewBox="0 0 86.191 45.569">
  <g id="Group_4193" data-name="Group 4193" transform="translate(1329.559 -768.235)">
    <path id="Path_11863" data-name="Path 11863" d="M-1290.933,779.5l-1.523-10.836a42.48,42.48,0,0,0-37.1,42.674h10.941A32.156,32.156,0,0,1-1290.933,779.5Z" fill="#ffd10f"/>
    <g id="Group_4047" data-name="Group 4047">
      <g id="Group_4417" data-name="Group 4417">
        <g id="Group_4552" data-name="Group 4552" style="isolation: isolate">
          <text id="_45_" data-name="45%" transform="translate(-1300.199 810.804)" fill="#262625" font-size="12.797" font-family="Montserrat-Bold, Montserrat" font-weight="700" style="isolation: isolate"><tspan x="0" y="0">45%</tspan></text>
        </g>
      </g>
    </g>
    <path id="Path_11916" data-name="Path 11916" d="M-1286.456,779.184a32.155,32.155,0,0,1,32.156,32.151h10.932a43.058,43.058,0,0,0-43.016-43.1h0a43.071,43.071,0,0,0-6.068.424l1.523,10.836A32.363,32.363,0,0,1-1286.456,779.184Z" fill="#262626"/>
  </g>
</svg>
