<svg xmlns="http://www.w3.org/2000/svg" width="86.191" height="45.569" viewBox="0 0 86.191 45.569">
  <g id="Group_4194" data-name="Group 4194" transform="translate(1138.47 -768.235)">
    <path id="Path_12011" data-name="Path 12011" d="M-1099.844,779.5l-1.523-10.836a42.479,42.479,0,0,0-37.1,42.674h10.941A32.155,32.155,0,0,1-1099.844,779.5Z" fill="#ffd10f"/>
    <g id="Group_4110" data-name="Group 4110">
      <g id="Group_4418" data-name="Group 4418">
        <g id="Group_4553" data-name="Group 4553" style="isolation: isolate">
          <text id="_46_" data-name="46%" transform="translate(-1109.328 810.804)" fill="#262625" font-size="12.797" font-family="Montserrat-Bold, Montserrat" font-weight="700" style="isolation: isolate"><tspan x="0" y="0">46%</tspan></text>
        </g>
      </g>
    </g>
    <path id="Path_12003" data-name="Path 12003" d="M-1095.367,779.184a32.155,32.155,0,0,1,32.156,32.151h10.932a43.058,43.058,0,0,0-43.016-43.1h0a43.071,43.071,0,0,0-6.068.424l1.523,10.836A32.363,32.363,0,0,1-1095.367,779.184Z" fill="#262626"/>
  </g>
</svg>
