<svg xmlns="http://www.w3.org/2000/svg" width="86.178" height="45.556" viewBox="0 0 86.178 45.556">
  <g id="Group_4195" data-name="Group 4195" transform="translate(1329.551 -640.763)">
    <path id="Path_11868" data-name="Path 11868" d="M-1288.7,651.79l-.764-10.92a42.8,42.8,0,0,0-40.087,42.989h10.939A32.151,32.151,0,0,1-1288.7,651.79Z" fill="#ffd10f"/>
    <g id="Group_4048" data-name="Group 4048">
      <g id="Group_4421" data-name="Group 4421">
        <g id="Group_4556" data-name="Group 4556" style="isolation: isolate">
          <text id="_47_" data-name="47%" transform="translate(-1300.213 683.319)" fill="#262625" font-size="12.797" font-family="Montserrat-Bold, Montserrat" font-weight="700" style="isolation: isolate"><tspan x="0" y="0">47%</tspan></text>
        </g>
      </g>
    </g>
    <g id="Group_4078" data-name="Group 4078">
      <path id="Path_11921" data-name="Path 11921" d="M-1286.456,651.7a32.156,32.156,0,0,1,32.156,32.156h0v.024h10.927c0-1-.023-2.013-.094-3.03a43.093,43.093,0,0,0-45.993-39.983h0l.763,10.92C-1287.957,651.735-1287.211,651.7-1286.456,651.7Z" fill="#262626"/>
      <path id="Path_11922" data-name="Path 11922" d="M-1318.61,683.879v-.024h-10.94v.024Z" fill="#262626"/>
    </g>
  </g>
</svg>
