<svg xmlns="http://www.w3.org/2000/svg" width="86.175" height="45.556" viewBox="0 0 86.175 45.556">
  <g id="Group_4196" data-name="Group 4196" transform="translate(1138.462 -640.763)">
    <path id="Path_12012" data-name="Path 12012" d="M-1097.61,651.79l-.764-10.92a42.8,42.8,0,0,0-40.087,42.989h10.939A32.151,32.151,0,0,1-1097.61,651.79Z" fill="#ffd10f"/>
    <g id="Group_4112" data-name="Group 4112">
      <g id="Group_4422" data-name="Group 4422">
        <g id="Group_4557" data-name="Group 4557" style="isolation: isolate">
          <text id="_48_" data-name="48%" transform="translate(-1109.61 683.319)" fill="#262625" font-size="12.797" font-family="Montserrat-Bold, Montserrat" font-weight="700" style="isolation: isolate"><tspan x="0" y="0">48%</tspan></text>
        </g>
      </g>
    </g>
    <g id="Group_4113" data-name="Group 4113">
      <path id="Path_11921-2" data-name="Path 11921-2" d="M-1095.367,651.7a32.156,32.156,0,0,1,32.156,32.156h0v.024h10.924c0-1-.023-2.013-.094-3.03a43.093,43.093,0,0,0-45.993-39.983h0l.763,10.92C-1096.868,651.735-1096.122,651.7-1095.367,651.7Z" fill="#262626"/>
      <path id="Path_11922-2" data-name="Path 11922-2" d="M-1127.521,683.879v-.024h-10.94v.024Z" fill="#262626"/>
    </g>
  </g>
</svg>
