<svg xmlns="http://www.w3.org/2000/svg" width="86.184" height="45.513" viewBox="0 0 86.184 45.513">
  <g id="Group_4201" data-name="Group 4201" transform="translate(1329.552 -258.338)">
    <path id="Path_11883" data-name="Path 11883" d="M-1286.456,269.279a32.452,32.452,0,0,1,3.916.246l1.334-10.865a39.751,39.751,0,0,0-5.252-.321,43.094,43.094,0,0,0-43.094,43.094h10.941a32.155,32.155,0,0,1,32.154-32.154Z" fill="#ffd10f"/>
    <g id="Group_4051" data-name="Group 4051">
      <g id="Group_4433" data-name="Group 4433">
        <g id="Group_4568" data-name="Group 4568" style="isolation: isolate">
          <text id="_53_" data-name="53%" transform="translate(-1299.566 300.851)" fill="#262625" font-size="12.797" font-family="Montserrat-Bold, Montserrat" font-weight="700" style="isolation: isolate"><tspan x="0" y="0">53%</tspan></text>
        </g>
      </g>
    </g>
    <path id="Path_11946" data-name="Path 11946" d="M-1254.3,301.308h10.935a43.093,43.093,0,0,0-37.833-42.65l-1.334,10.865A32.152,32.152,0,0,1-1254.3,301.308Z" fill="#262626"/>
  </g>
</svg>
