<svg xmlns="http://www.w3.org/2000/svg" width="86.184" height="45.513" viewBox="0 0 86.184 45.513">
  <g id="Group_4202" data-name="Group 4202" transform="translate(1138.463 -258.338)">
    <path id="Path_12007" data-name="Path 12007" d="M-1095.367,269.279a32.451,32.451,0,0,1,3.916.246l1.334-10.865a39.764,39.764,0,0,0-5.252-.321,43.094,43.094,0,0,0-43.094,43.094h10.941a32.155,32.155,0,0,1,32.154-32.154Z" fill="#ffd10f"/>
    <g id="Group_4116" data-name="Group 4116">
      <g id="Group_4434" data-name="Group 4434">
        <g id="Group_4569" data-name="Group 4569" style="isolation: isolate">
          <text id="_54_" data-name="54%" transform="translate(-1109.002 300.851)" fill="#262625" font-size="12.797" font-family="Montserrat-Bold, Montserrat" font-weight="700" style="isolation: isolate"><tspan x="0" y="0">54%</tspan></text>
        </g>
      </g>
    </g>
    <path id="Path_12008" data-name="Path 12008" d="M-1063.214,301.308h10.935a43.093,43.093,0,0,0-37.833-42.65l-1.334,10.865A32.152,32.152,0,0,1-1063.214,301.308Z" fill="#262626"/>
  </g>
</svg>
