<svg xmlns="http://www.w3.org/2000/svg" width="86.186" height="45.512" viewBox="0 0 86.186 45.512">
  <g id="Group_4203" data-name="Group 4203" transform="translate(1329.554 -130.853)">
    <path id="Path_11888" data-name="Path 11888" d="M-1286.456,141.8a32.312,32.312,0,0,1,5.579.492l1.9-10.779a37.87,37.87,0,0,0-7.483-.655,43.094,43.094,0,0,0-43.094,43.094h10.942A32.156,32.156,0,0,1-1286.456,141.8Z" fill="#ffd10f"/>
    <g id="Group_4052" data-name="Group 4052">
      <g id="Group_4429" data-name="Group 4429">
        <g id="Group_4564" data-name="Group 4564" style="isolation: isolate">
          <text id="_55_" data-name="55%" transform="translate(-1299.585 173.365)" fill="#262625" font-size="12.797" font-family="Montserrat-Bold, Montserrat" font-weight="700" style="isolation: isolate"><tspan x="0" y="0">55%</tspan></text>
        </g>
      </g>
    </g>
    <path id="Path_11936" data-name="Path 11936" d="M-1254.3,173.879h10.934a43.1,43.1,0,0,0-35.6-42.372l-1.9,10.779A32.158,32.158,0,0,1-1254.3,173.879Z" fill="#262626"/>
  </g>
</svg>
