<svg xmlns="http://www.w3.org/2000/svg" width="86.186" height="45.512" viewBox="0 0 86.186 45.512">
  <g id="Group_4204" data-name="Group 4204" transform="translate(1138.465 -130.853)">
    <path id="Path_12014" data-name="Path 12014" d="M-1095.367,141.8a32.311,32.311,0,0,1,5.579.492l1.9-10.779a37.872,37.872,0,0,0-7.483-.655,43.094,43.094,0,0,0-43.094,43.094h10.942A32.155,32.155,0,0,1-1095.367,141.8Z" fill="#ffd10f"/>
    <g id="Group_4117" data-name="Group 4117">
      <g id="Group_4430" data-name="Group 4430">
        <g id="Group_4565" data-name="Group 4565" style="isolation: isolate">
          <text id="_56_" data-name="56%" transform="translate(-1108.732 173.365)" fill="#262625" font-size="12.797" font-family="Montserrat-Bold, Montserrat" font-weight="700" style="isolation: isolate"><tspan x="0" y="0">56%</tspan></text>
        </g>
      </g>
    </g>
    <path id="Path_12015" data-name="Path 12015" d="M-1063.213,173.879h10.934a43.1,43.1,0,0,0-35.6-42.372l-1.9,10.779A32.158,32.158,0,0,1-1063.213,173.879Z" fill="#262626"/>
  </g>
</svg>
