<svg xmlns="http://www.w3.org/2000/svg" width="86.187" height="45.514" viewBox="0 0 86.187 45.514">
  <g id="Group_4205" data-name="Group 4205" transform="translate(1329.555 -3.37)">
    <path id="Path_11893" data-name="Path 11893" d="M-1286.456,14.316a32.136,32.136,0,0,1,7.774.952l2.647-10.616a39.774,39.774,0,0,0-10.426-1.28,43.094,43.094,0,0,0-43.094,43.094h10.944A32.154,32.154,0,0,1-1286.456,14.316Z" fill="#ffd10f"/>
    <g id="Group_4053" data-name="Group 4053">
      <g id="Group_4435" data-name="Group 4435">
        <g id="Group_4570" data-name="Group 4570" style="isolation: isolate">
          <text id="_57_" data-name="57%" transform="translate(-1299.803 45.884)" fill="#262625" font-size="12.797" font-family="Montserrat-Bold, Montserrat" font-weight="700" style="isolation: isolate"><tspan x="0" y="0">57%</tspan></text>
        </g>
      </g>
    </g>
    <g id="Group_4084" data-name="Group 4084">
      <path id="Path_11952" data-name="Path 11952" d="M-1318.61,46.5v-.036h-10.945V46.5Z" fill="#262626"/>
      <path id="Path_11953" data-name="Path 11953" d="M-1254.3,46.471V46.5h10.932a43.1,43.1,0,0,0-32.67-41.85l-2.649,10.616A32.164,32.164,0,0,1-1254.3,46.471Z" fill="#262626"/>
    </g>
  </g>
</svg>
