<svg xmlns="http://www.w3.org/2000/svg" width="86.187" height="45.514" viewBox="0 0 86.187 45.514">
  <g id="Group_4206" data-name="Group 4206" transform="translate(1138.466 -3.37)">
    <path id="Path_12016" data-name="Path 12016" d="M-1095.367,14.316a32.135,32.135,0,0,1,7.774.952l2.647-10.616a39.774,39.774,0,0,0-10.426-1.28,43.094,43.094,0,0,0-43.094,43.094h10.944A32.154,32.154,0,0,1-1095.367,14.316Z" fill="#ffd10f"/>
    <g id="Group_4118" data-name="Group 4118">
      <g id="Group_4436" data-name="Group 4436">
        <g id="Group_4571" data-name="Group 4571" style="isolation: isolate">
          <text id="_58_" data-name="58%" transform="translate(-1108.944 45.884)" fill="#262625" font-size="12.797" font-family="Montserrat-Bold, Montserrat" font-weight="700" style="isolation: isolate"><tspan x="0" y="0">58%</tspan></text>
        </g>
      </g>
    </g>
    <g id="Group_4119" data-name="Group 4119">
      <path id="Path_11952-2" data-name="Path 11952-2" d="M-1127.521,46.5v-.036h-10.945V46.5Z" fill="#262626"/>
      <path id="Path_11953-2" data-name="Path 11953-2" d="M-1063.211,46.471V46.5h10.932a43.105,43.105,0,0,0-32.67-41.85l-2.647,10.616A32.164,32.164,0,0,1-1063.211,46.471Z" fill="#262626"/>
    </g>
  </g>
</svg>
