<svg xmlns="http://www.w3.org/2000/svg" width="86.187" height="45.513" viewBox="0 0 86.187 45.513">
  <g id="Group_4207" data-name="Group 4207" transform="translate(1329.555 124.105)">
    <path id="Path_11898" data-name="Path 11898" d="M-1286.456-113.165a32.073,32.073,0,0,1,9.93,1.57l3.381-10.4a40.938,40.938,0,0,0-13.316-2.109,43.094,43.094,0,0,0-43.094,43.094h10.944a32.155,32.155,0,0,1,32.155-32.155Z" fill="#ffd10f"/>
    <g id="Group_4054" data-name="Group 4054">
      <g id="Group_4437" data-name="Group 4437">
        <g id="Group_4572" data-name="Group 4572" style="isolation: isolate">
          <text id="_59_" data-name="59%" transform="translate(-1299.95 -81.592)" fill="#262625" font-size="12.797" font-family="Montserrat-Bold, Montserrat" font-weight="700" style="isolation: isolate"><tspan x="0" y="0">59%</tspan></text>
        </g>
      </g>
    </g>
    <path id="Path_11960" data-name="Path 11960" d="M-1254.3-81.021h10.933A43.1,43.1,0,0,0-1273.147-122l-3.381,10.4A32.163,32.163,0,0,1-1254.3-81.021Z" fill="#262626"/>
  </g>
</svg>
