<svg xmlns="http://www.w3.org/2000/svg" width="86.187" height="45.513" viewBox="0 0 86.187 45.513">
  <g id="Group_4208" data-name="Group 4208" transform="translate(1138.466 124.105)">
    <path id="Path_12017" data-name="Path 12017" d="M-1095.367-113.165a32.073,32.073,0,0,1,9.93,1.57l3.381-10.4a40.938,40.938,0,0,0-13.316-2.109,43.094,43.094,0,0,0-43.094,43.094h10.944a32.155,32.155,0,0,1,32.155-32.155Z" fill="#ffd10f"/>
    <g id="Group_4120" data-name="Group 4120">
      <g id="Group_4438" data-name="Group 4438">
        <g id="Group_4573" data-name="Group 4573" style="isolation: isolate">
          <text id="_60_" data-name="60%" transform="translate(-1109.399 -81.592)" fill="#262625" font-size="12.797" font-family="Montserrat-Bold, Montserrat" font-weight="700" style="isolation: isolate"><tspan x="0" y="0">60%</tspan></text>
        </g>
      </g>
    </g>
    <path id="Path_12018" data-name="Path 12018" d="M-1063.212-81.021h10.933A43.1,43.1,0,0,0-1082.058-122l-3.381,10.4A32.163,32.163,0,0,1-1063.212-81.021Z" fill="#262626"/>
  </g>
</svg>
