<svg xmlns="http://www.w3.org/2000/svg" width="86.196" height="45.315" viewBox="0 0 86.196 45.315">
  <g id="Group_4209" data-name="Group 4209" transform="translate(960.883 -1023.219)">
    <path id="Path_11854" data-name="Path 11854" d="M-917.057,1034.392a32.074,32.074,0,0,1,10.811,1.868l3.9-10.174a39.9,39.9,0,0,0-15.444-2.862,43.092,43.092,0,0,0-43.093,43.093h11.672A32.151,32.151,0,0,1-917.057,1034.392Z" fill="#ffd10f"/>
    <g id="Group_4055" data-name="Group 4055">
      <g id="Group_4411" data-name="Group 4411">
        <g id="Group_4546" data-name="Group 4546" style="isolation: isolate">
          <text id="_61_" data-name="61%" transform="translate(-929.974 1065.535)" fill="#262625" font-size="12.797" font-family="Montserrat-Bold, Montserrat" font-weight="700" style="isolation: isolate"><tspan x="0" y="0">61%</tspan></text>
        </g>
      </g>
    </g>
    <path id="Path_11904" data-name="Path 11904" d="M-884.913,1066.246h10.226a43.1,43.1,0,0,0-27.65-40.16l-3.9,10.174A32.16,32.16,0,0,1-884.913,1066.246Z" fill="#262626"/>
  </g>
</svg>
