<svg xmlns="http://www.w3.org/2000/svg" width="86.192" height="45.315" viewBox="0 0 86.192 45.315">
  <g id="Group_4210" data-name="Group 4210" transform="translate(783.299 -1023.219)">
    <path id="Path_12033" data-name="Path 12033" d="M-739.473,1034.392a32.074,32.074,0,0,1,10.811,1.868l3.9-10.174a39.9,39.9,0,0,0-15.444-2.862,43.093,43.093,0,0,0-43.093,43.093h11.672A32.151,32.151,0,0,1-739.473,1034.392Z" fill="#ffd10f"/>
    <g id="Group_4134" data-name="Group 4134">
      <g id="Group_4412" data-name="Group 4412">
        <g id="Group_4547" data-name="Group 4547" style="isolation: isolate">
          <text id="_62_" data-name="62%" transform="translate(-753.721 1065.535)" fill="#262625" font-size="12.797" font-family="Montserrat-Bold, Montserrat" font-weight="700" style="isolation: isolate"><tspan x="0" y="0">62%</tspan></text>
        </g>
      </g>
    </g>
    <path id="Path_12034" data-name="Path 12034" d="M-707.329,1066.246h10.222a43.1,43.1,0,0,0-27.65-40.16l-3.9,10.174A32.161,32.161,0,0,1-707.329,1066.246Z" fill="#262626"/>
  </g>
</svg>
