<svg xmlns="http://www.w3.org/2000/svg" width="86.191" height="45.548" viewBox="0 0 86.191 45.548">
  <g id="Group_4211" data-name="Group 4211" transform="translate(960.878 -895.733)">
    <path id="Path_11859" data-name="Path 11859" d="M-917.779,906.679a32.043,32.043,0,0,1,13.584,3.009l4.623-9.915a40.742,40.742,0,0,0-18.212-4.037,43.092,43.092,0,0,0-43.094,43.09v0h10.944A32.155,32.155,0,0,1-917.779,906.679Z" fill="#ffd10f"/>
    <g id="Group_4056" data-name="Group 4056">
      <g id="Group_4413" data-name="Group 4413">
        <g id="Group_4548" data-name="Group 4548" style="isolation: isolate">
          <text id="_63_" data-name="63%" transform="translate(-931.19 938.281)" fill="#262625" font-size="12.797" font-family="Montserrat-Bold, Montserrat" font-weight="700" style="isolation: isolate"><tspan x="0" y="0">63%</tspan></text>
        </g>
      </g>
    </g>
    <g id="Group_4076" data-name="Group 4076">
      <path id="Path_11908" data-name="Path 11908" d="M-885.624,938.835v.015h10.937a43.092,43.092,0,0,0-24.882-39.076l-4.623,9.915A32.155,32.155,0,0,1-885.624,938.835Z" fill="#262626"/>
      <path id="Path_11909" data-name="Path 11909" d="M-949.934,938.849v-.02h-10.94v.02Z" fill="#262626"/>
    </g>
  </g>
</svg>
