<svg xmlns="http://www.w3.org/2000/svg" width="86.188" height="45.548" viewBox="0 0 86.188 45.548">
  <g id="Group_4212" data-name="Group 4212" transform="translate(783.294 -895.733)">
    <path id="Path_12030" data-name="Path 12030" d="M-740.2,906.679a32.043,32.043,0,0,1,13.584,3.009l4.623-9.915a40.742,40.742,0,0,0-18.212-4.037,43.092,43.092,0,0,0-43.094,43.09v0h10.944A32.155,32.155,0,0,1-740.2,906.679Z" fill="#ffd10f"/>
    <g id="Group_4131" data-name="Group 4131">
      <g id="Group_4414" data-name="Group 4414">
        <g id="Group_4549" data-name="Group 4549" style="isolation: isolate">
          <text id="_64_" data-name="64%" transform="translate(-754.099 938.281)" fill="#262625" font-size="12.797" font-family="Montserrat-Bold, Montserrat" font-weight="700" style="isolation: isolate"><tspan x="0" y="0">64%</tspan></text>
        </g>
      </g>
    </g>
    <g id="Group_4133" data-name="Group 4133">
      <path id="Path_11908-2" data-name="Path 11908-2" d="M-708.04,938.835v.015h10.934a43.091,43.091,0,0,0-24.881-39.076l-4.623,9.915A32.154,32.154,0,0,1-708.04,938.835Z" fill="#262626"/>
      <path id="Path_11909-2" data-name="Path 11909-2" d="M-772.35,938.849v-.02h-10.937v.02Z" fill="#262626"/>
    </g>
  </g>
</svg>
