<svg xmlns="http://www.w3.org/2000/svg" width="86.191" height="45.563" viewBox="0 0 86.191 45.563">
  <g id="Group_4213" data-name="Group 4213" transform="translate(960.878 -768.241)">
    <path id="Path_11864" data-name="Path 11864" d="M-917.779,779.192a31.989,31.989,0,0,1,15.091,3.76l5.136-9.659a40.016,40.016,0,0,0-20.235-5.044,43.094,43.094,0,0,0-43.091,43.094h10.94A32.155,32.155,0,0,1-917.779,779.192Z" fill="#ffd10f"/>
    <g id="Group_4057" data-name="Group 4057">
      <g id="Group_4419" data-name="Group 4419">
        <g id="Group_4554" data-name="Group 4554" style="isolation: isolate">
          <text id="_65_" data-name="65%" transform="translate(-931.203 810.804)" fill="#262625" font-size="12.797" font-family="Montserrat-Bold, Montserrat" font-weight="700" style="isolation: isolate"><tspan x="0" y="0">65%</tspan></text>
        </g>
      </g>
    </g>
    <path id="Path_11917" data-name="Path 11917" d="M-885.624,811.335h10.937a43.078,43.078,0,0,0-22.864-38.046l-5.136,9.659A32.144,32.144,0,0,1-885.624,811.335Z" fill="#262626"/>
  </g>
</svg>
