<svg xmlns="http://www.w3.org/2000/svg" width="86.183" height="45.562" viewBox="0 0 86.183 45.562">
  <g id="Group_4214" data-name="Group 4214" transform="translate(783.287 -768.242)">
    <path id="Path_12031" data-name="Path 12031" d="M-740.2,779.192a31.989,31.989,0,0,1,15.091,3.76l5.136-9.659a40.012,40.012,0,0,0-20.231-5.044,43.094,43.094,0,0,0-43.088,43.094h10.94A32.155,32.155,0,0,1-740.2,779.192Z" fill="#ffd10f"/>
    <g id="Group_4132" data-name="Group 4132">
      <g id="Group_4420" data-name="Group 4420">
        <g id="Group_4555" data-name="Group 4555" style="isolation: isolate">
          <text id="_66_" data-name="66%" transform="translate(-753.824 810.804)" fill="#262625" font-size="12.797" font-family="Montserrat-Bold, Montserrat" font-weight="700" style="isolation: isolate"><tspan x="0" y="0">66%</tspan></text>
        </g>
      </g>
    </g>
    <path id="Path_12032" data-name="Path 12032" d="M-708.04,811.335H-697.1a43.078,43.078,0,0,0-22.864-38.046l-5.136,9.659A32.147,32.147,0,0,1-708.04,811.335Z" fill="#262626"/>
  </g>
</svg>
