<svg xmlns="http://www.w3.org/2000/svg" width="86.187" height="45.56" viewBox="0 0 86.187 45.56">
  <g id="Group_4216" data-name="Group 4216" transform="translate(960.874 -640.759)">
    <path id="Path_11869" data-name="Path 11869" d="M-917.779,651.706a31.987,31.987,0,0,1,17.035,4.887l5.8-9.28a40.719,40.719,0,0,0-22.836-6.548,43.092,43.092,0,0,0-43.094,43.09v0h10.94A32.155,32.155,0,0,1-917.779,651.706Z" fill="#ffd10f"/>
    <g id="Group_4058" data-name="Group 4058">
      <g id="Group_4423" data-name="Group 4423">
        <g id="Group_4558" data-name="Group 4558" style="isolation: isolate">
          <text id="_67_" data-name="67%" transform="translate(-931.446 683.319)" fill="#262625" font-size="12.797" font-family="Montserrat-Bold, Montserrat" font-weight="700" style="isolation: isolate"><tspan x="0" y="0">67%</tspan></text>
        </g>
      </g>
    </g>
    <g id="Group_4079" data-name="Group 4079">
      <path id="Path_11923" data-name="Path 11923" d="M-885.623,683.862v.021h10.936a43.06,43.06,0,0,0-20.253-36.57l-5.8,9.28A32.127,32.127,0,0,1-885.623,683.862Z" fill="#262626"/>
      <path id="Path_11924" data-name="Path 11924" d="M-949.934,683.879v-.024h-10.94v.024Z" fill="#262626"/>
    </g>
  </g>
</svg>
