<svg xmlns="http://www.w3.org/2000/svg" width="86.18" height="45.56" viewBox="0 0 86.18 45.56">
  <g id="Group_4215" data-name="Group 4215" transform="translate(783.287 -640.759)">
    <path id="Path_12029" data-name="Path 12029" d="M-740.2,651.706a31.987,31.987,0,0,1,17.035,4.887l5.8-9.28a40.719,40.719,0,0,0-22.836-6.548,43.091,43.091,0,0,0-43.091,43.092h10.94A32.155,32.155,0,0,1-740.2,651.706Z" fill="#ffd10f"/>
    <g id="Group_4129" data-name="Group 4129">
      <g id="Group_4424" data-name="Group 4424">
        <g id="Group_4559" data-name="Group 4559" style="isolation: isolate">
          <text id="_68_" data-name="68%" transform="translate(-754.041 683.319)" fill="#262625" font-size="12.797" font-family="Montserrat-Bold, Montserrat" font-weight="700" style="isolation: isolate"><tspan x="0" y="0">68%</tspan></text>
        </g>
      </g>
    </g>
    <g id="Group_4130" data-name="Group 4130">
      <path id="Path_11923-2" data-name="Path 11923-2" d="M-708.039,683.862v.021h10.932a43.06,43.06,0,0,0-20.253-36.57l-5.8,9.28A32.127,32.127,0,0,1-708.039,683.862Z" fill="#262626"/>
      <path id="Path_11924-2" data-name="Path 11924-2" d="M-772.35,683.879v-.024h-10.937v.024Z" fill="#262626"/>
    </g>
  </g>
</svg>
