<svg xmlns="http://www.w3.org/2000/svg" width="86.182" height="45.55" viewBox="0 0 86.182 45.55">
  <g id="Group_4217" data-name="Group 4217" transform="translate(960.876 -513.28)">
    <path id="Path_11874" data-name="Path 11874" d="M-917.779,524.224a32,32,0,0,1,18.9,6.144l6.432-8.854a41.286,41.286,0,0,0-25.329-8.23,43.092,43.092,0,0,0-43.1,43.086v.007h10.94a32.155,32.155,0,0,1,32.157-32.153Z" fill="#ffd10f"/>
    <g id="Group_4059" data-name="Group 4059">
      <g id="Group_4427" data-name="Group 4427">
        <g id="Group_4562" data-name="Group 4562" style="isolation: isolate">
          <text id="_69_" data-name="69%" transform="translate(-931.542 555.83)" fill="#262625" font-size="12.797" font-family="Montserrat-Bold, Montserrat" font-weight="700" style="isolation: isolate"><tspan x="0" y="0">69%</tspan></text>
        </g>
      </g>
    </g>
    <g id="Group_4081" data-name="Group 4081">
      <path id="Path_11930" data-name="Path 11930" d="M-885.624,556.379h10.93a43.023,43.023,0,0,0-17.757-34.869l-6.432,8.854A32.1,32.1,0,0,1-885.624,556.379Z" fill="#262626"/>
      <path id="Path_11931" data-name="Path 11931" d="M-949.934,556.379h-10.94v.006Z" fill="#262626"/>
    </g>
  </g>
</svg>
