<svg xmlns="http://www.w3.org/2000/svg" width="86.182" height="45.55" viewBox="0 0 86.182 45.55">
  <g id="Group_4218" data-name="Group 4218" transform="translate(783.292 -513.28)">
    <path id="Path_12021" data-name="Path 12021" d="M-740.2,524.224a32,32,0,0,1,18.9,6.144l6.432-8.854a41.286,41.286,0,0,0-25.329-8.23,43.092,43.092,0,0,0-43.1,43.086v.007h10.94A32.155,32.155,0,0,1-740.2,524.224Z" fill="#ffd10f"/>
    <g id="Group_4122" data-name="Group 4122">
      <g id="Group_4428" data-name="Group 4428">
        <g id="Group_4563" data-name="Group 4563" style="isolation: isolate">
          <text id="_70_" data-name="70%" transform="translate(-753.99 555.83)" fill="#262625" font-size="12.797" font-family="Montserrat-Bold, Montserrat" font-weight="700" style="isolation: isolate"><tspan x="0" y="0">70%</tspan></text>
        </g>
      </g>
    </g>
    <g id="Group_4128" data-name="Group 4128">
      <path id="Path_11930-2" data-name="Path 11930-2" d="M-708.04,556.379h10.93a43.022,43.022,0,0,0-17.757-34.869l-6.432,8.854A32.1,32.1,0,0,1-708.04,556.379Z" fill="#262626"/>
      <path id="Path_11931-2" data-name="Path 11931-2" d="M-772.35,556.379h-10.937v.006Z" fill="#262626"/>
    </g>
  </g>
</svg>
