<svg xmlns="http://www.w3.org/2000/svg" width="86.184" height="45.536" viewBox="0 0 86.184 45.536">
  <g id="Group_4464" data-name="Group 4464" transform="translate(960.433 -386.012)">
    <path id="Path_11879" data-name="Path 11879" d="M-917.338,396.951A32.023,32.023,0,0,1-897.1,404.12l6.886-8.5a40.773,40.773,0,0,0-27.12-9.6,43.094,43.094,0,0,0-43.094,43.086h10.94a32.155,32.155,0,0,1,32.155-32.155Z" fill="#388032"/>
    <g id="Group_4060" data-name="Group 4060">
      <g id="Group_4448" data-name="Group 4448">
        <g id="Group_4583" data-name="Group 4583" style="isolation: isolate">
          <text id="_71_" data-name="71%" transform="translate(-929.488 428.548)" fill="#262625" font-size="12.797" font-family="Montserrat-Bold, Montserrat" font-weight="700" style="isolation: isolate"><tspan x="0" y="0">71%</tspan></text>
        </g>
      </g>
    </g>
    <path id="Path_11942" data-name="Path 11942" d="M-885.183,429.043h10.934a43,43,0,0,0-15.969-33.425l-6.887,8.5A32.092,32.092,0,0,1-885.183,429.043Z" fill="#262626"/>
  </g>
</svg>
