<svg xmlns="http://www.w3.org/2000/svg" width="86.179" height="45.536" viewBox="0 0 86.179 45.536">
  <g id="Group_4465" data-name="Group 4465" transform="translate(782.849 -386.012)">
    <path id="Path_12022" data-name="Path 12022" d="M-739.754,396.951a32.023,32.023,0,0,1,20.233,7.169l6.886-8.5a40.773,40.773,0,0,0-27.12-9.6,43.094,43.094,0,0,0-43.094,43.086h10.94A32.155,32.155,0,0,1-739.754,396.951Z" fill="#388032"/>
    <g id="Group_4123" data-name="Group 4123">
      <g id="Group_4449" data-name="Group 4449">
        <g id="Group_4584" data-name="Group 4584" style="isolation: isolate">
          <text id="_72_" data-name="72%" transform="translate(-753.17 428.548)" fill="#262625" font-size="12.797" font-family="Montserrat-Bold, Montserrat" font-weight="700" style="isolation: isolate"><tspan x="0" y="0">72%</tspan></text>
        </g>
      </g>
    </g>
    <path id="Path_12027" data-name="Path 12027" d="M-707.6,429.043h10.929a43,43,0,0,0-15.968-33.425l-6.887,8.5A32.091,32.091,0,0,1-707.6,429.043Z" fill="#262626"/>
  </g>
</svg>
