<svg xmlns="http://www.w3.org/2000/svg" width="86.178" height="45.531" viewBox="0 0 86.178 45.531">
  <g id="Group_4463" data-name="Group 4463" transform="translate(960.433 -258.528)">
    <path id="Path_11884" data-name="Path 11884" d="M-917.338,269.472a32.037,32.037,0,0,1,21.925,8.644l7.465-8.005a41.288,41.288,0,0,0-29.39-11.577,43.094,43.094,0,0,0-43.095,43.091h10.94A32.156,32.156,0,0,1-917.338,269.472Z" fill="#388032"/>
    <g id="Group_4061" data-name="Group 4061">
      <g id="Group_4450" data-name="Group 4450">
        <g id="Group_4585" data-name="Group 4585" style="isolation: isolate">
          <text id="_73_" data-name="73%" transform="translate(-930.594 301.059)" fill="#262625" font-size="12.797" font-family="Montserrat-Bold, Montserrat" font-weight="700" style="isolation: isolate"><tspan x="0" y="0">73%</tspan></text>
        </g>
      </g>
    </g>
    <path id="Path_11947" data-name="Path 11947" d="M-885.185,301.516h10.93a42.965,42.965,0,0,0-13.693-31.4l-7.465,8.005A32.059,32.059,0,0,1-885.185,301.516Z" fill="#262626"/>
  </g>
</svg>
