<svg xmlns="http://www.w3.org/2000/svg" width="86.184" height="45.531" viewBox="0 0 86.184 45.531">
  <g id="Group_4462" data-name="Group 4462" transform="translate(782.854 -258.528)">
    <path id="Path_12023" data-name="Path 12023" d="M-739.754,269.472a32.037,32.037,0,0,1,21.925,8.644l7.465-8.005a41.29,41.29,0,0,0-29.39-11.577,43.093,43.093,0,0,0-43.1,43.086v.005h10.94a32.156,32.156,0,0,1,32.157-32.153Z" fill="#388032"/>
    <g id="Group_4124" data-name="Group 4124">
      <g id="Group_4451" data-name="Group 4451">
        <g id="Group_4586" data-name="Group 4586" style="isolation: isolate">
          <text id="_74_" data-name="74%" transform="translate(-753.133 301.059)" fill="#262625" font-size="12.797" font-family="Montserrat-Bold, Montserrat" font-weight="700" style="isolation: isolate"><tspan x="0" y="0">74%</tspan></text>
        </g>
      </g>
    </g>
    <path id="Path_12028" data-name="Path 12028" d="M-707.6,301.516h10.931a42.968,42.968,0,0,0-13.692-31.4l-7.465,8.005A32.065,32.065,0,0,1-707.6,301.516Z" fill="#262626"/>
  </g>
</svg>
