<svg xmlns="http://www.w3.org/2000/svg" width="86.182" height="45.524" viewBox="0 0 86.182 45.524">
  <g id="Group_4459" data-name="Group 4459" transform="translate(960.433 -3.568)">
    <path id="Path_11894" data-name="Path 11894" d="M-917.338,14.515A32.084,32.084,0,0,1-892.709,26l8.383-7.034A41.373,41.373,0,0,0-917.338,3.576a43.1,43.1,0,0,0-43.095,43.093h10.94A32.156,32.156,0,0,1-917.338,14.515Z" fill="#388032"/>
    <g id="Group_4063" data-name="Group 4063">
      <g id="Group_4452" data-name="Group 4452">
        <g id="Group_4587" data-name="Group 4587" style="isolation: isolate">
          <text id="_77_" data-name="77%" transform="translate(-930.922 46.092)" fill="#262625" font-size="12.797" font-family="Montserrat-Bold, Montserrat" font-weight="700" style="isolation: isolate"><tspan x="0" y="0">77%</tspan></text>
        </g>
      </g>
    </g>
    <g id="Group_4085" data-name="Group 4085">
      <path id="Path_11954" data-name="Path 11954" d="M-885.183,46.71h10.932a42.9,42.9,0,0,0-10.075-27.74L-892.709,26a32.016,32.016,0,0,1,7.526,20.667Z" fill="#262626"/>
      <path id="Path_11955" data-name="Path 11955" d="M-949.492,46.71v-.039h-10.941v.04Z" fill="#262626"/>
    </g>
  </g>
</svg>
