<svg xmlns="http://www.w3.org/2000/svg" width="86.184" height="45.524" viewBox="0 0 86.184 45.524">
  <g id="Group_4458" data-name="Group 4458" transform="translate(782.854 -3.568)">
    <path id="Path_12025" data-name="Path 12025" d="M-739.754,14.515A32.084,32.084,0,0,1-715.125,26l8.382-7.034A41.37,41.37,0,0,0-739.754,3.576a43.1,43.1,0,0,0-43.1,43.093h10.94a32.155,32.155,0,0,1,32.156-32.154Z" fill="#388032"/>
    <g id="Group_4126" data-name="Group 4126">
      <g id="Group_4453" data-name="Group 4453">
        <g id="Group_4588" data-name="Group 4588" style="isolation: isolate">
          <text id="_78_" data-name="78%" transform="translate(-753.383 46.092)" fill="#262625" font-size="12.797" font-family="Montserrat-Bold, Montserrat" font-weight="700" style="isolation: isolate"><tspan x="0" y="0">78%</tspan></text>
        </g>
      </g>
    </g>
    <g id="Group_4121" data-name="Group 4121">
      <path id="Path_11954-2" data-name="Path 11954-2" d="M-707.6,46.71h10.929a42.892,42.892,0,0,0-10.075-27.74L-715.128,26A32.012,32.012,0,0,1-707.6,46.671Z" fill="#262626"/>
      <path id="Path_11955-2" data-name="Path 11955-2" d="M-771.907,46.71v-.039h-10.941v.04Z" fill="#262626"/>
    </g>
  </g>
</svg>
