<svg xmlns="http://www.w3.org/2000/svg" width="86.194" height="45.538" viewBox="0 0 86.194 45.538">
  <g id="Group_4470" data-name="Group 4470" transform="translate(591.763 -895.951)">
    <path id="Path_11860" data-name="Path 11860" d="M-548.664,906.9a32.148,32.148,0,0,1,28.121,16.559l9.566-5.3a41.912,41.912,0,0,0-37.693-22.2,43.092,43.092,0,0,0-43.093,43.092h10.942A32.155,32.155,0,0,1-548.67,906.9Z" fill="#388032"/>
    <g id="Group_4066" data-name="Group 4066">
      <g id="Group_4441" data-name="Group 4441">
        <g id="Group_4576" data-name="Group 4576" style="isolation: isolate">
          <text id="_83_" data-name="83%" transform="translate(-562.223 938.489)" fill="#262625" font-size="12.797" font-family="Montserrat-Bold, Montserrat" font-weight="700" style="isolation: isolate"><tspan x="0" y="0">83%</tspan></text>
        </g>
      </g>
    </g>
    <g id="Group_4075" data-name="Group 4075">
      <path id="Path_11906" data-name="Path 11906" d="M-516.509,939.057h10.94a42.918,42.918,0,0,0-5.4-20.9l-9.566,5.3a32,32,0,0,1,4.033,15.594Z" fill="#262626"/>
      <path id="Path_11907" data-name="Path 11907" d="M-580.819,939.057v-.008h-10.943v.008Z" fill="#262626"/>
    </g>
  </g>
</svg>
