<svg xmlns="http://www.w3.org/2000/svg" width="86.184" height="45.538" viewBox="0 0 86.184 45.538">
  <g id="Group_4471" data-name="Group 4471" transform="translate(400.67 -895.951)">
    <g id="Group_4468" data-name="Group 4468">
      <path id="Path_12047" data-name="Path 12047" d="M-357.575,906.9a32.144,32.144,0,0,1,28.12,16.559l9.566-5.3a41.907,41.907,0,0,0-37.691-22.2,43.094,43.094,0,0,0-43.09,43.094h10.943A32.154,32.154,0,0,1-357.573,906.9Z" fill="#388032"/>
      <g id="Group_4146" data-name="Group 4146">
        <g id="Group_4442" data-name="Group 4442">
          <g id="Group_4577" data-name="Group 4577" style="isolation: isolate">
            <text id="_84_" data-name="84%" transform="translate(-371.626 938.489)" fill="#262625" font-size="12.797" font-family="Montserrat-Bold, Montserrat" font-weight="700" style="isolation: isolate"><tspan x="0" y="0">84%</tspan></text>
          </g>
        </g>
      </g>
      <g id="Group_4147" data-name="Group 4147">
        <path id="Path_11906-2" data-name="Path 11906-2" d="M-325.42,939.057h10.934a42.875,42.875,0,0,0-5.4-20.9l-9.566,5.3a31.992,31.992,0,0,1,4.034,15.594Z" fill="#262626"/>
        <path id="Path_11907-2" data-name="Path 11907-2" d="M-389.731,939.057v-.008H-400.67v.008Z" fill="#262626"/>
      </g>
    </g>
  </g>
</svg>
