<svg xmlns="http://www.w3.org/2000/svg" width="86.187" height="45.549" viewBox="0 0 86.187 45.549">
  <g id="Group_4466" data-name="Group 4466" transform="translate(591.763 -640.978)">
    <path id="Path_11870" data-name="Path 11870" d="M-548.664,651.928a32.161,32.161,0,0,1,29.811,20.1l10.139-4.1c-6.776-16.77-21.868-26.95-39.956-26.95a43.092,43.092,0,0,0-43.093,43.093h10.944A32.154,32.154,0,0,1-548.664,651.928Z" fill="#388032"/>
    <g id="Group_4068" data-name="Group 4068">
      <g id="Group_4445" data-name="Group 4445">
        <g id="Group_4580" data-name="Group 4580" style="isolation: isolate">
          <text id="_87_" data-name="87%" transform="translate(-562.505 683.527)" fill="#262625" font-size="12.797" font-family="Montserrat-Bold, Montserrat" font-weight="700" style="isolation: isolate"><tspan x="0" y="0">87%</tspan></text>
        </g>
      </g>
    </g>
    <g id="Group_4080" data-name="Group 4080">
      <path id="Path_11925" data-name="Path 11925" d="M-516.509,684.091h10.933a42.971,42.971,0,0,0-3.138-16.157l-10.139,4.1a32.058,32.058,0,0,1,2.344,12.052Z" fill="#262626"/>
      <path id="Path_11926" data-name="Path 11926" d="M-580.819,684.091v-.013h-10.944v.013Z" fill="#262626"/>
    </g>
  </g>
</svg>
