<svg xmlns="http://www.w3.org/2000/svg" width="86.189" height="45.543" viewBox="0 0 86.189 45.543">
  <g id="Group_4237" data-name="Group 4237" transform="translate(591.769 -513.492)">
    <path id="Path_11875" data-name="Path 11875" d="M-548.67,524.439a32.164,32.164,0,0,1,30.579,22.212l10.4-3.379a42.418,42.418,0,0,0-40.985-29.777,43.092,43.092,0,0,0-43.093,43.093h10.944A32.155,32.155,0,0,1-548.67,524.439Z" fill="#008ebf"/>
    <g id="Group_4069" data-name="Group 4069">
      <g id="Group_4475" data-name="Group 4475">
        <g id="Group_4592" data-name="Group 4592" style="isolation: isolate">
          <text id="_89_" data-name="89%" transform="translate(-562.58 556.035)" fill="#262625" font-size="12.797" font-family="Montserrat-Bold, Montserrat" font-weight="700" style="isolation: isolate"><tspan x="0" y="0">89%</tspan></text>
        </g>
      </g>
    </g>
    <g id="Group_4082" data-name="Group 4082">
      <path id="Path_11932" data-name="Path 11932" d="M-505.58,556.587a43.08,43.08,0,0,0-2.111-13.317l-10.4,3.38a32.084,32.084,0,0,1,1.574,9.937Z" fill="#262626"/>
      <path id="Path_11933" data-name="Path 11933" d="M-580.825,556.587" fill="#262626"/>
    </g>
  </g>
</svg>
