<svg xmlns="http://www.w3.org/2000/svg" width="86.187" height="45.543" viewBox="0 0 86.187 45.543">
  <g id="Group_4238" data-name="Group 4238" transform="translate(400.678 -513.492)">
    <path id="Path_12045" data-name="Path 12045" d="M-357.581,524.439A32.165,32.165,0,0,1-327,546.651l10.4-3.379a42.418,42.418,0,0,0-40.985-29.777,43.093,43.093,0,0,0-43.093,43.093h10.944A32.155,32.155,0,0,1-357.581,524.439Z" fill="#008ebf"/>
    <g id="Group_4142" data-name="Group 4142">
      <g id="Group_4476" data-name="Group 4476">
        <g id="Group_4593" data-name="Group 4593" style="isolation: isolate">
          <text id="_90_" data-name="90%" transform="translate(-371.613 556.035)" fill="#262625" font-size="12.797" font-family="Montserrat-Bold, Montserrat" font-weight="700" style="isolation: isolate"><tspan x="0" y="0">90%</tspan></text>
        </g>
      </g>
    </g>
    <g id="Group_4144" data-name="Group 4144">
      <path id="Path_11932-2" data-name="Path 11932-2" d="M-314.491,556.587A43.047,43.047,0,0,0-316.6,543.27l-10.4,3.38a32.085,32.085,0,0,1,1.574,9.937Z" fill="#262626"/>
      <path id="Path_11933-2" data-name="Path 11933-2" d="M-389.736,556.587" fill="#262626"/>
    </g>
  </g>
</svg>
