<svg xmlns="http://www.w3.org/2000/svg" width="86.181" height="45.531" viewBox="0 0 86.181 45.531">
  <g id="Group_4250" data-name="Group 4250" transform="translate(591.766 -131.038)">
    <g id="Group_4243" data-name="Group 4243">
      <path id="Path_11890" data-name="Path 11890" d="M-548.67,141.984a32.159,32.159,0,0,1,31.838,27.679L-506,168.141a42.486,42.486,0,0,0-42.675-37.1,43.092,43.092,0,0,0-43.093,43.093h0v.006h10.941a32.155,32.155,0,0,1,32.155-32.155Z" fill="#008ebf"/>
      <g id="Group_4072" data-name="Group 4072">
        <g id="Group_4477" data-name="Group 4477">
          <g id="Group_4594" data-name="Group 4594" style="isolation: isolate">
            <text id="_95_" data-name="95%" transform="translate(-562.099 173.569)" fill="#262625" font-size="12.797" font-family="Montserrat-Bold, Montserrat" font-weight="700" style="isolation: isolate"><tspan x="0" y="0">95%</tspan></text>
          </g>
        </g>
      </g>
      <path id="Path_11938" data-name="Path 11938" d="M-505.585,174.087a43.326,43.326,0,0,0-.413-5.946l-10.834,1.522a32.417,32.417,0,0,1,.315,4.424Z" fill="#262626"/>
    </g>
  </g>
</svg>
