<svg xmlns="http://www.w3.org/2000/svg" width="86.186" height="45.531" viewBox="0 0 86.186 45.531">
  <g id="Group_4249" data-name="Group 4249" transform="translate(400.677 -131.038)">
    <g id="Group_4244" data-name="Group 4244">
      <path id="Path_12037" data-name="Path 12037" d="M-357.581,141.984a32.158,32.158,0,0,1,31.838,27.679l10.834-1.522a42.486,42.486,0,0,0-42.675-37.1,43.093,43.093,0,0,0-43.093,43.093v.006h10.941a32.155,32.155,0,0,1,32.155-32.155Z" fill="#008ebf"/>
      <g id="Group_4138" data-name="Group 4138">
        <g id="Group_4478" data-name="Group 4478">
          <g id="Group_4595" data-name="Group 4595" style="isolation: isolate">
            <text id="_96_" data-name="96%" transform="translate(-371.215 173.569)" fill="#262625" font-size="12.797" font-family="Montserrat-Bold, Montserrat" font-weight="700" style="isolation: isolate"><tspan x="0" y="0">96%</tspan></text>
          </g>
        </g>
      </g>
      <path id="Path_12038" data-name="Path 12038" d="M-314.491,174.087a43.326,43.326,0,0,0-.413-5.946l-10.834,1.522a32.1,32.1,0,0,1,.315,4.424Z" fill="#262626"/>
    </g>
  </g>
</svg>
