<svg xmlns="http://www.w3.org/2000/svg" width="86.19" height="86.194" viewBox="0 0 86.19 86.194">
  <g id="Group_3933" data-name="Group 3933" transform="translate(9616 2467)">
    <g id="Group_3923" data-name="Group 3923">
      <g id="Group_3812" data-name="Group 3812" transform="translate(-9663.447 -2504.252)">
        <path id="Path_11831" data-name="Path 11831" d="M55.677,55.019a41.3,41.3,0,0,0-8.23,25.33h10.94a32,32,0,0,1,6.145-18.9Z" fill="#388032"/>
        <path id="Path_11832" data-name="Path 11832" d="M115.871,45.485a43.094,43.094,0,0,0-60.194,9.534l8.855,6.433a32.148,32.148,0,1,1-6.145,18.9H47.447a41.789,41.789,0,0,0,17.764,34.863,43.094,43.094,0,0,0,50.66-69.727Z" fill="#ecebeb"/>
      </g>
      <g id="Group_3832" data-name="Group 3832" transform="translate(-9663.447 -2504.252)" style="isolation: isolate">
        <text id="_10_" data-name="10%" transform="translate(90.547 83.773)" fill="#fff" font-size="12.797" font-family="Montserrat-Bold, Montserrat" font-weight="700" style="isolation: isolate"><tspan x="-12.464" y="0">10%</tspan></text>
      </g>
    </g>
  </g>
</svg>
