<svg xmlns="http://www.w3.org/2000/svg" width="86.188" height="86.19" viewBox="0 0 86.188 86.19">
  <g id="Group_3943" data-name="Group 3943" transform="translate(9484.412 1319.654)">
    <g id="Group_3723" data-name="Group 3723" transform="translate(-9663.447 -2504.252)">
      <path id="Path_11653" data-name="Path 11653" d="M197.488,1207.739l-8.849-7.166a40.772,40.772,0,0,0-9.6,27.12h11.336A32.011,32.011,0,0,1,197.488,1207.739Z" fill="#388032"/>
      <path id="Path_11654" data-name="Path 11654" d="M249.248,1194.2a43.092,43.092,0,0,0-60.609,6.37l8.849,7.166a32.148,32.148,0,1,1-7.123,20.173c0-.073,0-.146.006-.219H179.035a42.142,42.142,0,0,0,15.974,33.49,43.093,43.093,0,1,0,54.239-66.98Z" fill="#ecebeb"/>
    </g>
    <g id="Group_3833" data-name="Group 3833" transform="translate(-9663.447 -2504.252)" style="isolation: isolate">
      <text id="_11_" data-name="11%" transform="translate(222.529 1230.9)" fill="#fff" font-size="12.797" font-family="Montserrat-Bold, Montserrat" font-weight="700" style="isolation: isolate"><tspan x="-10.628" y="0">11%</tspan></text>
    </g>
  </g>
</svg>
