<svg xmlns="http://www.w3.org/2000/svg" width="86.188" height="86.188" viewBox="0 0 86.188 86.188">
  <g id="Group_3942" data-name="Group 3942" transform="translate(9484.021 1447.126)">
    <g id="Group_3733" data-name="Group 3733" transform="translate(-9663.447 -2504.252)">
      <path id="Path_11673" data-name="Path 11673" d="M191,1070.83a41.29,41.29,0,0,0-11.577,29.39h10.939a32.033,32.033,0,0,1,8.643-21.925Z" fill="#388032"/>
      <path id="Path_11674" data-name="Path 11674" d="M251.911,1068.7A43.093,43.093,0,0,0,191,1070.83l8.005,7.465a32.148,32.148,0,1,1-8.643,21.925H179.427a41.739,41.739,0,0,0,13.7,31.516,43.094,43.094,0,0,0,58.78-63.033Z" fill="#ecebeb"/>
    </g>
    <g id="Group_3834" data-name="Group 3834" transform="translate(-9663.447 -2504.252)" style="isolation: isolate">
      <text id="_12_" data-name="12%" transform="translate(222.529 1103.646)" fill="#fff" font-size="12.797" font-family="Montserrat-Bold, Montserrat" font-weight="700" style="isolation: isolate"><tspan x="-11.959" y="0">12%</tspan></text>
    </g>
  </g>
</svg>
