<svg xmlns="http://www.w3.org/2000/svg" width="86.188" height="86.188" viewBox="0 0 86.188 86.188">
  <g id="Group_3941" data-name="Group 3941" transform="translate(9484.018 1574.598)">
    <g id="Group_3743" data-name="Group 3743" transform="translate(-9663.447 -2504.252)">
      <path id="Path_11693" data-name="Path 11693" d="M200.192,949.623l-7.6-7.874a40.9,40.9,0,0,0-13.158,31h10.938A32.054,32.054,0,0,1,200.192,949.623Z" fill="#388032"/>
      <path id="Path_11694" data-name="Path 11694" d="M253.522,942.812a43.093,43.093,0,0,0-60.934-1.063l7.6,7.874a32.147,32.147,0,1,1-9.824,23.125H179.43a42.2,42.2,0,0,0,12.094,29.935,43.094,43.094,0,1,0,62-59.871Z" fill="#ecebeb"/>
    </g>
    <g id="Group_3835" data-name="Group 3835" transform="translate(-9663.447 -2504.252)" style="isolation: isolate">
      <text id="_13_" data-name="13%" transform="translate(222.536 976.169)" fill="#fff" font-size="12.797" font-family="Montserrat-Bold, Montserrat" font-weight="700" style="isolation: isolate"><tspan x="-11.843" y="0">13%</tspan></text>
    </g>
  </g>
</svg>
