<svg xmlns="http://www.w3.org/2000/svg" width="86.188" height="86.19" viewBox="0 0 86.188 86.19">
  <g id="Group_3940" data-name="Group 3940" transform="translate(9484.015 1702.072)">
    <g id="Group_3753" data-name="Group 3753" transform="translate(-9663.447 -2504.252)">
      <path id="Path_11713" data-name="Path 11713" d="M201.861,820.646l-7.035-8.383a41.372,41.372,0,0,0-15.393,33.012h10.939A32.084,32.084,0,0,1,201.861,820.646Z" fill="#388032"/>
      <path id="Path_11714" data-name="Path 11714" d="M255.538,817.575a43.094,43.094,0,0,0-60.712-5.312l7.035,8.383a32.151,32.151,0,1,1-11.489,24.629H179.433a41.774,41.774,0,0,0,10.082,27.7,43.093,43.093,0,1,0,66.023-55.4Z" fill="#ecebeb"/>
    </g>
    <g id="Group_3836" data-name="Group 3836" transform="translate(-9663.447 -2504.252)" style="isolation: isolate">
      <text id="_14_" data-name="14%" transform="translate(222.529 848.684)" fill="#fff" font-size="12.797" font-family="Montserrat-Bold, Montserrat" font-weight="700" style="isolation: isolate"><tspan x="-12.336" y="0">14%</tspan></text>
    </g>
  </g>
</svg>
