<svg xmlns="http://www.w3.org/2000/svg" width="86.191" height="86.194" viewBox="0 0 86.191 86.194">
  <g id="Group_3939" data-name="Group 3939" transform="translate(9484.014 1829.55)">
    <g id="Group_3763" data-name="Group 3763" transform="translate(-9663.447 -2504.252)">
      <path id="Path_11733" data-name="Path 11733" d="M203.631,691.79l-6.433-8.855A41.792,41.792,0,0,0,179.434,717.8h10.94A32.1,32.1,0,0,1,203.631,691.79Z" fill="#388032"/>
      <path id="Path_11734" data-name="Path 11734" d="M257.391,692.469a43.094,43.094,0,0,0-60.193-9.534l6.433,8.855A32.151,32.151,0,1,1,190.374,717.8h-10.94a41.3,41.3,0,0,0,8.23,25.33,43.094,43.094,0,1,0,69.727-50.66Z" fill="#ecebeb"/>
    </g>
    <g id="Group_3837" data-name="Group 3837" transform="translate(-9663.447 -2504.252)" style="isolation: isolate">
      <text id="_15_" data-name="15%" transform="translate(222.529 721.195)" fill="#fff" font-size="12.797" font-family="Montserrat-Bold, Montserrat" font-weight="700" style="isolation: isolate"><tspan x="-11.863" y="0">15%</tspan></text>
    </g>
  </g>
</svg>
