<svg xmlns="http://www.w3.org/2000/svg" width="86.193" height="86.198" viewBox="0 0 86.193 86.198">
  <g id="Group_3938" data-name="Group 3938" transform="translate(9484.014 1957.032)">
    <g id="Group_3773" data-name="Group 3773" transform="translate(-9663.447 -2504.252)">
      <path id="Path_11753" data-name="Path 11753" d="M205.018,563.357l-5.961-9.179c-12.774,8.3-19.623,20.909-19.623,36.141h10.941A32.12,32.12,0,0,1,205.018,563.357Z" fill="#388032"/>
      <path id="Path_11754" data-name="Path 11754" d="M258.669,566.849a43.093,43.093,0,0,0-59.612-12.671l5.961,9.179a32.152,32.152,0,1,1-14.643,26.962H179.434a41.957,41.957,0,0,0,6.952,23.471,43.094,43.094,0,1,0,72.283-46.941Z" fill="#ecebeb"/>
    </g>
    <g id="Group_3838" data-name="Group 3838" transform="translate(-9663.447 -2504.252)" style="isolation: isolate">
      <text id="_16_" data-name="16%" transform="translate(222.529 593.705)" fill="#fff" font-size="12.797" font-family="Montserrat-Bold, Montserrat" font-weight="700" style="isolation: isolate"><tspan x="-12.067" y="0">16%</tspan></text>
    </g>
  </g>
</svg>
