<svg xmlns="http://www.w3.org/2000/svg" width="86.195" height="86.204" viewBox="0 0 86.195 86.204">
  <g id="Group_3937" data-name="Group 3937" transform="translate(9484.015 2084.519)">
    <g id="Group_3783" data-name="Group 3783" transform="translate(-9663.447 -2504.252)">
      <path id="Path_11773" data-name="Path 11773" d="M206.938,434.713l-5.3-9.569a41.9,41.9,0,0,0-22.2,37.691h10.942A32.143,32.143,0,0,1,206.938,434.713Z" fill="#388032"/>
      <path id="Path_11774" data-name="Path 11774" d="M260.217,441.942a43.093,43.093,0,0,0-58.583-16.8l5.3,9.569a32.155,32.155,0,1,1-16.563,28.122H179.433a41.408,41.408,0,0,0,5.4,20.892,43.094,43.094,0,0,0,75.381-41.785Z" fill="#ecebeb"/>
    </g>
    <g id="Group_3839" data-name="Group 3839" transform="translate(-9663.447 -2504.252)" style="isolation: isolate">
      <text id="_17_" data-name="17%" transform="translate(222.529 466.216)" fill="#fff" font-size="12.797" font-family="Montserrat-Bold, Montserrat" font-weight="700" style="isolation: isolate"><tspan x="-12.125" y="0">17%</tspan></text>
    </g>
  </g>
</svg>
