<svg xmlns="http://www.w3.org/2000/svg" width="86.197" height="86.207" viewBox="0 0 86.197 86.207">
  <g id="Group_3936" data-name="Group 3936" transform="translate(9484.017 2212.01)">
    <g id="Group_3793" data-name="Group 3793" transform="translate(-9663.447 -2504.252)">
      <path id="Path_11793" data-name="Path 11793" d="M261.257,316.454a43.093,43.093,0,0,0-57.623-19.841l4.794,9.83a32.157,32.157,0,1,1-18.054,28.9H179.431a42.356,42.356,0,0,0,4.361,18.891,43.094,43.094,0,1,0,77.465-37.782Z" fill="#ecebeb"/>
      <path id="Path_11794" data-name="Path 11794" d="M208.428,306.443l-4.794-9.83c-15.4,7.512-24.2,21.6-24.2,38.732h10.943A32.154,32.154,0,0,1,208.428,306.443Z" fill="#388032"/>
    </g>
    <g id="Group_3840" data-name="Group 3840" transform="translate(-9663.447 -2504.252)" style="isolation: isolate">
      <text id="_18_" data-name="18%" transform="translate(222.529 338.73)" fill="#fff" font-size="12.797" font-family="Montserrat-Bold, Montserrat" font-weight="700" style="isolation: isolate"><tspan x="-12.279" y="0">18%</tspan></text>
    </g>
  </g>
</svg>
