<svg xmlns="http://www.w3.org/2000/svg" width="86.199" height="86.21" viewBox="0 0 86.199 86.21">
  <g id="Group_3935" data-name="Group 3935" transform="translate(9484.02 2339.505)">
    <g id="Group_3803" data-name="Group 3803" transform="translate(-9663.447 -2504.252)">
      <path id="Path_11813" data-name="Path 11813" d="M262.478,191.709a43.1,43.1,0,0,0-56.1-23.813l4.1,10.144a32.156,32.156,0,1,1-20.105,29.812H179.428a41.76,41.76,0,0,0,3.138,16.143,43.094,43.094,0,0,0,79.912-32.286Z" fill="#ecebeb"/>
      <path id="Path_11814" data-name="Path 11814" d="M210.477,178.04l-4.1-10.144c-16.771,6.776-26.951,21.868-26.951,39.956h10.944A32.16,32.16,0,0,1,210.477,178.04Z" fill="#388032"/>
    </g>
    <g id="Group_3841" data-name="Group 3841" transform="translate(-9663.447 -2504.252)" style="isolation: isolate">
      <text id="_19_" data-name="19%" transform="translate(222.529 211.249)" fill="#fff" font-size="12.797" font-family="Montserrat-Bold, Montserrat" font-weight="700" style="isolation: isolate"><tspan x="-12.195" y="0">19%</tspan></text>
    </g>
  </g>
</svg>
