<svg xmlns="http://www.w3.org/2000/svg" width="86.199" height="86.211" viewBox="0 0 86.199 86.211">
  <g id="Group_3934" data-name="Group 3934" transform="translate(9484.021 2467)">
    <g id="Group_3813" data-name="Group 3813" transform="translate(-9663.447 -2504.252)">
      <path id="Path_11833" data-name="Path 11833" d="M212.583,49.776l-3.38-10.4a42.416,42.416,0,0,0-29.777,40.984H190.37A32.165,32.165,0,0,1,212.583,49.776Z" fill="#388032"/>
      <path id="Path_11834" data-name="Path 11834" d="M263.5,67.041a43.094,43.094,0,0,0-54.3-27.668l3.38,10.4A32.156,32.156,0,1,1,190.37,80.357H179.426a40.962,40.962,0,0,0,2.109,13.317A43.094,43.094,0,1,0,263.5,67.041Z" fill="#ecebeb"/>
    </g>
    <g id="Group_3842" data-name="Group 3842" transform="translate(-9663.447 -2504.252)" style="isolation: isolate">
      <text id="_20_" data-name="20%" transform="translate(222.529 83.773)" fill="#fff" font-size="12.797" font-family="Montserrat-Bold, Montserrat" font-weight="700" style="isolation: isolate"><tspan x="-13.718" y="0">20%</tspan></text>
    </g>
  </g>
</svg>
