<svg xmlns="http://www.w3.org/2000/svg" width="86.198" height="86.209" viewBox="0 0 86.198 86.209">
  <g id="Group_3944" data-name="Group 3944" transform="translate(9352.034 1319.673)">
    <g id="Group_3724" data-name="Group 3724" transform="translate(-9663.447 -2504.252)">
      <path id="Path_11655" data-name="Path 11655" d="M396.132,1216.53a43.094,43.094,0,0,0-52.779-30.472l2.928,10.925a32.154,32.154,0,1,1-23.365,30.929c0-.077.006-.152.006-.228H311.413a42.6,42.6,0,0,0,1.469,11.153,43.093,43.093,0,1,0,83.25-22.307Z" fill="#ecebeb"/>
      <path id="Path_11656" data-name="Path 11656" d="M346.281,1196.983l-2.928-10.925c-19.31,5.175-31.94,21.634-31.94,41.626h11.509A32.16,32.16,0,0,1,346.281,1196.983Z" fill="#388032"/>
    </g>
    <g id="Group_3843" data-name="Group 3843" transform="translate(-9663.447 -2504.252)" style="isolation: isolate">
      <text id="_21_" data-name="21%" transform="translate(354.512 1230.9)" fill="#fff" font-size="12.797" font-family="Montserrat-Bold, Montserrat" font-weight="700" style="isolation: isolate"><tspan x="-11.895" y="0">21%</tspan></text>
    </g>
  </g>
</svg>
