<svg xmlns="http://www.w3.org/2000/svg" width="86.195" height="86.204" viewBox="0 0 86.195 86.204">
  <g id="Group_3945" data-name="Group 3945" transform="translate(9352.032 1447.163)">
    <g id="Group_3734" data-name="Group 3734" transform="translate(-9663.447 -2504.252)">
      <path id="Path_11675" data-name="Path 11675" d="M396.81,1091.969a43.094,43.094,0,0,0-50.524-34.08l2.087,10.739a32.155,32.155,0,1,1-26.016,31.563H311.415a41.646,41.646,0,0,0,.791,8.223,43.094,43.094,0,0,0,84.6-16.445Z" fill="#ecebeb"/>
      <path id="Path_11676" data-name="Path 11676" d="M348.373,1068.628l-2.087-10.739a42.6,42.6,0,0,0-34.871,42.3h10.942A32.162,32.162,0,0,1,348.373,1068.628Z" fill="#388032"/>
    </g>
    <g id="Group_3844" data-name="Group 3844" transform="translate(-9663.447 -2504.252)" style="isolation: isolate">
      <text id="_22_" data-name="22%" transform="translate(354.512 1103.646)" fill="#fff" font-size="12.797" font-family="Montserrat-Bold, Montserrat" font-weight="700" style="isolation: isolate"><tspan x="-13.225" y="0">22%</tspan></text>
    </g>
  </g>
</svg>
