<svg xmlns="http://www.w3.org/2000/svg" width="86.192" height="86.198" viewBox="0 0 86.192 86.198">
  <g id="Group_3946" data-name="Group 3946" transform="translate(9352.031 1574.647)">
    <g id="Group_3744" data-name="Group 3744" transform="translate(-9663.447 -2504.252)">
      <path id="Path_11695" data-name="Path 11695" d="M350.035,940.866l-1.523-10.836a42.481,42.481,0,0,0-37.1,42.674h10.941A32.157,32.157,0,0,1,350.035,940.866Z" fill="#388032"/>
      <path id="Path_11696" data-name="Path 11696" d="M397.184,966.707a43.094,43.094,0,0,0-48.672-36.677l1.523,10.836A32.153,32.153,0,1,1,322.357,972.7H311.416a45.423,45.423,0,0,0,.419,6,43.094,43.094,0,1,0,85.349-12Z" fill="#ecebeb"/>
    </g>
    <g id="Group_3845" data-name="Group 3845" transform="translate(-9663.447 -2504.252)" style="isolation: isolate">
      <text id="_23_" data-name="23%" transform="translate(354.519 976.169)" fill="#fff" font-size="12.797" font-family="Montserrat-Bold, Montserrat" font-weight="700" style="isolation: isolate"><tspan x="-13.11" y="0">23%</tspan></text>
    </g>
  </g>
</svg>
