<svg xmlns="http://www.w3.org/2000/svg" width="86.188" height="86.191" viewBox="0 0 86.188 86.191">
  <g id="Group_3947" data-name="Group 3947" transform="translate(9352.029 1702.124)">
    <g id="Group_3754" data-name="Group 3754" transform="translate(-9663.447 -2504.252)">
      <path id="Path_11715" data-name="Path 11715" d="M397.5,842.218a43.094,43.094,0,0,0-45.995-39.983l.764,10.92c.742-.051,1.488-.087,2.243-.087a32.156,32.156,0,1,1-32.155,32.156H311.418c0,.952.038,2.056.105,3.006a43.093,43.093,0,0,0,85.977-6.012Z" fill="#ecebeb"/>
      <path id="Path_11716" data-name="Path 11716" d="M352.269,813.155l-.764-10.92a42.8,42.8,0,0,0-40.087,42.989h10.939A32.151,32.151,0,0,1,352.269,813.155Z" fill="#388032"/>
    </g>
    <g id="Group_3846" data-name="Group 3846" transform="translate(-9663.447 -2504.252)" style="isolation: isolate">
      <text id="_24_" data-name="24%" transform="translate(354.513 848.684)" fill="#fff" font-size="12.797" font-family="Montserrat-Bold, Montserrat" font-weight="700" style="isolation: isolate"><tspan x="-13.539" y="0">24%</tspan></text>
    </g>
  </g>
</svg>
