<svg xmlns="http://www.w3.org/2000/svg" width="86.188" height="86.188" viewBox="0 0 86.188 86.188">
  <g id="Group_3949" data-name="Group 3949" transform="translate(9352.029 1957.072)">
    <g id="Group_3774" data-name="Group 3774" transform="translate(-9663.447 -2504.252)">
      <path id="Path_11755" data-name="Path 11755" d="M356.767,547.239l-.572,10.924a32.155,32.155,0,1,1-33.838,32.111H311.418a43.094,43.094,0,1,0,45.349-43.035Z" fill="#ecebeb"/>
      <path id="Path_11756" data-name="Path 11756" d="M354.512,558.119c.565,0,1.125.015,1.683.044l.572-10.924c-.951-.05-1.3-.059-2.255-.059a43.094,43.094,0,0,0-43.094,43.094h10.939A32.155,32.155,0,0,1,354.512,558.119Z" fill="#388032"/>
    </g>
    <g id="Group_3848" data-name="Group 3848" transform="translate(-9663.447 -2504.252)" style="isolation: isolate">
      <text id="_26_" data-name="26%" transform="translate(354.512 593.705)" fill="#fff" font-size="12.797" font-family="Montserrat-Bold, Montserrat" font-weight="700" style="isolation: isolate"><tspan x="-13.321" y="0">26%</tspan></text>
    </g>
  </g>
</svg>
