<svg xmlns="http://www.w3.org/2000/svg" width="86.192" height="86.192" viewBox="0 0 86.192 86.192">
  <g id="Group_3950" data-name="Group 3950" transform="translate(9352.031 2084.55)">
    <g id="Group_3784" data-name="Group 3784" transform="translate(-9663.447 -2504.252)">
      <path id="Path_11775" data-name="Path 11775" d="M354.512,430.642a32.441,32.441,0,0,1,3.916.246l1.334-10.865a39.746,39.746,0,0,0-5.252-.321A43.094,43.094,0,0,0,311.416,462.8h10.941A32.156,32.156,0,0,1,354.512,430.642Z" fill="#388032"/>
      <path id="Path_11776" data-name="Path 11776" d="M359.762,420.023l-1.334,10.865a32.152,32.152,0,1,1-36.071,31.91v0H311.416a43.094,43.094,0,1,0,48.346-42.773Z" fill="#ecebeb"/>
    </g>
    <g id="Group_3849" data-name="Group 3849" transform="translate(-9663.447 -2504.252)" style="isolation: isolate">
      <text id="_27_" data-name="27%" transform="translate(354.512 466.216)" fill="#fff" font-size="12.797" font-family="Montserrat-Bold, Montserrat" font-weight="700" style="isolation: isolate"><tspan x="-13.379" y="0">27%</tspan></text>
    </g>
  </g>
</svg>
