<svg xmlns="http://www.w3.org/2000/svg" width="86.195" height="86.195" viewBox="0 0 86.195 86.195">
  <g id="Group_3951" data-name="Group 3951" transform="translate(9352.032 2212.031)">
    <g id="Group_3794" data-name="Group 3794" transform="translate(-9663.447 -2504.252)">
      <path id="Path_11795" data-name="Path 11795" d="M361.992,292.876l-1.9,10.779a32.153,32.153,0,1,1-37.734,31.663v0H311.415a43.094,43.094,0,1,0,50.577-42.439Z" fill="#ecebeb"/>
      <path id="Path_11796" data-name="Path 11796" d="M354.512,303.163a32.354,32.354,0,0,1,5.579.492l1.9-10.779a37.871,37.871,0,0,0-7.483-.655,43.094,43.094,0,0,0-43.094,43.094h10.942A32.156,32.156,0,0,1,354.512,303.163Z" fill="#388032"/>
    </g>
    <g id="Group_3850" data-name="Group 3850" transform="translate(-9663.447 -2504.252)" style="isolation: isolate">
      <text id="_28_" data-name="28%" transform="translate(354.513 338.73)" fill="#fff" font-size="12.797" font-family="Montserrat-Bold, Montserrat" font-weight="700" style="isolation: isolate"><tspan x="-13.545" y="0">28%</tspan></text>
    </g>
  </g>
</svg>
