<svg xmlns="http://www.w3.org/2000/svg" width="86.198" height="86.198" viewBox="0 0 86.198 86.198">
  <g id="Group_3953" data-name="Group 3953" transform="translate(9352.034 2339.515)">
    <g id="Group_3804" data-name="Group 3804" transform="translate(-9663.447 -2504.252)">
      <path id="Path_11815" data-name="Path 11815" d="M364.933,166.017l-2.647,10.616a32.156,32.156,0,1,1-39.929,31.2v-.005H311.413a43.094,43.094,0,1,0,53.52-41.814Z" fill="#ecebeb"/>
      <path id="Path_11816" data-name="Path 11816" d="M354.512,175.681a32.178,32.178,0,0,1,7.774.952l2.647-10.616a39.811,39.811,0,0,0-10.426-1.28,43.094,43.094,0,0,0-43.094,43.094h10.944A32.155,32.155,0,0,1,354.512,175.681Z" fill="#388032"/>
    </g>
    <g id="Group_3851" data-name="Group 3851" transform="translate(-9663.447 -2504.252)" style="isolation: isolate">
      <text id="_29_" data-name="29%" transform="translate(354.512 211.249)" fill="#fff" font-size="12.797" font-family="Montserrat-Bold, Montserrat" font-weight="700" style="isolation: isolate"><tspan x="-13.462" y="0">29%</tspan></text>
    </g>
  </g>
</svg>
