<svg xmlns="http://www.w3.org/2000/svg" width="86.199" height="86.199" viewBox="0 0 86.199 86.199">
  <g id="Group_3954" data-name="Group 3954" transform="translate(9352.034 2467)">
    <g id="Group_3814" data-name="Group 3814" transform="translate(-9663.447 -2504.252)">
      <path id="Path_11835" data-name="Path 11835" d="M354.512,48.2a32.111,32.111,0,0,1,9.93,1.57l3.381-10.4a40.96,40.96,0,0,0-13.316-2.109,43.094,43.094,0,0,0-43.094,43.094h10.944A32.155,32.155,0,0,1,354.512,48.2Z" fill="#388032"/>
      <path id="Path_11836" data-name="Path 11836" d="M367.823,39.361l-3.381,10.4a32.156,32.156,0,1,1-42.085,30.586v-.006H311.413A42.415,42.415,0,0,0,341.19,121.33a43.094,43.094,0,1,0,26.633-81.969Z" fill="#ecebeb"/>
    </g>
    <g id="Group_3852" data-name="Group 3852" transform="translate(-9663.447 -2504.252)" style="isolation: isolate">
      <text id="_30_" data-name="30%" transform="translate(354.513 83.773)" fill="#fff" font-size="12.797" font-family="Montserrat-Bold, Montserrat" font-weight="700" style="isolation: isolate"><tspan x="-13.744" y="0">30%</tspan></text>
    </g>
  </g>
</svg>
