<svg xmlns="http://www.w3.org/2000/svg" width="86.198" height="86.199" viewBox="0 0 86.198 86.199">
  <g id="Group_3955" data-name="Group 3955" transform="translate(9220.051 1319.663)">
    <g id="Group_3725" data-name="Group 3725" transform="translate(-9663.447 -2504.252)">
      <path id="Path_11657" data-name="Path 11657" d="M487.217,1195.757a32.1,32.1,0,0,1,10.811,1.868l3.9-10.174a39.893,39.893,0,0,0-15.444-2.862,43.093,43.093,0,0,0-43.093,43.094h11.672A32.152,32.152,0,0,1,487.217,1195.757Z" fill="#388032"/>
      <path id="Path_11658" data-name="Path 11658" d="M501.933,1187.451l-3.9,10.174a32.157,32.157,0,1,1-42.966,30.287c0-.077,0-.152.006-.229H443.4a42.608,42.608,0,0,0,27.65,40.231,43.094,43.094,0,1,0,30.887-80.463Z" fill="#ecebeb"/>
    </g>
    <g id="Group_3853" data-name="Group 3853" transform="translate(-9663.447 -2504.252)" style="isolation: isolate">
      <text id="_31_" data-name="31%" transform="translate(486.495 1230.9)" fill="#fff" font-size="12.797" font-family="Montserrat-Bold, Montserrat" font-weight="700" style="isolation: isolate"><tspan x="-11.907" y="0">31%</tspan></text>
    </g>
  </g>
</svg>
