<svg xmlns="http://www.w3.org/2000/svg" width="86.197" height="86.197" viewBox="0 0 86.197 86.197">
  <g id="Group_3956" data-name="Group 3956" transform="translate(9220.051 1447.151)">
    <g id="Group_3735" data-name="Group 3735" transform="translate(-9663.447 -2504.252)">
      <path id="Path_11677" data-name="Path 11677" d="M504.7,1061.138l-4.623,9.915A32.156,32.156,0,1,1,454.34,1100.2v-.005H443.4a42.271,42.271,0,0,0,24.882,39.056,43.094,43.094,0,1,0,36.424-78.112Z" fill="#ecebeb"/>
      <path id="Path_11678" data-name="Path 11678" d="M486.495,1068.044a32.038,32.038,0,0,1,13.584,3.009l4.623-9.915a40.754,40.754,0,0,0-18.212-4.037,43.093,43.093,0,0,0-43.094,43.093H454.34A32.156,32.156,0,0,1,486.495,1068.044Z" fill="#388032"/>
    </g>
    <g id="Group_3854" data-name="Group 3854" transform="translate(-9663.447 -2504.252)" style="isolation: isolate">
      <text id="_32_" data-name="32%" transform="translate(486.495 1103.646)" fill="#fff" font-size="12.797" font-family="Montserrat-Bold, Montserrat" font-weight="700" style="isolation: isolate"><tspan x="-13.206" y="0">32%</tspan></text>
    </g>
  </g>
</svg>
