<svg xmlns="http://www.w3.org/2000/svg" width="86.195" height="86.196" viewBox="0 0 86.195 86.196">
  <g id="Group_3957" data-name="Group 3957" transform="translate(9220.05 1574.638)">
    <g id="Group_3745" data-name="Group 3745" transform="translate(-9663.447 -2504.252)">
      <path id="Path_11697" data-name="Path 11697" d="M506.722,934.658l-5.136,9.659a32.155,32.155,0,1,1-47.246,28.395v0H443.4a42.524,42.524,0,0,0,22.863,38.049,43.094,43.094,0,0,0,40.462-76.1Z" fill="#ecebeb"/>
      <path id="Path_11698" data-name="Path 11698" d="M486.495,940.557a32,32,0,0,1,15.091,3.76l5.136-9.659a40.02,40.02,0,0,0-20.231-5.044A43.094,43.094,0,0,0,443.4,972.708H454.34A32.155,32.155,0,0,1,486.495,940.557Z" fill="#388032"/>
    </g>
    <g id="Group_3855" data-name="Group 3855" transform="translate(-9663.447 -2504.252)" style="isolation: isolate">
      <text id="_33_" data-name="33%" transform="translate(486.502 976.169)" fill="#fff" font-size="12.797" font-family="Montserrat-Bold, Montserrat" font-weight="700" style="isolation: isolate"><tspan x="-13.091" y="0">33%</tspan></text>
    </g>
  </g>
</svg>
