<svg xmlns="http://www.w3.org/2000/svg" width="86.192" height="86.193" viewBox="0 0 86.192 86.193">
  <g id="Group_3958" data-name="Group 3958" transform="translate(9220.048 1702.122)">
    <g id="Group_3755" data-name="Group 3755" transform="translate(-9663.447 -2504.252)">
      <path id="Path_11717" data-name="Path 11717" d="M509.328,808.678l-5.8,9.28a32.154,32.154,0,1,1-49.19,27.269v0H443.4a42.174,42.174,0,0,0,20.257,36.545,43.094,43.094,0,1,0,45.672-73.091Z" fill="#ecebeb"/>
      <path id="Path_11718" data-name="Path 11718" d="M486.495,813.071a31.994,31.994,0,0,1,17.035,4.887l5.8-9.28a40.716,40.716,0,0,0-22.836-6.548A43.093,43.093,0,0,0,443.4,845.224H454.34A32.155,32.155,0,0,1,486.495,813.071Z" fill="#388032"/>
    </g>
    <g id="Group_3856" data-name="Group 3856" transform="translate(-9663.447 -2504.252)" style="isolation: isolate">
      <text id="_34_" data-name="34%" transform="translate(486.495 848.684)" fill="#fff" font-size="12.797" font-family="Montserrat-Bold, Montserrat" font-weight="700" style="isolation: isolate"><tspan x="-13.616" y="0">34%</tspan></text>
    </g>
  </g>
</svg>
