<svg xmlns="http://www.w3.org/2000/svg" width="86.189" height="86.19" viewBox="0 0 86.189 86.19">
  <g id="Group_3959" data-name="Group 3959" transform="translate(9220.047 1829.603)">
    <g id="Group_3765" data-name="Group 3765" transform="translate(-9663.447 -2504.252)">
      <path id="Path_11737" data-name="Path 11737" d="M511.823,682.879l-6.432,8.854a32.153,32.153,0,1,1-51.051,26.011v0H443.4a41.792,41.792,0,0,0,17.764,34.864,43.093,43.093,0,0,0,50.659-69.727Z" fill="#ecebeb"/>
      <path id="Path_11738" data-name="Path 11738" d="M486.495,685.589a32,32,0,0,1,18.9,6.144l6.432-8.854a41.284,41.284,0,0,0-25.329-8.23A43.093,43.093,0,0,0,443.4,717.742h10.94A32.155,32.155,0,0,1,486.495,685.589Z" fill="#388032"/>
    </g>
    <g id="Group_3857" data-name="Group 3857" transform="translate(-9663.447 -2504.252)" style="isolation: isolate">
      <text id="_35_" data-name="35%" transform="translate(486.495 721.195)" fill="#fff" font-size="12.797" font-family="Montserrat-Bold, Montserrat" font-weight="700" style="isolation: isolate"><tspan x="-13.078" y="0">35%</tspan></text>
    </g>
  </g>
</svg>
