<svg xmlns="http://www.w3.org/2000/svg" width="86.188" height="86.189" viewBox="0 0 86.188 86.189">
  <g id="Group_3960" data-name="Group 3960" transform="translate(9220.046 1957.083)">
    <g id="Group_3775" data-name="Group 3775" transform="translate(-9663.447 -2504.252)">
      <path id="Path_11757" data-name="Path 11757" d="M513.614,556.773l-6.886,8.5a32.154,32.154,0,1,1-52.388,24.987H443.4a42.142,42.142,0,0,0,15.974,33.49,43.093,43.093,0,1,0,54.239-66.98Z" fill="#ecebeb"/>
      <path id="Path_11758" data-name="Path 11758" d="M486.495,558.108a32.021,32.021,0,0,1,20.233,7.169l6.886-8.5a40.772,40.772,0,0,0-27.12-9.6A43.093,43.093,0,0,0,443.4,590.263H454.34A32.155,32.155,0,0,1,486.495,558.108Z" fill="#388032"/>
    </g>
    <g id="Group_3858" data-name="Group 3858" transform="translate(-9663.447 -2504.252)" style="isolation: isolate">
      <text id="_36_" data-name="36%" transform="translate(486.495 593.705)" fill="#fff" font-size="12.797" font-family="Montserrat-Bold, Montserrat" font-weight="700" style="isolation: isolate"><tspan x="-13.347" y="0">36%</tspan></text>
    </g>
  </g>
</svg>
