<svg xmlns="http://www.w3.org/2000/svg" width="86.188" height="86.188" viewBox="0 0 86.188 86.188">
  <g id="Group_3961" data-name="Group 3961" transform="translate(9220.046 2084.561)">
    <g id="Group_3785" data-name="Group 3785" transform="translate(-9663.447 -2504.252)">
      <path id="Path_11777" data-name="Path 11777" d="M515.885,431.268l-7.465,8.005a32.152,32.152,0,1,1-54.08,23.512H443.4a41.741,41.741,0,0,0,13.7,31.517,43.094,43.094,0,1,0,58.78-63.033Z" fill="#ecebeb"/>
      <path id="Path_11778" data-name="Path 11778" d="M486.495,430.629a32.034,32.034,0,0,1,21.925,8.644l7.465-8.005a41.29,41.29,0,0,0-29.39-11.577A43.093,43.093,0,0,0,443.4,462.784H454.34A32.155,32.155,0,0,1,486.495,430.629Z" fill="#388032"/>
    </g>
    <g id="Group_3859" data-name="Group 3859" transform="translate(-9663.447 -2504.252)" style="isolation: isolate">
      <text id="_37_" data-name="37%" transform="translate(486.495 466.216)" fill="#fff" font-size="12.797" font-family="Montserrat-Bold, Montserrat" font-weight="700" style="isolation: isolate"><tspan x="-13.347" y="0">37%</tspan></text>
    </g>
  </g>
</svg>
