<svg xmlns="http://www.w3.org/2000/svg" width="86.188" height="86.187" viewBox="0 0 86.188 86.187">
  <g id="Group_3962" data-name="Group 3962" transform="translate(9220.046 2212.039)">
    <g id="Group_3795" data-name="Group 3795" transform="translate(-9663.447 -2504.252)">
      <path id="Path_11797" data-name="Path 11797" d="M517.494,305.371l-7.874,7.6a32.152,32.152,0,1,1-55.28,22.331H443.4a42.2,42.2,0,0,0,12.1,29.936,43.094,43.094,0,0,0,62-59.871Z" fill="#ecebeb"/>
      <path id="Path_11798" data-name="Path 11798" d="M486.495,303.151a32.054,32.054,0,0,1,23.125,9.824l7.874-7.6a40.9,40.9,0,0,0-31-13.158A43.093,43.093,0,0,0,443.4,335.306H454.34A32.155,32.155,0,0,1,486.495,303.151Z" fill="#388032"/>
    </g>
    <g id="Group_3860" data-name="Group 3860" transform="translate(-9663.447 -2504.252)" style="isolation: isolate">
      <text id="_38_" data-name="38%" transform="translate(486.496 338.73)" fill="#fff" font-size="12.797" font-family="Montserrat-Bold, Montserrat" font-weight="700" style="isolation: isolate"><tspan x="-13.558" y="0">38%</tspan></text>
    </g>
  </g>
</svg>
