<svg xmlns="http://www.w3.org/2000/svg" width="86.188" height="86.189" viewBox="0 0 86.188 86.189">
  <g id="Group_3963" data-name="Group 3963" transform="translate(9220.046 2339.519)">
    <g id="Group_3805" data-name="Group 3805" transform="translate(-9663.447 -2504.252)">
      <path id="Path_11817" data-name="Path 11817" d="M519.506,180.127l-8.382,7.034a32.154,32.154,0,1,1-56.784,20.667H443.4a41.779,41.779,0,0,0,10.082,27.7,43.093,43.093,0,1,0,66.023-55.4Z" fill="#ecebeb"/>
      <path id="Path_11818" data-name="Path 11818" d="M486.495,175.672a32.084,32.084,0,0,1,24.629,11.489l8.382-7.034a41.368,41.368,0,0,0-33.011-15.394A43.094,43.094,0,0,0,443.4,207.827H454.34A32.155,32.155,0,0,1,486.495,175.672Z" fill="#388032"/>
    </g>
    <g id="Group_3861" data-name="Group 3861" transform="translate(-9663.447 -2504.252)" style="isolation: isolate">
      <text id="_39_" data-name="39%" transform="translate(486.495 211.249)" fill="#fff" font-size="12.797" font-family="Montserrat-Bold, Montserrat" font-weight="700" style="isolation: isolate"><tspan x="-13.475" y="0">39%</tspan></text>
    </g>
  </g>
</svg>
