<svg xmlns="http://www.w3.org/2000/svg" width="86.189" height="86.191" viewBox="0 0 86.189 86.191">
  <g id="Group_3964" data-name="Group 3964" transform="translate(9220.047 2467)">
    <g id="Group_3815" data-name="Group 3815" transform="translate(-9663.447 -2504.252)">
      <path id="Path_11837" data-name="Path 11837" d="M521.357,55.016,512.5,61.448a32.153,32.153,0,1,1-58.164,18.9H443.4a41.289,41.289,0,0,0,8.23,25.33,43.094,43.094,0,0,0,69.727-50.66Z" fill="#ecebeb"/>
      <path id="Path_11838" data-name="Path 11838" d="M486.495,48.192A32.106,32.106,0,0,1,512.5,61.448l8.853-6.432a41.789,41.789,0,0,0-34.863-17.764A43.094,43.094,0,0,0,443.4,80.346h10.94A32.156,32.156,0,0,1,486.495,48.192Z" fill="#388032"/>
    </g>
    <g id="Group_3862" data-name="Group 3862" transform="translate(-9663.447 -2504.252)" style="isolation: isolate">
      <text id="_40_" data-name="40%" transform="translate(486.495 83.773)" fill="#fff" font-size="12.797" font-family="Montserrat-Bold, Montserrat" font-weight="700" style="isolation: isolate"><tspan x="-14.364" y="0">40%</tspan></text>
    </g>
  </g>
</svg>
