<svg xmlns="http://www.w3.org/2000/svg" width="86.192" height="86.192" viewBox="0 0 86.192 86.192">
  <g id="Group_3974" data-name="Group 3974" transform="translate(9088.071 1319.656)">
    <g id="Group_3726" data-name="Group 3726" transform="translate(-9663.447 -2504.252)">
      <path id="Path_11659" data-name="Path 11659" d="M654.611,1204.219l-9.177,5.96a32.153,32.153,0,1,1-59.117,17.513v0H575.376a41.958,41.958,0,0,0,6.952,23.471,43.094,43.094,0,1,0,72.283-46.941Z" fill="#ecebeb"/>
      <path id="Path_11660" data-name="Path 11660" d="M618.472,1195.537a32.119,32.119,0,0,1,26.962,14.642l9.177-5.96c-8.3-12.775-20.909-19.623-36.141-19.623a43.093,43.093,0,0,0-43.094,43.093h10.941A32.155,32.155,0,0,1,618.472,1195.537Z" fill="#388032"/>
    </g>
    <g id="Group_3863" data-name="Group 3863" transform="translate(-9663.447 -2504.252)" style="isolation: isolate">
      <text id="_41_" data-name="41%" transform="translate(618.472 1230.9)" fill="#fff" font-size="12.797" font-family="Montserrat-Bold, Montserrat" font-weight="700" style="isolation: isolate"><tspan x="-12.368" y="0">41%</tspan></text>
    </g>
  </g>
</svg>
