<svg xmlns="http://www.w3.org/2000/svg" width="86.195" height="86.195" viewBox="0 0 86.195 86.195">
  <g id="Group_3973" data-name="Group 3973" transform="translate(9088.073 1447.139)">
    <g id="Group_3736" data-name="Group 3736" transform="translate(-9663.447 -2504.252)">
      <path id="Path_11679" data-name="Path 11679" d="M656.159,1079.314l-9.566,5.3a32.155,32.155,0,1,1-60.276,15.594v0H575.374a41.409,41.409,0,0,0,5.4,20.892,43.094,43.094,0,1,0,75.381-41.784Z" fill="#ecebeb"/>
      <path id="Path_11680" data-name="Path 11680" d="M618.472,1068.055a32.143,32.143,0,0,1,28.121,16.561l9.566-5.3a41.906,41.906,0,0,0-37.691-22.2,43.093,43.093,0,0,0-43.094,43.093h10.943A32.154,32.154,0,0,1,618.472,1068.055Z" fill="#388032"/>
    </g>
    <g id="Group_3864" data-name="Group 3864" transform="translate(-9663.447 -2504.252)" style="isolation: isolate">
      <text id="_42_" data-name="42%" transform="translate(618.472 1103.646)" fill="#fff" font-size="12.797" font-family="Montserrat-Bold, Montserrat" font-weight="700" style="isolation: isolate"><tspan x="-13.846" y="0">42%</tspan></text>
    </g>
  </g>
</svg>
