<svg xmlns="http://www.w3.org/2000/svg" width="86.198" height="86.197" viewBox="0 0 86.198 86.197">
  <g id="Group_3972" data-name="Group 3972" transform="translate(9088.074 1574.624)">
    <g id="Group_3746" data-name="Group 3746" transform="translate(-9663.447 -2504.252)">
      <path id="Path_11699" data-name="Path 11699" d="M657.2,953.83l-9.827,4.793a32.156,32.156,0,1,1-61.056,14.1v-.005H575.373a42.343,42.343,0,0,0,4.362,18.891A43.094,43.094,0,1,0,657.2,953.83Z" fill="#ecebeb"/>
      <path id="Path_11700" data-name="Path 11700" d="M618.472,940.571a32.152,32.152,0,0,1,28.9,18.052l9.827-4.793c-7.512-15.4-21.6-24.2-38.733-24.2a43.093,43.093,0,0,0-43.094,43.093h10.944A32.156,32.156,0,0,1,618.472,940.571Z" fill="#388032"/>
    </g>
    <g id="Group_3865" data-name="Group 3865" transform="translate(-9663.447 -2504.252)" style="isolation: isolate">
      <text id="_43_" data-name="43%" transform="translate(618.479 976.169)" fill="#fff" font-size="12.797" font-family="Montserrat-Bold, Montserrat" font-weight="700" style="isolation: isolate"><tspan x="-13.699" y="0">43%</tspan></text>
    </g>
  </g>
</svg>
