<svg xmlns="http://www.w3.org/2000/svg" width="86.198" height="86.199" viewBox="0 0 86.198 86.199">
  <g id="Group_3971" data-name="Group 3971" transform="translate(9088.074 1702.111)">
    <g id="Group_3756" data-name="Group 3756" transform="translate(-9663.447 -2504.252)">
      <path id="Path_11719" data-name="Path 11719" d="M658.422,829.091l-10.139,4.1a32.155,32.155,0,1,1-61.966,12.052v-.005H575.373a41.76,41.76,0,0,0,3.138,16.143,43.094,43.094,0,0,0,79.911-32.287Z" fill="#ecebeb"/>
      <path id="Path_11720" data-name="Path 11720" d="M618.472,813.085a32.158,32.158,0,0,1,29.811,20.1l10.139-4.1c-6.776-16.77-21.868-26.95-39.956-26.95a43.093,43.093,0,0,0-43.093,43.094h10.944A32.155,32.155,0,0,1,618.472,813.085Z" fill="#388032"/>
    </g>
    <g id="Group_3866" data-name="Group 3866" transform="translate(-9663.447 -2504.252)" style="isolation: isolate">
      <text id="_44_" data-name="44%" transform="translate(618.472 848.684)" fill="#fff" font-size="12.797" font-family="Montserrat-Bold, Montserrat" font-weight="700" style="isolation: isolate"><tspan x="-14.236" y="0">44%</tspan></text>
    </g>
  </g>
</svg>
