<svg xmlns="http://www.w3.org/2000/svg" width="86.198" height="86.199" viewBox="0 0 86.198 86.199">
  <g id="Group_3970" data-name="Group 3970" transform="translate(9088.074 1829.598)">
    <g id="Group_3766" data-name="Group 3766" transform="translate(-9663.447 -2504.252)">
      <path id="Path_11739" data-name="Path 11739" d="M659.451,704.431l-10.4,3.379a32.156,32.156,0,1,1-62.736,9.944v-.006H575.373a40.966,40.966,0,0,0,2.109,13.317,43.094,43.094,0,0,0,81.969-26.634Z" fill="#ecebeb"/>
      <path id="Path_11740" data-name="Path 11740" d="M618.472,685.6a32.164,32.164,0,0,1,30.581,22.212l10.4-3.379a42.417,42.417,0,0,0-40.985-29.777,43.093,43.093,0,0,0-43.093,43.094h10.944A32.155,32.155,0,0,1,618.472,685.6Z" fill="#388032"/>
    </g>
    <g id="Group_3867" data-name="Group 3867" transform="translate(-9663.447 -2504.252)" style="isolation: isolate">
      <text id="_45_" data-name="45%" transform="translate(618.472 721.195)" fill="#fff" font-size="12.797" font-family="Montserrat-Bold, Montserrat" font-weight="700" style="isolation: isolate"><tspan x="-13.75" y="0">45%</tspan></text>
    </g>
  </g>
</svg>
