<svg xmlns="http://www.w3.org/2000/svg" width="86.198" height="86.198" viewBox="0 0 86.198 86.198">
  <g id="Group_3969" data-name="Group 3969" transform="translate(9088.074 1957.084)">
    <g id="Group_3776" data-name="Group 3776" transform="translate(-9663.447 -2504.252)">
      <path id="Path_11759" data-name="Path 11759" d="M660.092,579.108l-10.56,2.83a32.156,32.156,0,1,1-63.215,8.329v-.005H575.373a42.642,42.642,0,0,0,1.468,11.153,43.094,43.094,0,1,0,83.251-22.307Z" fill="#ecebeb"/>
      <path id="Path_11760" data-name="Path 11760" d="M618.472,558.112a32.165,32.165,0,0,1,31.06,23.826l10.56-2.83c-5.174-19.31-21.633-31.94-41.625-31.94a43.094,43.094,0,0,0-43.094,43.094h10.944A32.155,32.155,0,0,1,618.472,558.112Z" fill="#388032"/>
    </g>
    <g id="Group_3868" data-name="Group 3868" transform="translate(-9663.447 -2504.252)" style="isolation: isolate">
      <text id="_46_" data-name="46%" transform="translate(618.472 593.705)" fill="#fff" font-size="12.797" font-family="Montserrat-Bold, Montserrat" font-weight="700" style="isolation: isolate"><tspan x="-13.968" y="0">46%</tspan></text>
    </g>
  </g>
</svg>
