<svg xmlns="http://www.w3.org/2000/svg" width="86.195" height="86.196" viewBox="0 0 86.195 86.196">
  <g id="Group_3968" data-name="Group 3968" transform="translate(9088.073 2084.567)">
    <g id="Group_3786" data-name="Group 3786" transform="translate(-9663.447 -2504.252)">
      <path id="Path_11779" data-name="Path 11779" d="M660.77,454.556l-10.735,2.087a32.155,32.155,0,1,1-63.718,6.14v0H575.374a41.634,41.634,0,0,0,.792,8.222,43.094,43.094,0,1,0,84.6-16.445Z" fill="#ecebeb"/>
      <path id="Path_11780" data-name="Path 11780" d="M618.472,430.627a32.162,32.162,0,0,1,31.563,26.016l10.735-2.087a42.6,42.6,0,0,0-42.3-34.871,43.094,43.094,0,0,0-43.094,43.094h10.943A32.156,32.156,0,0,1,618.472,430.627Z" fill="#388032"/>
    </g>
    <g id="Group_3869" data-name="Group 3869" transform="translate(-9663.447 -2504.252)" style="isolation: isolate">
      <text id="_47_" data-name="47%" transform="translate(618.472 466.216)" fill="#fff" font-size="12.797" font-family="Montserrat-Bold, Montserrat" font-weight="700" style="isolation: isolate"><tspan x="-13.757" y="0">47%</tspan></text>
    </g>
  </g>
</svg>
