<svg xmlns="http://www.w3.org/2000/svg" width="86.192" height="86.193" viewBox="0 0 86.192 86.193">
  <g id="Group_3967" data-name="Group 3967" transform="translate(9088.071 2212.048)">
    <g id="Group_3796" data-name="Group 3796" transform="translate(-9663.447 -2504.252)">
      <path id="Path_11799" data-name="Path 11799" d="M661.144,329.3l-10.834,1.522a32.153,32.153,0,1,1-63.993,4.478v0H575.376a45.427,45.427,0,0,0,.419,6A43.094,43.094,0,0,0,661.144,329.3Z" fill="#ecebeb"/>
      <path id="Path_11800" data-name="Path 11800" d="M618.472,303.145a32.157,32.157,0,0,1,31.838,27.678l10.834-1.522a42.484,42.484,0,0,0-42.675-37.1A43.093,43.093,0,0,0,575.376,335.3h10.941A32.155,32.155,0,0,1,618.472,303.145Z" fill="#388032"/>
    </g>
    <g id="Group_3870" data-name="Group 3870" transform="translate(-9663.447 -2504.252)" style="isolation: isolate">
      <text id="_48_" data-name="48%" transform="translate(618.473 338.73)" fill="#fff" font-size="12.797" font-family="Montserrat-Bold, Montserrat" font-weight="700" style="isolation: isolate"><tspan x="-14.243" y="0">48%</tspan></text>
    </g>
  </g>
</svg>
