<svg xmlns="http://www.w3.org/2000/svg" width="86.189" height="86.19" viewBox="0 0 86.189 86.19">
  <g id="Group_3966" data-name="Group 3966" transform="translate(9088.07 2339.525)">
    <g id="Group_3806" data-name="Group 3806" transform="translate(-9663.447 -2504.252)">
      <path id="Path_11819" data-name="Path 11819" d="M661.46,204.815l-10.919.764c.051.742.086,1.488.086,2.243a32.155,32.155,0,1,1-64.31,0h-10.94c0,.952.039,2.056.1,3.006a43.094,43.094,0,0,0,85.978-6.012Z" fill="#ecebeb"/>
      <path id="Path_11820" data-name="Path 11820" d="M618.472,175.667a32.151,32.151,0,0,1,32.069,29.912l10.919-.764a43.094,43.094,0,0,0-86.083,3.006h10.94A32.155,32.155,0,0,1,618.472,175.667Z" fill="#388032"/>
    </g>
    <g id="Group_3871" data-name="Group 3871" transform="translate(-9663.447 -2504.252)" style="isolation: isolate">
      <text id="_49_" data-name="49%" transform="translate(618.472 211.249)" fill="#fff" font-size="12.797" font-family="Montserrat-Bold, Montserrat" font-weight="700" style="isolation: isolate"><tspan x="-14.07" y="0">49%</tspan></text>
    </g>
  </g>
</svg>
