<svg xmlns="http://www.w3.org/2000/svg" width="86.199" height="86.211" viewBox="0 0 86.199 86.211">
  <g id="Group_3928" data-name="Group 3928" transform="translate(9616 1829.344)">
    <g id="Group_3762" data-name="Group 3762" transform="translate(-9663.447 -2504.252)">
      <path id="Path_11731" data-name="Path 11731" d="M49.556,704.7a40.966,40.966,0,0,0-2.109,13.317H58.391a32.109,32.109,0,0,1,1.572-9.935Z" fill="#388032"/>
      <path id="Path_11732" data-name="Path 11732" d="M103.858,677.028a43.1,43.1,0,0,0-54.3,27.668l10.407,3.382a32.158,32.158,0,1,1-1.572,9.935H47.447A42.418,42.418,0,0,0,77.224,759a43.094,43.094,0,0,0,26.634-81.97Z" fill="#ecebeb"/>
    </g>
    <g id="Group_3827" data-name="Group 3827" transform="translate(-9663.447 -2504.252)" style="isolation: isolate">
      <text id="_5_" data-name="5%" transform="translate(90.547 721.195)" fill="#fff" font-size="12.797" font-family="Montserrat-Bold, Montserrat" font-weight="700" style="isolation: isolate"><tspan x="-9.354" y="0">5%</tspan></text>
    </g>
  </g>
</svg>
