<svg xmlns="http://www.w3.org/2000/svg" width="86.188" height="86.188" viewBox="0 0 86.188 86.188">
  <g id="Group_3975" data-name="Group 3975" transform="translate(8956.094 1319.652)">
    <g id="Group_3727" data-name="Group 3727" transform="translate(-9663.447 -2504.252)">
      <path id="Path_11661" data-name="Path 11661" d="M782.559,1229.376a32.156,32.156,0,0,1-64.267-1.682H707.354a43.094,43.094,0,0,0,86.128,2.256Z" fill="#ecebeb"/>
      <path id="Path_11662" data-name="Path 11662" d="M750.448,1184.6a43.093,43.093,0,0,0-43.094,43.093h10.938a32.156,32.156,0,0,1,64.311,0q0,.846-.044,1.682l10.923.573c.05-.951.059-1.3.059-2.256A43.093,43.093,0,0,0,750.448,1184.6Z" fill="#388032"/>
    </g>
    <g id="Group_3873" data-name="Group 3873" transform="translate(-9663.447 -2504.252)" style="isolation: isolate">
      <text id="_51_" data-name="51%" transform="translate(750.448 1230.9)" fill="#fff" font-size="12.797" font-family="Montserrat-Bold, Montserrat" font-weight="700" style="isolation: isolate"><tspan x="-11.927" y="0">51%</tspan></text>
    </g>
  </g>
</svg>
