<svg xmlns="http://www.w3.org/2000/svg" width="86.188" height="86.192" viewBox="0 0 86.188 86.192">
  <g id="Group_3976" data-name="Group 3976" transform="translate(8956.094 1447.132)">
    <g id="Group_3737" data-name="Group 3737" transform="translate(-9663.447 -2504.252)">
      <path id="Path_11681" data-name="Path 11681" d="M782.357,1104.132a32.152,32.152,0,0,1-64.065-3.916v0H707.354a43.094,43.094,0,0,0,85.866,5.252Z" fill="#ecebeb"/>
      <path id="Path_11682" data-name="Path 11682" d="M750.448,1057.12a43.094,43.094,0,0,0-43.094,43.094h10.938a32.156,32.156,0,1,1,64.065,3.918l10.863,1.334a39.739,39.739,0,0,0,.321-5.252A43.093,43.093,0,0,0,750.448,1057.12Z" fill="#388032"/>
    </g>
    <g id="Group_3874" data-name="Group 3874" transform="translate(-9663.447 -2504.252)" style="isolation: isolate">
      <text id="_52_" data-name="52%" transform="translate(750.447 1103.646)" fill="#fff" font-size="12.797" font-family="Montserrat-Bold, Montserrat" font-weight="700" style="isolation: isolate"><tspan x="-13.225" y="0">52%</tspan></text>
    </g>
  </g>
</svg>
