<svg xmlns="http://www.w3.org/2000/svg" width="86.188" height="86.195" viewBox="0 0 86.188 86.195">
  <g id="Group_3977" data-name="Group 3977" transform="translate(8956.094 1574.614)">
    <g id="Group_3747" data-name="Group 3747" transform="translate(-9663.447 -2504.252)">
      <path id="Path_11701" data-name="Path 11701" d="M782.111,978.315a32.153,32.153,0,0,1-63.819-5.58v0H707.354a43.094,43.094,0,0,0,85.533,7.483Z" fill="#ecebeb"/>
      <path id="Path_11702" data-name="Path 11702" d="M750.448,929.638a43.094,43.094,0,0,0-43.094,43.094h10.938a32.156,32.156,0,1,1,63.819,5.583l10.776,1.9a37.873,37.873,0,0,0,.654-7.483A43.093,43.093,0,0,0,750.448,929.638Z" fill="#388032"/>
    </g>
    <g id="Group_3875" data-name="Group 3875" transform="translate(-9663.447 -2504.252)" style="isolation: isolate">
      <text id="_53_" data-name="53%" transform="translate(750.454 976.169)" fill="#fff" font-size="12.797" font-family="Montserrat-Bold, Montserrat" font-weight="700" style="isolation: isolate"><tspan x="-13.11" y="0">53%</tspan></text>
    </g>
  </g>
</svg>
