<svg xmlns="http://www.w3.org/2000/svg" width="86.188" height="86.197" viewBox="0 0 86.188 86.197">
  <g id="Group_3978" data-name="Group 3978" transform="translate(8956.094 1702.099)">
    <g id="Group_3757" data-name="Group 3757" transform="translate(-9663.447 -2504.252)">
      <path id="Path_11721" data-name="Path 11721" d="M750.448,802.153a43.094,43.094,0,0,0-43.094,43.094h10.938a32.156,32.156,0,1,1,63.359,7.779l10.61,2.646a39.8,39.8,0,0,0,1.28-10.425A43.093,43.093,0,0,0,750.448,802.153Z" fill="#388032"/>
      <path id="Path_11722" data-name="Path 11722" d="M781.651,853.026a32.157,32.157,0,0,1-63.359-7.774v-.005H707.354a43.094,43.094,0,0,0,84.907,10.425Z" fill="#ecebeb"/>
    </g>
    <g id="Group_3876" data-name="Group 3876" transform="translate(-9663.447 -2504.252)" style="isolation: isolate">
      <text id="_54_" data-name="54%" transform="translate(750.448 848.684)" fill="#fff" font-size="12.797" font-family="Montserrat-Bold, Montserrat" font-weight="700" style="isolation: isolate"><tspan x="-13.635" y="0">54%</tspan></text>
    </g>
  </g>
</svg>
