<svg xmlns="http://www.w3.org/2000/svg" width="86.188" height="86.199" viewBox="0 0 86.188 86.199">
  <g id="Group_3979" data-name="Group 3979" transform="translate(8956.094 1829.586)">
    <g id="Group_3767" data-name="Group 3767" transform="translate(-9663.447 -2504.252)">
      <path id="Path_11741" data-name="Path 11741" d="M781.032,727.7a32.156,32.156,0,0,1-62.74-9.932v-.006H707.354a42.418,42.418,0,0,0,29.777,40.985,43.094,43.094,0,0,0,54.3-27.668Z" fill="#ecebeb"/>
      <path id="Path_11742" data-name="Path 11742" d="M750.448,674.666a43.094,43.094,0,0,0-43.094,43.094h10.938a32.156,32.156,0,1,1,62.74,9.938l10.4,3.379a40.966,40.966,0,0,0,2.109-13.317A43.093,43.093,0,0,0,750.448,674.666Z" fill="#388032"/>
    </g>
    <g id="Group_3877" data-name="Group 3877" transform="translate(-9663.447 -2504.252)" style="isolation: isolate">
      <text id="_55_" data-name="55%" transform="translate(750.448 721.195)" fill="#fff" font-size="12.797" font-family="Montserrat-Bold, Montserrat" font-weight="700" style="isolation: isolate"><tspan x="-13.13" y="0">55%</tspan></text>
    </g>
  </g>
</svg>
