<svg xmlns="http://www.w3.org/2000/svg" width="86.188" height="86.199" viewBox="0 0 86.188 86.199">
  <g id="Group_3980" data-name="Group 3980" transform="translate(8956.094 1957.072)">
    <g id="Group_3777" data-name="Group 3777" transform="translate(-9663.447 -2504.252)">
      <path id="Path_11761" data-name="Path 11761" d="M750.448,547.18a43.093,43.093,0,0,0-43.094,43.093h10.938A32.156,32.156,0,1,1,780.469,601.8l10.21,3.919a39.893,39.893,0,0,0,2.862-15.444A43.093,43.093,0,0,0,750.448,547.18Z" fill="#388032"/>
      <path id="Path_11762" data-name="Path 11762" d="M780.469,601.8a32.155,32.155,0,0,1-62.177-11.519v-.006H707.354A42.611,42.611,0,0,0,735,630.505a43.094,43.094,0,0,0,55.675-24.788Z" fill="#ecebeb"/>
    </g>
    <g id="Group_3878" data-name="Group 3878" transform="translate(-9663.447 -2504.252)" style="isolation: isolate">
      <text id="_56_" data-name="56%" transform="translate(750.447 593.705)" fill="#fff" font-size="12.797" font-family="Montserrat-Bold, Montserrat" font-weight="700" style="isolation: isolate"><tspan x="-13.366" y="0">56%</tspan></text>
    </g>
  </g>
</svg>
