<svg xmlns="http://www.w3.org/2000/svg" width="86.188" height="86.198" viewBox="0 0 86.188 86.198">
  <g id="Group_3981" data-name="Group 3981" transform="translate(8956.094 2084.558)">
    <g id="Group_3787" data-name="Group 3787" transform="translate(-9663.447 -2504.252)">
      <path id="Path_11781" data-name="Path 11781" d="M779.593,476.379a32.156,32.156,0,0,1-61.3-13.586v-.005H707.354a42.272,42.272,0,0,0,24.881,39.056A43.093,43.093,0,0,0,789.5,481Z" fill="#ecebeb"/>
      <path id="Path_11782" data-name="Path 11782" d="M750.448,419.694a43.094,43.094,0,0,0-43.094,43.094h10.938a32.156,32.156,0,1,1,61.3,13.591L789.5,481a40.753,40.753,0,0,0,4.037-18.212A43.093,43.093,0,0,0,750.448,419.694Z" fill="#388032"/>
    </g>
    <g id="Group_3879" data-name="Group 3879" transform="translate(-9663.447 -2504.252)" style="isolation: isolate">
      <text id="_57_" data-name="57%" transform="translate(750.448 466.216)" fill="#fff" font-size="12.797" font-family="Montserrat-Bold, Montserrat" font-weight="700" style="isolation: isolate"><tspan x="-13.347" y="0">57%</tspan></text>
    </g>
  </g>
</svg>
