<svg xmlns="http://www.w3.org/2000/svg" width="86.188" height="86.196" viewBox="0 0 86.188 86.196">
  <g id="Group_3982" data-name="Group 3982" transform="translate(8956.094 2212.041)">
    <g id="Group_3797" data-name="Group 3797" transform="translate(-9663.447 -2504.252)">
      <path id="Path_11801" data-name="Path 11801" d="M778.842,350.4a32.156,32.156,0,0,1-60.55-15.093v0H707.354a42.525,42.525,0,0,0,22.862,38.049A43.094,43.094,0,0,0,788.5,355.536Z" fill="#ecebeb"/>
      <path id="Path_11802" data-name="Path 11802" d="M750.448,292.211A43.094,43.094,0,0,0,707.354,335.3h10.938a32.156,32.156,0,1,1,60.55,15.1l9.655,5.134a40.012,40.012,0,0,0,5.044-20.231A43.093,43.093,0,0,0,750.448,292.211Z" fill="#388032"/>
    </g>
    <g id="Group_3880" data-name="Group 3880" transform="translate(-9663.447 -2504.252)" style="isolation: isolate">
      <text id="_58_" data-name="58%" transform="translate(750.448 338.73)" fill="#fff" font-size="12.797" font-family="Montserrat-Bold, Montserrat" font-weight="700" style="isolation: isolate"><tspan x="-13.577" y="0">58%</tspan></text>
    </g>
  </g>
</svg>
