<svg xmlns="http://www.w3.org/2000/svg" width="86.188" height="86.194" viewBox="0 0 86.188 86.194">
  <g id="Group_3983" data-name="Group 3983" transform="translate(8956.094 2339.522)">
    <g id="Group_3807" data-name="Group 3807" transform="translate(-9663.447 -2504.252)">
      <path id="Path_11821" data-name="Path 11821" d="M777.715,224.863a32.153,32.153,0,0,1-59.423-17.036v0H707.354a42.173,42.173,0,0,0,20.257,36.545,43.093,43.093,0,0,0,59.382-13.709Z" fill="#ecebeb"/>
      <path id="Path_11822" data-name="Path 11822" d="M750.448,164.73a43.094,43.094,0,0,0-43.094,43.094h10.938a32.156,32.156,0,1,1,59.423,17.039l9.278,5.8a40.708,40.708,0,0,0,6.548-22.836A43.093,43.093,0,0,0,750.448,164.73Z" fill="#388032"/>
    </g>
    <g id="Group_3881" data-name="Group 3881" transform="translate(-9663.447 -2504.252)" style="isolation: isolate">
      <text id="_59_" data-name="59%" transform="translate(750.448 211.249)" fill="#fff" font-size="12.797" font-family="Montserrat-Bold, Montserrat" font-weight="700" style="isolation: isolate"><tspan x="-13.494" y="0">59%</tspan></text>
    </g>
  </g>
</svg>
