<svg xmlns="http://www.w3.org/2000/svg" width="86.199" height="86.211" viewBox="0 0 86.199 86.211">
  <g id="Group_3929" data-name="Group 3929" transform="translate(9616 1956.883)">
    <g id="Group_3772" data-name="Group 3772" transform="translate(-9663.447 -2504.252)">
      <path id="Path_11751" data-name="Path 11751" d="M50.309,575.031a39.888,39.888,0,0,0-2.862,15.443H58.391a32.066,32.066,0,0,1,2.135-11.521Z" fill="#388032"/>
      <path id="Path_11752" data-name="Path 11752" d="M105.984,550.243a43.094,43.094,0,0,0-55.675,24.788l10.217,3.922a32.155,32.155,0,1,1-2.135,11.521H47.447A42.611,42.611,0,0,0,75.1,630.706a43.094,43.094,0,0,0,30.886-80.463Z" fill="#ecebeb"/>
    </g>
    <g id="Group_3828" data-name="Group 3828" transform="translate(-9663.447 -2504.252)" style="isolation: isolate">
      <text id="_6_" data-name="6%" transform="translate(90.547 593.705)" fill="#fff" font-size="12.797" font-family="Montserrat-Bold, Montserrat" font-weight="700" style="isolation: isolate"><tspan x="-9.559" y="0">6%</tspan></text>
    </g>
  </g>
</svg>
