<svg xmlns="http://www.w3.org/2000/svg" width="86.188" height="86.191" viewBox="0 0 86.188 86.191">
  <g id="Group_3984" data-name="Group 3984" transform="translate(8956.094 2467)">
    <g id="Group_3817" data-name="Group 3817" transform="translate(-9663.447 -2504.252)">
      <path id="Path_11841" data-name="Path 11841" d="M776.458,99.244a32.151,32.151,0,0,1-58.166-18.9H707.354a41.789,41.789,0,0,0,17.764,34.863,43.093,43.093,0,0,0,60.193-9.533Z" fill="#ecebeb"/>
      <path id="Path_11842" data-name="Path 11842" d="M750.448,37.252a43.094,43.094,0,0,0-43.094,43.094h10.938a32.156,32.156,0,1,1,58.166,18.9l8.853,6.432a41.289,41.289,0,0,0,8.23-25.33A43.093,43.093,0,0,0,750.448,37.252Z" fill="#388032"/>
    </g>
    <g id="Group_3882" data-name="Group 3882" transform="translate(-9663.447 -2504.252)" style="isolation: isolate">
      <text id="_60_" data-name="60%" transform="translate(750.447 83.773)" fill="#fff" font-size="12.797" font-family="Montserrat-Bold, Montserrat" font-weight="700" style="isolation: isolate"><tspan x="-14.032" y="0">60%</tspan></text>
    </g>
  </g>
</svg>
