<svg xmlns="http://www.w3.org/2000/svg" width="86.188" height="86.189" viewBox="0 0 86.188 86.189">
  <g id="Group_3994" data-name="Group 3994" transform="translate(8824.118 1319.653)">
    <g id="Group_3728" data-name="Group 3728" transform="translate(-9663.447 -2504.252)">
      <path id="Path_11663" data-name="Path 11663" d="M907.409,1247.926a32.151,32.151,0,0,1-57.141-20.232H839.329a42.142,42.142,0,0,0,15.974,33.49,43.094,43.094,0,0,0,60.61-6.37Z" fill="#ecebeb"/>
      <path id="Path_11664" data-name="Path 11664" d="M882.423,1184.6a43.094,43.094,0,0,0-43.094,43.094h10.939a32.155,32.155,0,1,1,57.141,20.233l8.5,6.887a40.779,40.779,0,0,0,9.6-27.12A43.094,43.094,0,0,0,882.423,1184.6Z" fill="#388032"/>
    </g>
    <g id="Group_3883" data-name="Group 3883" transform="translate(-9663.447 -2504.252)" style="isolation: isolate">
      <text id="_61_" data-name="61%" transform="translate(882.423 1230.9)" fill="#fff" font-size="12.797" font-family="Montserrat-Bold, Montserrat" font-weight="700" style="isolation: isolate"><tspan x="-12.195" y="0">61%</tspan></text>
    </g>
  </g>
</svg>
