<svg xmlns="http://www.w3.org/2000/svg" width="86.188" height="86.187" viewBox="0 0 86.188 86.187">
  <g id="Group_3993" data-name="Group 3993" transform="translate(8824.118 1447.13)">
    <g id="Group_3738" data-name="Group 3738" transform="translate(-9663.447 -2504.252)">
      <path id="Path_11683" data-name="Path 11683" d="M882.423,1132.371a32.155,32.155,0,0,1-32.155-32.156H839.329a41.741,41.741,0,0,0,13.7,31.517,43.094,43.094,0,0,0,60.907-2.127l-8.005-7.465A32.061,32.061,0,0,1,882.423,1132.371Z" fill="#ecebeb"/>
      <path id="Path_11684" data-name="Path 11684" d="M882.423,1057.122a43.093,43.093,0,0,0-43.094,43.093h10.939a32.155,32.155,0,1,1,55.667,21.925l8.005,7.465a41.29,41.29,0,0,0,11.577-29.39A43.093,43.093,0,0,0,882.423,1057.122Z" fill="#388032"/>
    </g>
    <g id="Group_3884" data-name="Group 3884" transform="translate(-9663.447 -2504.252)" style="isolation: isolate">
      <text id="_62_" data-name="62%" transform="translate(882.423 1103.646)" fill="#fff" font-size="12.797" font-family="Montserrat-Bold, Montserrat" font-weight="700" style="isolation: isolate"><tspan x="-13.526" y="0">62%</tspan></text>
    </g>
  </g>
</svg>
