<svg xmlns="http://www.w3.org/2000/svg" width="86.188" height="86.188" viewBox="0 0 86.188 86.188">
  <g id="Group_3992" data-name="Group 3992" transform="translate(8824.118 1574.608)">
    <g id="Group_3748" data-name="Group 3748" transform="translate(-9663.447 -2504.252)">
      <path id="Path_11703" data-name="Path 11703" d="M882.423,1004.893a32.155,32.155,0,0,1-32.155-32.155H839.329a42.2,42.2,0,0,0,12.1,29.935,43.094,43.094,0,0,0,60.935,1.064l-7.6-7.875A32.037,32.037,0,0,1,882.423,1004.893Z" fill="#ecebeb"/>
      <path id="Path_11704" data-name="Path 11704" d="M882.423,929.644a43.094,43.094,0,0,0-43.094,43.094h10.939a32.155,32.155,0,1,1,54.486,23.124l7.6,7.875a40.9,40.9,0,0,0,13.158-31A43.094,43.094,0,0,0,882.423,929.644Z" fill="#388032"/>
    </g>
    <g id="Group_3885" data-name="Group 3885" transform="translate(-9663.447 -2504.252)" style="isolation: isolate">
      <text id="_63_" data-name="63%" transform="translate(882.43 976.169)" fill="#fff" font-size="12.797" font-family="Montserrat-Bold, Montserrat" font-weight="700" style="isolation: isolate"><tspan x="-13.411" y="0">63%</tspan></text>
    </g>
  </g>
</svg>
