<svg xmlns="http://www.w3.org/2000/svg" width="86.188" height="86.188" viewBox="0 0 86.188 86.188">
  <g id="Group_3991" data-name="Group 3991" transform="translate(8824.118 1702.086)">
    <g id="Group_3758" data-name="Group 3758" transform="translate(-9663.447 -2504.252)">
      <path id="Path_11723" data-name="Path 11723" d="M882.423,877.415a32.155,32.155,0,0,1-32.155-32.155H839.329a41.784,41.784,0,0,0,10.082,27.7,43.1,43.1,0,0,0,60.712,5.311l-7.034-8.383A32.018,32.018,0,0,1,882.423,877.415Z" fill="#ecebeb"/>
      <path id="Path_11724" data-name="Path 11724" d="M882.423,802.166a43.093,43.093,0,0,0-43.094,43.093h10.939a32.155,32.155,0,1,1,52.821,24.629l7.034,8.383a41.37,41.37,0,0,0,15.394-33.012A43.093,43.093,0,0,0,882.423,802.166Z" fill="#388032"/>
    </g>
    <g id="Group_3886" data-name="Group 3886" transform="translate(-9663.447 -2504.252)" style="isolation: isolate">
      <text id="_64_" data-name="64%" transform="translate(882.423 848.684)" fill="#fff" font-size="12.797" font-family="Montserrat-Bold, Montserrat" font-weight="700" style="isolation: isolate"><tspan x="-13.904" y="0">64%</tspan></text>
    </g>
  </g>
</svg>
