<svg xmlns="http://www.w3.org/2000/svg" width="86.188" height="86.191" viewBox="0 0 86.188 86.191">
  <g id="Group_3990" data-name="Group 3990" transform="translate(8824.118 1829.567)">
    <g id="Group_3768" data-name="Group 3768" transform="translate(-9663.447 -2504.252)">
      <path id="Path_11743" data-name="Path 11743" d="M882.423,749.936a32.155,32.155,0,0,1-32.155-32.156H839.329a41.29,41.29,0,0,0,8.231,25.33,43.093,43.093,0,0,0,60.193,9.533l-6.432-8.852A32,32,0,0,1,882.423,749.936Z" fill="#ecebeb"/>
      <path id="Path_11744" data-name="Path 11744" d="M882.423,674.685a43.094,43.094,0,0,0-43.094,43.094h10.939a32.155,32.155,0,1,1,51.053,26.011l6.432,8.852a41.789,41.789,0,0,0,17.764-34.863A43.094,43.094,0,0,0,882.423,674.685Z" fill="#388032"/>
    </g>
    <g id="Group_3887" data-name="Group 3887" transform="translate(-9663.447 -2504.252)" style="isolation: isolate">
      <text id="_65_" data-name="65%" transform="translate(882.423 721.195)" fill="#fff" font-size="12.797" font-family="Montserrat-Bold, Montserrat" font-weight="700" style="isolation: isolate"><tspan x="-13.43" y="0">65%</tspan></text>
    </g>
  </g>
</svg>
