<svg xmlns="http://www.w3.org/2000/svg" width="86.188" height="86.192" viewBox="0 0 86.188 86.192">
  <g id="Group_3989" data-name="Group 3989" transform="translate(8824.118 1957.049)">
    <g id="Group_3778" data-name="Group 3778" transform="translate(-9663.447 -2504.252)">
      <path id="Path_11763" data-name="Path 11763" d="M882.423,547.2A43.093,43.093,0,0,0,839.329,590.3h10.939a32.155,32.155,0,1,1,49.667,26.966l5.959,9.176c12.774-8.3,19.623-20.91,19.623-36.142A43.093,43.093,0,0,0,882.423,547.2Z" fill="#388032"/>
      <path id="Path_11764" data-name="Path 11764" d="M882.423,622.454A32.155,32.155,0,0,1,850.268,590.3v0H839.329a41.951,41.951,0,0,0,6.953,23.471,43.094,43.094,0,0,0,59.612,12.671l-5.959-9.176A32,32,0,0,1,882.423,622.454Z" fill="#ecebeb"/>
    </g>
    <g id="Group_3888" data-name="Group 3888" transform="translate(-9663.447 -2504.252)" style="isolation: isolate">
      <text id="_66_" data-name="66%" transform="translate(882.423 593.705)" fill="#fff" font-size="12.797" font-family="Montserrat-Bold, Montserrat" font-weight="700" style="isolation: isolate"><tspan x="-13.635" y="0">66%</tspan></text>
    </g>
  </g>
</svg>
