<svg xmlns="http://www.w3.org/2000/svg" width="86.188" height="86.196" viewBox="0 0 86.188 86.196">
  <g id="Group_3988" data-name="Group 3988" transform="translate(8824.118 2084.535)">
    <g id="Group_3788" data-name="Group 3788" transform="translate(-9663.447 -2504.252)">
      <path id="Path_11783" data-name="Path 11783" d="M882.423,494.97a32.155,32.155,0,0,1-32.155-32.155v0H839.329a41.418,41.418,0,0,0,5.4,20.892,43.1,43.1,0,0,0,58.583,16.8l-5.3-9.564A32,32,0,0,1,882.423,494.97Z" fill="#ecebeb"/>
      <path id="Path_11784" data-name="Path 11784" d="M882.423,419.717a43.094,43.094,0,0,0-43.094,43.094h10.939a32.155,32.155,0,1,1,47.746,28.127l5.3,9.564a41.908,41.908,0,0,0,22.2-37.691A43.094,43.094,0,0,0,882.423,419.717Z" fill="#388032"/>
    </g>
    <g id="Group_3889" data-name="Group 3889" transform="translate(-9663.447 -2504.252)" style="isolation: isolate">
      <text id="_67_" data-name="67%" transform="translate(882.423 466.216)" fill="#fff" font-size="12.797" font-family="Montserrat-Bold, Montserrat" font-weight="700" style="isolation: isolate"><tspan x="-13.667" y="0">67%</tspan></text>
    </g>
  </g>
</svg>
