<svg xmlns="http://www.w3.org/2000/svg" width="86.188" height="86.197" viewBox="0 0 86.188 86.197">
  <g id="Group_3987" data-name="Group 3987" transform="translate(8824.118 2212.022)">
    <g id="Group_3798" data-name="Group 3798" transform="translate(-9663.447 -2504.252)">
      <path id="Path_11803" data-name="Path 11803" d="M882.423,367.484a32.155,32.155,0,0,1-32.155-32.155v-.005H839.329a42.346,42.346,0,0,0,4.362,18.891,43.094,43.094,0,0,0,57.623,19.841l-4.792-9.824A32.015,32.015,0,0,1,882.423,367.484Z" fill="#ecebeb"/>
      <path id="Path_11804" data-name="Path 11804" d="M882.423,292.23a43.094,43.094,0,0,0-43.094,43.094h10.939a32.155,32.155,0,1,1,46.254,28.908l4.792,9.824c15.4-7.512,24.2-21.6,24.2-38.732A43.094,43.094,0,0,0,882.423,292.23Z" fill="#388032"/>
    </g>
    <g id="Group_3890" data-name="Group 3890" transform="translate(-9663.447 -2504.252)" style="isolation: isolate">
      <text id="_68_" data-name="68%" transform="translate(882.423 338.73)" fill="#fff" font-size="12.797" font-family="Montserrat-Bold, Montserrat" font-weight="700" style="isolation: isolate"><tspan x="-13.846" y="0">68%</tspan></text>
    </g>
  </g>
</svg>
