<svg xmlns="http://www.w3.org/2000/svg" width="86.188" height="86.199" viewBox="0 0 86.188 86.199">
  <g id="Group_3986" data-name="Group 3986" transform="translate(8824.118 2339.511)">
    <g id="Group_3808" data-name="Group 3808" transform="translate(-9663.447 -2504.252)">
      <path id="Path_11823" data-name="Path 11823" d="M882.423,240a32.155,32.155,0,0,1-32.155-32.155v-.006H839.329a41.761,41.761,0,0,0,3.138,16.143,43.1,43.1,0,0,0,56.1,23.813l-4.095-10.137A32.062,32.062,0,0,1,882.423,240Z" fill="#ecebeb"/>
      <path id="Path_11824" data-name="Path 11824" d="M882.423,164.741a43.094,43.094,0,0,0-43.094,43.094h10.939a32.155,32.155,0,1,1,44.2,29.819l4.095,10.137c16.771-6.776,26.951-21.868,26.951-39.956A43.094,43.094,0,0,0,882.423,164.741Z" fill="#388032"/>
    </g>
    <g id="Group_3891" data-name="Group 3891" transform="translate(-9663.447 -2504.252)" style="isolation: isolate">
      <text id="_69_" data-name="69%" transform="translate(882.423 211.249)" fill="#fff" font-size="12.797" font-family="Montserrat-Bold, Montserrat" font-weight="700" style="isolation: isolate"><tspan x="-13.763" y="0">69%</tspan></text>
    </g>
  </g>
</svg>
