<svg xmlns="http://www.w3.org/2000/svg" width="86.197" height="86.208" viewBox="0 0 86.197 86.208">
  <g id="Group_3930" data-name="Group 3930" transform="translate(9616 2084.419)">
    <g id="Group_3782" data-name="Group 3782" transform="translate(-9663.447 -2504.252)">
      <path id="Path_11771" data-name="Path 11771" d="M51.485,444.725a40.74,40.74,0,0,0-4.038,18.212H58.391A32.027,32.027,0,0,1,61.4,449.349Z" fill="#388032"/>
      <path id="Path_11772" data-name="Path 11772" d="M108.753,423.881a43.093,43.093,0,0,0-57.268,20.844l9.917,4.624a32.157,32.157,0,1,1-3.011,13.588H47.447a42.271,42.271,0,0,0,24.882,39.056,43.093,43.093,0,0,0,36.424-78.112Z" fill="#ecebeb"/>
    </g>
    <g id="Group_3829" data-name="Group 3829" transform="translate(-9663.447 -2504.252)" style="isolation: isolate">
      <text id="_7_" data-name="7%" transform="translate(90.547 466.216)" fill="#fff" font-size="12.797" font-family="Montserrat-Bold, Montserrat" font-weight="700" style="isolation: isolate"><tspan x="-9.617" y="0">7%</tspan></text>
    </g>
  </g>
</svg>
