<svg xmlns="http://www.w3.org/2000/svg" width="86.188" height="86.199" viewBox="0 0 86.188 86.199">
  <g id="Group_3985" data-name="Group 3985" transform="translate(8824.118 2467)">
    <g id="Group_3818" data-name="Group 3818" transform="translate(-9663.447 -2504.252)">
      <path id="Path_11843" data-name="Path 11843" d="M882.423,37.252a43.094,43.094,0,0,0-43.094,43.094h10.939a32.155,32.155,0,1,1,42.094,30.588l3.378,10.4a42.415,42.415,0,0,0,29.777-40.984A43.094,43.094,0,0,0,882.423,37.252Z" fill="#388032"/>
      <path id="Path_11844" data-name="Path 11844" d="M882.423,112.507a32.155,32.155,0,0,1-32.155-32.155v-.006H839.329a40.994,40.994,0,0,0,2.109,13.317,43.094,43.094,0,0,0,54.3,27.667l-3.378-10.4A32.111,32.111,0,0,1,882.423,112.507Z" fill="#ecebeb"/>
    </g>
    <g id="Group_3892" data-name="Group 3892" transform="translate(-9663.447 -2504.252)" style="isolation: isolate">
      <text id="_70_" data-name="70%" transform="translate(882.423 83.773)" fill="#fff" font-size="12.797" font-family="Montserrat-Bold, Montserrat" font-weight="700" style="isolation: isolate"><tspan x="-13.795" y="0">70%</tspan></text>
    </g>
  </g>
</svg>
