<svg xmlns="http://www.w3.org/2000/svg" width="86.188" height="86.198" viewBox="0 0 86.188 86.198">
  <g id="Group_3995" data-name="Group 3995" transform="translate(8692.143 1319.662)">
    <g id="Group_3729" data-name="Group 3729" transform="translate(-9663.447 -2504.252)">
      <path id="Path_11665" data-name="Path 11665" d="M1014.4,1259.844a32.156,32.156,0,0,1-32.156-32.155v-.005H971.3a42.643,42.643,0,0,0,1.468,11.153,43.094,43.094,0,0,0,52.779,30.472l-2.829-10.559A32.188,32.188,0,0,1,1014.4,1259.844Z" fill="#ecebeb"/>
      <path id="Path_11666" data-name="Path 11666" d="M1014.4,1184.59a43.094,43.094,0,0,0-43.094,43.094h10.938a32.155,32.155,0,1,1,40.48,31.066l2.829,10.559c19.311-5.174,31.94-21.633,31.94-41.625A43.093,43.093,0,0,0,1014.4,1184.59Z" fill="#388032"/>
    </g>
    <g id="Group_3893" data-name="Group 3893" transform="translate(-9663.447 -2504.252)" style="isolation: isolate">
      <text id="_71_" data-name="71%" transform="translate(1014.398 1230.9)" fill="#fff" font-size="12.797" font-family="Montserrat-Bold, Montserrat" font-weight="700" style="isolation: isolate"><tspan x="-12.151" y="0">71%</tspan></text>
    </g>
  </g>
</svg>
