<svg xmlns="http://www.w3.org/2000/svg" width="86.188" height="86.195" viewBox="0 0 86.188 86.195">
  <g id="Group_3996" data-name="Group 3996" transform="translate(8692.143 1447.15)">
    <g id="Group_3739" data-name="Group 3739" transform="translate(-9663.447 -2504.252)">
      <path id="Path_11685" data-name="Path 11685" d="M1014.4,1132.355a32.156,32.156,0,0,1-32.156-32.156v0H971.3a41.727,41.727,0,0,0,.791,8.223,43.093,43.093,0,0,0,50.525,34.079l-2.086-10.734A32.3,32.3,0,0,1,1014.4,1132.355Z" fill="#ecebeb"/>
      <path id="Path_11686" data-name="Path 11686" d="M1014.4,1057.1a43.093,43.093,0,0,0-43.094,43.093h10.851c0-.132-.01-.263-.01-.4a32.155,32.155,0,1,1,38.31,31.561l2.165,11.137a42.6,42.6,0,0,0,34.871-42.3A43.093,43.093,0,0,0,1014.4,1057.1Z" fill="#388032"/>
    </g>
    <g id="Group_3894" data-name="Group 3894" transform="translate(-9663.447 -2504.252)" style="isolation: isolate">
      <text id="_72_" data-name="72%" transform="translate(1014.398 1103.646)" fill="#fff" font-size="12.797" font-family="Montserrat-Bold, Montserrat" font-weight="700" style="isolation: isolate"><tspan x="-13.417" y="0">72%</tspan></text>
    </g>
  </g>
</svg>
