<svg xmlns="http://www.w3.org/2000/svg" width="86.188" height="86.193" viewBox="0 0 86.188 86.193">
  <g id="Group_3997" data-name="Group 3997" transform="translate(8692.143 1574.636)">
    <g id="Group_3749" data-name="Group 3749" transform="translate(-9663.447 -2504.252)">
      <path id="Path_11705" data-name="Path 11705" d="M1014.4,1004.868a32.156,32.156,0,0,1-32.156-32.156v0H971.3a45.388,45.388,0,0,0,.419,6,43.094,43.094,0,0,0,48.672,36.677l-1.523-10.833A32.365,32.365,0,0,1,1014.4,1004.868Z" fill="#ecebeb"/>
      <path id="Path_11706" data-name="Path 11706" d="M1014.4,929.616A43.094,43.094,0,0,0,971.3,972.71h10.938a32.155,32.155,0,1,1,36.63,31.841l1.523,10.833a42.481,42.481,0,0,0,37.1-42.674A43.093,43.093,0,0,0,1014.4,929.616Z" fill="#388032"/>
    </g>
    <g id="Group_3895" data-name="Group 3895" transform="translate(-9663.447 -2504.252)" style="isolation: isolate">
      <text id="_73_" data-name="73%" transform="translate(1014.405 976.169)" fill="#fff" font-size="12.797" font-family="Montserrat-Bold, Montserrat" font-weight="700" style="isolation: isolate"><tspan x="-13.257" y="0">73%</tspan></text>
    </g>
  </g>
</svg>
