<svg xmlns="http://www.w3.org/2000/svg" width="86.188" height="86.189" viewBox="0 0 86.188 86.189">
  <g id="Group_3998" data-name="Group 3998" transform="translate(8692.143 1702.118)">
    <g id="Group_3759" data-name="Group 3759" transform="translate(-9663.447 -2504.252)">
      <path id="Path_11725" data-name="Path 11725" d="M1014.4,877.384a32.156,32.156,0,0,1-32.156-32.156H971.3c0,.953.038,2.057.1,3.007a43.093,43.093,0,0,0,46,39.982l-.764-10.919C1015.9,877.348,1015.153,877.384,1014.4,877.384Z" fill="#ecebeb"/>
      <path id="Path_11726" data-name="Path 11726" d="M1014.4,802.134A43.093,43.093,0,0,0,971.3,845.227h10.938a32.155,32.155,0,1,1,34.4,32.07l.764,10.919a43.094,43.094,0,0,0-3.006-86.082Z" fill="#388032"/>
    </g>
    <g id="Group_3896" data-name="Group 3896" transform="translate(-9663.447 -2504.252)" style="isolation: isolate">
      <text id="_74_" data-name="74%" transform="translate(1014.399 848.684)" fill="#fff" font-size="12.797" font-family="Montserrat-Bold, Montserrat" font-weight="700" style="isolation: isolate"><tspan x="-13.379" y="0">74%</tspan></text>
    </g>
  </g>
</svg>
