<svg xmlns="http://www.w3.org/2000/svg" width="86.188" height="86.188" viewBox="0 0 86.188 86.188">
  <g id="Group_4000" data-name="Group 4000" transform="translate(8692.143 1957.079)">
    <g id="Group_3779" data-name="Group 3779" transform="translate(-9663.447 -2504.252)">
      <path id="Path_11765" data-name="Path 11765" d="M982.243,590.267H971.3a43.2,43.2,0,0,0,40.838,43.035l.573-10.924A32.156,32.156,0,0,1,982.243,590.267Z" fill="#ecebeb"/>
      <path id="Path_11766" data-name="Path 11766" d="M1014.4,547.173A43.094,43.094,0,0,0,971.3,590.267h10.938a32.155,32.155,0,1,1,32.156,32.155q-.848,0-1.683-.044l-.573,10.924c.951.049,1.3.059,2.256.059a43.094,43.094,0,0,0,0-86.188Z" fill="#388032"/>
    </g>
    <g id="Group_3898" data-name="Group 3898" transform="translate(-9663.447 -2504.252)" style="isolation: isolate">
      <text id="_76_" data-name="76%" transform="translate(1014.398 593.705)" fill="#fff" font-size="12.797" font-family="Montserrat-Bold, Montserrat" font-weight="700" style="isolation: isolate"><tspan x="-13.398" y="0">76%</tspan></text>
    </g>
  </g>
</svg>
