<svg xmlns="http://www.w3.org/2000/svg" width="86.188" height="86.187" viewBox="0 0 86.188 86.187">
  <g id="Group_4001" data-name="Group 4001" transform="translate(8692.143 2084.559)">
    <g id="Group_3789" data-name="Group 3789" transform="translate(-9663.447 -2504.252)">
      <path id="Path_11785" data-name="Path 11785" d="M982.243,462.787H971.3a42.906,42.906,0,0,0,37.842,42.772l1.334-10.863A32.154,32.154,0,0,1,982.243,462.787Z" fill="#ecebeb"/>
      <path id="Path_11786" data-name="Path 11786" d="M1014.4,419.693A43.094,43.094,0,0,0,971.3,462.787h10.938a32.212,32.212,0,1,1,28.238,31.909l-1.334,10.863a39.752,39.752,0,0,0,5.252.321,43.094,43.094,0,0,0,0-86.187Z" fill="#388032"/>
    </g>
    <g id="Group_3899" data-name="Group 3899" transform="translate(-9663.447 -2504.252)" style="isolation: isolate">
      <text id="_77_" data-name="77%" transform="translate(1014.398 466.216)" fill="#fff" font-size="12.797" font-family="Montserrat-Bold, Montserrat" font-weight="700" style="isolation: isolate"><tspan x="-13.584" y="0">77%</tspan></text>
    </g>
  </g>
</svg>
