<svg xmlns="http://www.w3.org/2000/svg" width="86.188" height="86.187" viewBox="0 0 86.188 86.187">
  <g id="Group_4002" data-name="Group 4002" transform="translate(8692.143 2212.039)">
    <g id="Group_3799" data-name="Group 3799" transform="translate(-9663.447 -2504.252)">
      <path id="Path_11805" data-name="Path 11805" d="M1014.4,292.213A43.093,43.093,0,0,0,971.3,335.306h10.938a32.185,32.185,0,1,1,26.573,31.663l-1.9,10.776a37.882,37.882,0,0,0,7.484.655,43.093,43.093,0,0,0,0-86.187Z" fill="#388032"/>
      <path id="Path_11806" data-name="Path 11806" d="M982.243,335.306H971.3a43.045,43.045,0,0,0,35.61,42.439l1.9-10.776A32.159,32.159,0,0,1,982.243,335.306Z" fill="#ecebeb"/>
    </g>
    <g id="Group_3900" data-name="Group 3900" transform="translate(-9663.447 -2504.252)" style="isolation: isolate">
      <text id="_78_" data-name="78%" transform="translate(1014.399 338.73)" fill="#fff" font-size="12.797" font-family="Montserrat-Bold, Montserrat" font-weight="700" style="isolation: isolate"><tspan x="-13.629" y="0">78%</tspan></text>
    </g>
  </g>
</svg>
