<svg xmlns="http://www.w3.org/2000/svg" width="86.188" height="86.188" viewBox="0 0 86.188 86.188">
  <g id="Group_4003" data-name="Group 4003" transform="translate(8692.143 2339.52)">
    <g id="Group_3809" data-name="Group 3809" transform="translate(-9663.447 -2504.252)">
      <path id="Path_11825" data-name="Path 11825" d="M982.243,207.826H971.3a42.742,42.742,0,0,0,32.668,41.814l2.646-10.612A32.164,32.164,0,0,1,982.243,207.826Z" fill="#ecebeb"/>
      <path id="Path_11826" data-name="Path 11826" d="M1014.4,164.732A43.094,43.094,0,0,0,971.3,207.826h10.938a32.145,32.145,0,1,1,24.376,31.2l-2.646,10.612a39.806,39.806,0,0,0,10.426,1.28,43.094,43.094,0,0,0,0-86.188Z" fill="#388032"/>
    </g>
    <g id="Group_3901" data-name="Group 3901" transform="translate(-9663.447 -2504.252)" style="isolation: isolate">
      <text id="_79_" data-name="79%" transform="translate(1014.399 211.249)" fill="#fff" font-size="12.797" font-family="Montserrat-Bold, Montserrat" font-weight="700" style="isolation: isolate"><tspan x="-13.654" y="0">79%</tspan></text>
    </g>
  </g>
</svg>
