<svg xmlns="http://www.w3.org/2000/svg" width="86.195" height="86.205" viewBox="0 0 86.195 86.205">
  <g id="Group_3931" data-name="Group 3931" transform="translate(9616 2211.952)">
    <g id="Group_3792" data-name="Group 3792" transform="translate(-9663.447 -2504.252)">
      <path id="Path_11791" data-name="Path 11791" d="M52.491,315.172A40.02,40.02,0,0,0,47.447,335.4H58.39a32.01,32.01,0,0,1,3.762-15.1Z" fill="#388032"/>
      <path id="Path_11792" data-name="Path 11792" d="M110.772,297.353a43.094,43.094,0,0,0-58.281,17.819l9.661,5.136a32.157,32.157,0,1,1-3.762,15.1H47.447A42.524,42.524,0,0,0,70.31,373.452a43.094,43.094,0,0,0,40.462-76.1Z" fill="#ecebeb"/>
    </g>
    <g id="Group_3830" data-name="Group 3830" transform="translate(-9663.447 -2504.252)" style="isolation: isolate">
      <text id="_8_" data-name="8%" transform="translate(90.547 338.73)" fill="#fff" font-size="12.797" font-family="Montserrat-Bold, Montserrat" font-weight="700" style="isolation: isolate"><tspan x="-9.77" y="0">8%</tspan></text>
    </g>
  </g>
</svg>
