<svg xmlns="http://www.w3.org/2000/svg" width="86.188" height="86.188" viewBox="0 0 86.188 86.188">
  <g id="Group_4004" data-name="Group 4004" transform="translate(8692.143 2467)">
    <g id="Group_3819" data-name="Group 3819" transform="translate(-9663.447 -2504.252)">
      <path id="Path_11845" data-name="Path 11845" d="M982.243,80.346H971.3a42.415,42.415,0,0,0,29.777,40.984l3.38-10.4A32.164,32.164,0,0,1,982.243,80.346Z" fill="#ecebeb"/>
      <path id="Path_11846" data-name="Path 11846" d="M1014.4,37.252A43.094,43.094,0,0,0,971.3,80.346h10.938a32.149,32.149,0,1,1,22.219,30.583l-3.38,10.4a40.967,40.967,0,0,0,13.317,2.11,43.094,43.094,0,0,0,0-86.188Z" fill="#388032"/>
    </g>
    <g id="Group_3902" data-name="Group 3902" transform="translate(-9663.447 -2504.252)" style="isolation: isolate">
      <text id="_80_" data-name="80%" transform="translate(1014.398 83.773)" fill="#fff" font-size="12.797" font-family="Montserrat-Bold, Montserrat" font-weight="700" style="isolation: isolate"><tspan x="-14.179" y="0">80%</tspan></text>
    </g>
  </g>
</svg>
