<svg xmlns="http://www.w3.org/2000/svg" width="86.188" height="86.187" viewBox="0 0 86.188 86.187">
  <g id="Group_4014" data-name="Group 4014" transform="translate(8560.167 1319.651)">
    <g id="Group_3730" data-name="Group 3730" transform="translate(-9663.447 -2504.252)">
      <path id="Path_11667" data-name="Path 11667" d="M1114.219,1227.694H1103.28a42.611,42.611,0,0,0,27.651,40.232l3.919-10.212A32.16,32.16,0,0,1,1114.219,1227.694Z" fill="#ecebeb"/>
      <path id="Path_11668" data-name="Path 11668" d="M1146.374,1184.6a43.093,43.093,0,0,0-43.094,43.093h10.939a32.155,32.155,0,1,1,20.631,30.02l-3.919,10.212a39.884,39.884,0,0,0,15.443,2.862,43.094,43.094,0,1,0,0-86.187Z" fill="#388032"/>
    </g>
    <g id="Group_3903" data-name="Group 3903" transform="translate(-9663.447 -2504.252)" style="isolation: isolate">
      <text id="_81_" data-name="81%" transform="translate(1146.374 1230.9)" fill="#fff" font-size="12.797" font-family="Montserrat-Bold, Montserrat" font-weight="700" style="isolation: isolate"><tspan x="-12.343" y="0">81%</tspan></text>
    </g>
  </g>
</svg>
