<svg xmlns="http://www.w3.org/2000/svg" width="86.188" height="86.188" viewBox="0 0 86.188 86.188">
  <g id="Group_4013" data-name="Group 4013" transform="translate(8560.167 1447.135)">
    <g id="Group_3740" data-name="Group 3740" transform="translate(-9663.447 -2504.252)">
      <path id="Path_11687" data-name="Path 11687" d="M1114.219,1100.211H1103.28a42.271,42.271,0,0,0,24.882,39.056l4.622-9.913A32.154,32.154,0,0,1,1114.219,1100.211Z" fill="#ecebeb"/>
      <path id="Path_11688" data-name="Path 11688" d="M1146.374,1057.117a43.094,43.094,0,0,0-43.094,43.094h10.939a32.155,32.155,0,1,1,18.565,29.143l-4.622,9.913a40.74,40.74,0,0,0,18.212,4.038,43.094,43.094,0,0,0,0-86.188Z" fill="#388032"/>
    </g>
    <g id="Group_3904" data-name="Group 3904" transform="translate(-9663.447 -2504.252)" style="isolation: isolate">
      <text id="_82_" data-name="82%" transform="translate(1146.374 1103.646)" fill="#fff" font-size="12.797" font-family="Montserrat-Bold, Montserrat" font-weight="700" style="isolation: isolate"><tspan x="-13.673" y="0">82%</tspan></text>
    </g>
  </g>
</svg>
