<svg xmlns="http://www.w3.org/2000/svg" width="86.188" height="86.188" viewBox="0 0 86.188 86.188">
  <g id="Group_4012" data-name="Group 4012" transform="translate(8560.167 1574.618)">
    <g id="Group_3750" data-name="Group 3750" transform="translate(-9663.447 -2504.252)">
      <path id="Path_11707" data-name="Path 11707" d="M1114.219,972.728H1103.28a42.526,42.526,0,0,0,22.863,38.05l5.134-9.657A32.147,32.147,0,0,1,1114.219,972.728Z" fill="#ecebeb"/>
      <path id="Path_11708" data-name="Path 11708" d="M1146.374,929.634a43.094,43.094,0,0,0-43.094,43.094h10.939a32.149,32.149,0,1,1,17.058,28.393l-5.134,9.657a40.02,40.02,0,0,0,20.231,5.044,43.094,43.094,0,0,0,0-86.188Z" fill="#388032"/>
    </g>
    <g id="Group_3905" data-name="Group 3905" transform="translate(-9663.447 -2504.252)" style="isolation: isolate">
      <text id="_83_" data-name="83%" transform="translate(1146.381 976.169)" fill="#fff" font-size="12.797" font-family="Montserrat-Bold, Montserrat" font-weight="700" style="isolation: isolate"><tspan x="-13.558" y="0">83%</tspan></text>
    </g>
  </g>
</svg>
