<svg xmlns="http://www.w3.org/2000/svg" width="86.188" height="86.188" viewBox="0 0 86.188 86.188">
  <g id="Group_4011" data-name="Group 4011" transform="translate(8560.167 1702.101)">
    <g id="Group_3760" data-name="Group 3760" transform="translate(-9663.447 -2504.252)">
      <path id="Path_11727" data-name="Path 11727" d="M1146.374,802.151a43.094,43.094,0,0,0-43.094,43.094h10.939a32.164,32.164,0,1,1,15.117,27.266l-5.8,9.279a40.709,40.709,0,0,0,22.836,6.549,43.094,43.094,0,0,0,0-86.188Z" fill="#388032"/>
      <path id="Path_11728" data-name="Path 11728" d="M1114.219,845.245H1103.28a42.172,42.172,0,0,0,20.258,36.545l5.8-9.279A32.124,32.124,0,0,1,1114.219,845.245Z" fill="#ecebeb"/>
    </g>
    <g id="Group_3906" data-name="Group 3906" transform="translate(-9663.447 -2504.252)" style="isolation: isolate">
      <text id="_84_" data-name="84%" transform="translate(1146.374 848.684)" fill="#fff" font-size="12.797" font-family="Montserrat-Bold, Montserrat" font-weight="700" style="isolation: isolate"><tspan x="-14.051" y="0">84%</tspan></text>
    </g>
  </g>
</svg>
