<svg xmlns="http://www.w3.org/2000/svg" width="86.188" height="86.187" viewBox="0 0 86.188 86.187">
  <g id="Group_4010" data-name="Group 4010" transform="translate(8560.167 1829.584)">
    <g id="Group_3770" data-name="Group 3770" transform="translate(-9663.447 -2504.252)">
      <path id="Path_11747" data-name="Path 11747" d="M1114.219,717.762H1103.28a41.789,41.789,0,0,0,17.764,34.863l6.433-8.853A32.1,32.1,0,0,1,1114.219,717.762Z" fill="#ecebeb"/>
      <path id="Path_11748" data-name="Path 11748" d="M1146.374,674.668a43.094,43.094,0,0,0-43.094,43.094h10.939a32.168,32.168,0,1,1,13.258,26.01l-6.433,8.853a41.289,41.289,0,0,0,25.33,8.23,43.093,43.093,0,1,0,0-86.187Z" fill="#388032"/>
    </g>
    <g id="Group_3907" data-name="Group 3907" transform="translate(-9663.447 -2504.252)" style="isolation: isolate">
      <text id="_85_" data-name="85%" transform="translate(1146.374 721.195)" fill="#fff" font-size="12.797" font-family="Montserrat-Bold, Montserrat" font-weight="700" style="isolation: isolate"><tspan x="-13.577" y="0">85%</tspan></text>
    </g>
  </g>
</svg>
