<svg xmlns="http://www.w3.org/2000/svg" width="86.188" height="86.187" viewBox="0 0 86.188 86.187">
  <g id="Group_4009" data-name="Group 4009" transform="translate(8560.167 1957.067)">
    <g id="Group_3780" data-name="Group 3780" transform="translate(-9663.447 -2504.252)">
      <path id="Path_11767" data-name="Path 11767" d="M1146.374,547.185a43.094,43.094,0,0,0-43.094,43.094h10.939a32.167,32.167,0,1,1,11.922,24.985l-6.887,8.505a40.775,40.775,0,0,0,27.12,9.6,43.094,43.094,0,1,0,0-86.187Z" fill="#388032"/>
      <path id="Path_11768" data-name="Path 11768" d="M1114.219,590.279H1103.28a42.142,42.142,0,0,0,15.974,33.49l6.887-8.505A32.086,32.086,0,0,1,1114.219,590.279Z" fill="#ecebeb"/>
    </g>
    <g id="Group_3908" data-name="Group 3908" transform="translate(-9663.447 -2504.252)" style="isolation: isolate">
      <text id="_86_" data-name="86%" transform="translate(1146.374 593.705)" fill="#fff" font-size="12.797" font-family="Montserrat-Bold, Montserrat" font-weight="700" style="isolation: isolate"><tspan x="-13.782" y="0">86%</tspan></text>
    </g>
  </g>
</svg>
