<svg xmlns="http://www.w3.org/2000/svg" width="86.188" height="86.187" viewBox="0 0 86.188 86.187">
  <g id="Group_4008" data-name="Group 4008" transform="translate(8560.167 2084.55)">
    <g id="Group_3790" data-name="Group 3790" transform="translate(-9663.447 -2504.252)">
      <path id="Path_11787" data-name="Path 11787" d="M1114.219,462.8H1103.28a41.741,41.741,0,0,0,13.7,31.517l7.465-8.005A32.063,32.063,0,0,1,1114.219,462.8Z" fill="#ecebeb"/>
      <path id="Path_11788" data-name="Path 11788" d="M1146.374,419.7A43.093,43.093,0,0,0,1103.28,462.8h10.939a32.173,32.173,0,1,1,10.23,23.512l-7.465,8.005a41.29,41.29,0,0,0,29.39,11.577,43.094,43.094,0,1,0,0-86.187Z" fill="#388032"/>
    </g>
    <g id="Group_3909" data-name="Group 3909" transform="translate(-9663.447 -2504.252)" style="isolation: isolate">
      <text id="_87_" data-name="87%" transform="translate(1146.374 466.216)" fill="#fff" font-size="12.797" font-family="Montserrat-Bold, Montserrat" font-weight="700" style="isolation: isolate"><tspan x="-13.84" y="0">87%</tspan></text>
    </g>
  </g>
</svg>
