<svg xmlns="http://www.w3.org/2000/svg" width="86.188" height="86.188" viewBox="0 0 86.188 86.188">
  <g id="Group_4007" data-name="Group 4007" transform="translate(8560.167 2212.034)">
    <g id="Group_3800" data-name="Group 3800" transform="translate(-9663.447 -2504.252)">
      <path id="Path_11807" data-name="Path 11807" d="M1114.219,335.312H1103.28a42.2,42.2,0,0,0,12.095,29.936l7.874-7.6A32.038,32.038,0,0,1,1114.219,335.312Z" fill="#ecebeb"/>
      <path id="Path_11808" data-name="Path 11808" d="M1146.374,292.218a43.094,43.094,0,0,0-43.094,43.094h10.939a32.176,32.176,0,1,1,9.03,22.331l-7.874,7.6a40.9,40.9,0,0,0,31,13.158,43.094,43.094,0,0,0,0-86.188Z" fill="#388032"/>
    </g>
    <g id="Group_3910" data-name="Group 3910" transform="translate(-9663.447 -2504.252)" style="isolation: isolate">
      <text id="_88_" data-name="88%" transform="translate(1146.374 338.73)" fill="#fff" font-size="12.797" font-family="Montserrat-Bold, Montserrat" font-weight="700" style="isolation: isolate"><tspan x="-13.993" y="0">88%</tspan></text>
    </g>
  </g>
</svg>
