<svg xmlns="http://www.w3.org/2000/svg" width="86.188" height="86.188" viewBox="0 0 86.188 86.188">
  <g id="Group_4006" data-name="Group 4006" transform="translate(8560.167 2339.517)">
    <g id="Group_3810" data-name="Group 3810" transform="translate(-9663.447 -2504.252)">
      <path id="Path_11827" data-name="Path 11827" d="M1146.374,164.735a43.094,43.094,0,0,0-43.094,43.094h10.939a32.165,32.165,0,1,1,7.526,20.666l-8.383,7.034a41.37,41.37,0,0,0,33.012,15.394,43.094,43.094,0,0,0,0-86.188Z" fill="#388032"/>
      <path id="Path_11828" data-name="Path 11828" d="M1114.219,207.829H1103.28a41.779,41.779,0,0,0,10.082,27.7l8.383-7.034A32.019,32.019,0,0,1,1114.219,207.829Z" fill="#ecebeb"/>
    </g>
    <g id="Group_3911" data-name="Group 3911" transform="translate(-9663.447 -2504.252)" style="isolation: isolate">
      <text id="_89_" data-name="89%" transform="translate(1146.374 211.249)" fill="#fff" font-size="12.797" font-family="Montserrat-Bold, Montserrat" font-weight="700" style="isolation: isolate"><tspan x="-13.91" y="0">89%</tspan></text>
    </g>
  </g>
</svg>
