<svg xmlns="http://www.w3.org/2000/svg" width="86.193" height="86.199" viewBox="0 0 86.193 86.199">
  <g id="Group_3932" data-name="Group 3932" transform="translate(9616 2339.479)">
    <g id="Group_3802" data-name="Group 3802" transform="translate(-9663.447 -2504.252)">
      <path id="Path_11811" data-name="Path 11811" d="M113.377,171.328a43.093,43.093,0,0,0-59.382,13.709l9.281,5.8a32.152,32.152,0,1,1-4.887,17.037H47.447a42.175,42.175,0,0,0,20.258,36.546,43.094,43.094,0,1,0,45.672-73.091Z" fill="#ecebeb"/>
      <path id="Path_11812" data-name="Path 11812" d="M53.995,185.037a40.716,40.716,0,0,0-6.548,22.836H58.389a32,32,0,0,1,4.887-17.037Z" fill="#388032"/>
    </g>
    <g id="Group_3831" data-name="Group 3831" transform="translate(-9663.447 -2504.252)" style="isolation: isolate">
      <text id="_9_" data-name="9%" transform="translate(90.547 211.249)" fill="#fff" font-size="12.797" font-family="Montserrat-Bold, Montserrat" font-weight="700" style="isolation: isolate"><tspan x="-9.687" y="0">9%</tspan></text>
    </g>
  </g>
</svg>
