<svg xmlns="http://www.w3.org/2000/svg" width="86.188" height="86.188" viewBox="0 0 86.188 86.188">
  <g id="Group_4005" data-name="Group 4005" transform="translate(8560.167 2467)">
    <g id="Group_3820" data-name="Group 3820" transform="translate(-9663.447 -2504.252)">
      <path id="Path_11847" data-name="Path 11847" d="M1114.219,80.346H1103.28a41.3,41.3,0,0,0,8.23,25.33l8.854-6.433A32,32,0,0,1,1114.219,80.346Z" fill="#ecebeb"/>
      <path id="Path_11848" data-name="Path 11848" d="M1146.374,37.252a43.094,43.094,0,0,0-43.094,43.094h10.939a32.168,32.168,0,1,1,6.145,18.9l-8.854,6.433a41.8,41.8,0,0,0,34.864,17.764,43.094,43.094,0,0,0,0-86.188Z" fill="#388032"/>
    </g>
    <g id="Group_3912" data-name="Group 3912" transform="translate(-9663.447 -2504.252)" style="isolation: isolate">
      <text id="_90_" data-name="90%" transform="translate(1146.374 83.773)" fill="#fff" font-size="12.797" font-family="Montserrat-Bold, Montserrat" font-weight="700" style="isolation: isolate"><tspan x="-14.032" y="0">90%</tspan></text>
    </g>
  </g>
</svg>
