<svg xmlns="http://www.w3.org/2000/svg" width="86.188" height="86.187" viewBox="0 0 86.188 86.187">
  <g id="Group_4015" data-name="Group 4015" transform="translate(8428.191 1319.651)">
    <g id="Group_3731" data-name="Group 3731" transform="translate(-9663.447 -2504.252)">
      <path id="Path_11669" data-name="Path 11669" d="M1246.194,1227.694h-10.938a41.958,41.958,0,0,0,6.952,23.471l9.178-5.96A31.991,31.991,0,0,1,1246.194,1227.694Z" fill="#ecebeb"/>
      <path id="Path_11670" data-name="Path 11670" d="M1278.349,1184.6a43.093,43.093,0,0,0-43.093,43.093h10.938a32.169,32.169,0,1,1,5.192,17.511l-9.178,5.96c8.3,12.775,20.909,19.623,36.141,19.623a43.094,43.094,0,1,0,0-86.187Z" fill="#388032"/>
    </g>
    <g id="Group_3913" data-name="Group 3913" transform="translate(-9663.447 -2504.252)" style="isolation: isolate">
      <text id="_91_" data-name="91%" transform="translate(1278.349 1230.9)" fill="#fff" font-size="12.797" font-family="Montserrat-Bold, Montserrat" font-weight="700" style="isolation: isolate"><tspan x="-12.157" y="0">91%</tspan></text>
    </g>
  </g>
</svg>
