<svg xmlns="http://www.w3.org/2000/svg" width="86.188" height="86.188" viewBox="0 0 86.188 86.188">
  <g id="Group_4016" data-name="Group 4016" transform="translate(8428.191 1447.135)">
    <g id="Group_3741" data-name="Group 3741" transform="translate(-9663.447 -2504.252)">
      <path id="Path_11689" data-name="Path 11689" d="M1246.194,1100.481c0-.091.006-.18.007-.27h-10.945a41.413,41.413,0,0,0,5.4,20.893l9.449-5.238A32.013,32.013,0,0,1,1246.194,1100.481Z" fill="#ecebeb"/>
      <path id="Path_11690" data-name="Path 11690" d="M1278.349,1057.117a43.093,43.093,0,0,0-43.093,43.094H1246.2a32.128,32.128,0,1,1,3.907,15.655l-9.449,5.238a41.906,41.906,0,0,0,37.69,22.2,43.094,43.094,0,0,0,0-86.188Z" fill="#388032"/>
    </g>
    <g id="Group_3914" data-name="Group 3914" transform="translate(-9663.447 -2504.252)" style="isolation: isolate">
      <text id="_92_" data-name="92%" transform="translate(1278.349 1103.646)" fill="#fff" font-size="12.797" font-family="Montserrat-Bold, Montserrat" font-weight="700" style="isolation: isolate"><tspan x="-13.488" y="0">92%</tspan></text>
    </g>
  </g>
</svg>
