<svg xmlns="http://www.w3.org/2000/svg" width="86.188" height="86.188" viewBox="0 0 86.188 86.188">
  <g id="Group_4017" data-name="Group 4017" transform="translate(8428.191 1574.618)">
    <g id="Group_3751" data-name="Group 3751" transform="translate(-9663.447 -2504.252)">
      <path id="Path_11709" data-name="Path 11709" d="M1246.194,972.728h-10.938a42.357,42.357,0,0,0,4.361,18.891l9.828-4.793A32.027,32.027,0,0,1,1246.194,972.728Z" fill="#ecebeb"/>
      <path id="Path_11710" data-name="Path 11710" d="M1278.349,929.634a43.093,43.093,0,0,0-43.093,43.094h10.938a32.143,32.143,0,1,1,3.251,14.1l-9.828,4.793c7.512,15.4,21.6,24.2,38.732,24.2a43.094,43.094,0,0,0,0-86.188Z" fill="#388032"/>
    </g>
    <g id="Group_3915" data-name="Group 3915" transform="translate(-9663.447 -2504.252)" style="isolation: isolate">
      <text id="_93_" data-name="93%" transform="translate(1278.356 976.169)" fill="#fff" font-size="12.797" font-family="Montserrat-Bold, Montserrat" font-weight="700" style="isolation: isolate"><tspan x="-13.347" y="0">93%</tspan></text>
    </g>
  </g>
</svg>
