<svg xmlns="http://www.w3.org/2000/svg" width="86.188" height="86.188" viewBox="0 0 86.188 86.188">
  <g id="Group_4018" data-name="Group 4018" transform="translate(8428.191 1702.101)">
    <g id="Group_3761" data-name="Group 3761" transform="translate(-9663.447 -2504.252)">
      <path id="Path_11729" data-name="Path 11729" d="M1246.194,845.245h-10.938a41.76,41.76,0,0,0,3.138,16.143l10.141-4.1A32.055,32.055,0,0,1,1246.194,845.245Z" fill="#ecebeb"/>
      <path id="Path_11730" data-name="Path 11730" d="M1278.349,802.151a43.093,43.093,0,0,0-43.093,43.094h10.938a32.153,32.153,0,1,1,2.341,12.046l-10.141,4.1c6.775,16.771,21.867,26.951,39.955,26.951a43.094,43.094,0,0,0,0-86.188Z" fill="#388032"/>
    </g>
    <g id="Group_3916" data-name="Group 3916" transform="translate(-9663.447 -2504.252)" style="isolation: isolate">
      <text id="_94_" data-name="94%" transform="translate(1278.35 848.684)" fill="#fff" font-size="12.797" font-family="Montserrat-Bold, Montserrat" font-weight="700" style="isolation: isolate"><tspan x="-13.904" y="0">94%</tspan></text>
    </g>
  </g>
</svg>
