<svg xmlns="http://www.w3.org/2000/svg" width="86.188" height="86.187" viewBox="0 0 86.188 86.187">
  <g id="Group_4019" data-name="Group 4019" transform="translate(8428.191 1829.584)">
    <g id="Group_3771" data-name="Group 3771" transform="translate(-9663.447 -2504.252)">
      <path id="Path_11749" data-name="Path 11749" d="M1246.194,717.762h-10.938a40.962,40.962,0,0,0,2.109,13.316l10.4-3.379A32.1,32.1,0,0,1,1246.194,717.762Z" fill="#ecebeb"/>
      <path id="Path_11750" data-name="Path 11750" d="M1278.349,674.668a43.093,43.093,0,0,0-43.093,43.094h10.938a32.152,32.152,0,1,1,1.573,9.937l-10.4,3.379a42.415,42.415,0,0,0,40.984,29.777,43.093,43.093,0,1,0,0-86.187Z" fill="#388032"/>
    </g>
    <g id="Group_3917" data-name="Group 3917" transform="translate(-9663.447 -2504.252)" style="isolation: isolate">
      <text id="_95_" data-name="95%" transform="translate(1278.349 721.195)" fill="#fff" font-size="12.797" font-family="Montserrat-Bold, Montserrat" font-weight="700" style="isolation: isolate"><tspan x="-13.43" y="0">95%</tspan></text>
    </g>
  </g>
</svg>
