<svg xmlns="http://www.w3.org/2000/svg" width="86.188" height="86.187" viewBox="0 0 86.188 86.187">
  <g id="Group_4020" data-name="Group 4020" transform="translate(8428.191 1957.067)">
    <g id="Group_3781" data-name="Group 3781" transform="translate(-9663.447 -2504.252)">
      <path id="Path_11769" data-name="Path 11769" d="M1246.194,590.279h-10.938a42.6,42.6,0,0,0,1.468,11.153l10.564-2.831A32.167,32.167,0,0,1,1246.194,590.279Z" fill="#ecebeb"/>
      <path id="Path_11770" data-name="Path 11770" d="M1278.349,547.185a43.093,43.093,0,0,0-43.093,43.094h10.938a32.148,32.148,0,1,1,1.094,8.322l-10.564,2.831c5.174,19.311,21.633,31.94,41.625,31.94a43.094,43.094,0,1,0,0-86.187Z" fill="#388032"/>
    </g>
    <g id="Group_3918" data-name="Group 3918" transform="translate(-9663.447 -2504.252)" style="isolation: isolate">
      <text id="_96_" data-name="96%" transform="translate(1278.349 593.705)" fill="#fff" font-size="12.797" font-family="Montserrat-Bold, Montserrat" font-weight="700" style="isolation: isolate"><tspan x="-13.635" y="0">96%</tspan></text>
    </g>
  </g>
</svg>
