<svg xmlns="http://www.w3.org/2000/svg" width="86.188" height="86.187" viewBox="0 0 86.188 86.187">
  <g id="Group_4021" data-name="Group 4021" transform="translate(8428.191 2084.55)">
    <g id="Group_3791" data-name="Group 3791" transform="translate(-9663.447 -2504.252)">
      <path id="Path_11789" data-name="Path 11789" d="M1246.194,462.8h-10.938a41.65,41.65,0,0,0,.791,8.223l10.739-2.087A32.3,32.3,0,0,1,1246.194,462.8Z" fill="#ecebeb"/>
      <path id="Path_11790" data-name="Path 11790" d="M1278.349,419.7a43.092,43.092,0,0,0-43.093,43.093h10.938a32.163,32.163,0,1,1,.592,6.136l-10.739,2.087a42.6,42.6,0,0,0,42.3,34.871,43.094,43.094,0,1,0,0-86.187Z" fill="#388032"/>
    </g>
    <g id="Group_3919" data-name="Group 3919" transform="translate(-9663.447 -2504.252)" style="isolation: isolate">
      <text id="_97_" data-name="97%" transform="translate(1278.349 466.216)" fill="#fff" font-size="12.797" font-family="Montserrat-Bold, Montserrat" font-weight="700" style="isolation: isolate"><tspan x="-13.667" y="0">97%</tspan></text>
    </g>
  </g>
</svg>
