<svg xmlns="http://www.w3.org/2000/svg" width="86.188" height="86.188" viewBox="0 0 86.188 86.188">
  <g id="Group_4022" data-name="Group 4022" transform="translate(8428.191 2212.034)">
    <g id="Group_3801" data-name="Group 3801" transform="translate(-9663.447 -2504.252)">
      <path id="Path_11809" data-name="Path 11809" d="M1246.194,335.312h-10.938a45.416,45.416,0,0,0,.419,6l10.836-1.523A32.38,32.38,0,0,1,1246.194,335.312Z" fill="#ecebeb"/>
      <path id="Path_11810" data-name="Path 11810" d="M1278.349,292.218a43.093,43.093,0,0,0-43.093,43.094h10.938a32.188,32.188,0,1,1,.317,4.475l-10.836,1.523a42.481,42.481,0,0,0,42.674,37.1,43.094,43.094,0,0,0,0-86.188Z" fill="#388032"/>
    </g>
    <g id="Group_3920" data-name="Group 3920" transform="translate(-9663.447 -2504.252)" style="isolation: isolate">
      <text id="_98_" data-name="98%" transform="translate(1278.349 338.73)" fill="#fff" font-size="12.797" font-family="Montserrat-Bold, Montserrat" font-weight="700" style="isolation: isolate"><tspan x="-13.846" y="0">98%</tspan></text>
    </g>
  </g>
</svg>
